<svg width="350" height="92" viewBox="0 0 350 92" fill="none" xmlns="http://www.w3.org/2000/svg">
<g clip-path="url(#clip0_379_178)">
<path d="M79.5685 45.9653C79.497 46.9563 79.4724 47.9532 79.341 48.9372C79.1864 50.0985 78.8522 51.2166 78.0562 52.1307C77.9132 52.2951 77.7057 52.4326 77.5005 52.5096C76.4525 52.899 75.4454 52.7626 74.5029 52.1843C73.4912 51.564 72.4877 50.9309 71.4912 50.285C70.3482 49.5447 69.1348 48.9698 67.7715 48.8032C65.8183 48.5641 63.9954 48.9209 62.3706 50.0903C61.7785 50.5159 61.7434 51.1338 61.7926 51.7494C61.8407 52.3557 62.2639 52.7171 62.8254 52.9025C63.6531 53.1765 64.4901 53.4225 65.3143 53.7046C65.5499 53.785 65.8055 53.9029 65.9684 54.0789C66.7996 54.9789 67.9121 55.4709 68.9063 56.1332C70.5663 57.2396 72.3154 58.2295 73.8018 59.5714C75.953 61.5127 77.8358 63.6883 79.4255 66.111C80.1898 67.2746 81.007 68.4055 81.7279 69.5947C82.3703 70.6545 82.7842 71.8239 83.0972 73.0237C83.3738 74.0835 83.6846 75.1351 83.9225 76.2031C84.1687 77.3061 84.3469 78.4253 84.5556 79.5364C84.5802 79.6659 84.6118 79.7941 84.6552 79.9923C83.6869 79.6705 82.7724 79.372 81.8627 79.0642C78.6975 77.9916 75.592 76.7756 72.6143 75.2541C69.2919 73.5565 66.2439 71.48 63.639 68.7961C61.4796 66.5715 59.7094 64.066 58.2815 61.3261C57.55 59.9236 56.8337 58.5058 56.2335 57.045C55.4726 55.1935 55.6199 55.7985 54.9715 53.7046C54.7159 52.9899 54.3536 51.9281 54.1476 50.6967C54.0103 49.8757 53.7864 48.8184 53.7356 47.8575C53.667 46.5576 53.7356 46.8997 53.667 45.8734C53.667 45.2235 53.6946 44.5257 53.7356 44.1631C53.8494 43.1545 53.829 42.8792 54.0014 41.88C54.237 40.5112 54.4761 39.1378 54.8314 37.797C55.4034 35.6412 56.1455 33.5368 57.0717 31.5011C58.7915 27.7236 61.0587 24.3051 63.8699 21.2459C66.5241 18.3579 67.2406 17.4331 70.6251 15.4289C71.772 14.8219 75.1221 13.2054 76.2549 12.7949C77.731 12.3844 78.8713 12.1231 80.3742 11.8713C81.6145 11.6638 82.9612 11.5513 84.2133 11.4231C85.0901 11.3333 85.9741 11.3158 86.8545 11.2715C87.4759 11.24 88.0971 11.2144 88.7184 11.1864C88.743 11.1864 88.7677 11.1852 88.7923 11.1841C89.3468 11.1841 89.9014 11.1841 90.4558 11.1841C90.4804 11.1841 90.5051 11.1852 90.5297 11.1864C91.2659 11.2132 92.0033 11.2202 92.7384 11.2739C93.6938 11.3438 94.6469 11.4464 95.6 11.5467C96.4019 11.6306 97.2061 11.7041 98.0021 11.8277C98.8965 11.9664 99.7875 12.1308 100.67 12.3313C101.606 12.5447 102.535 12.7895 103.453 13.0659C107.28 14.2166 110.801 15.9456 113.847 18.5631C116.62 20.9438 118.703 23.8248 120.052 27.2036C120.593 28.5572 121.024 29.9633 121.383 31.3752C121.683 32.5586 121.834 33.7828 121.998 34.9953C122.134 35.9968 122.203 37.0077 122.281 38.0162C122.344 38.8358 122.377 39.6566 122.423 40.4774C122.452 40.9905 122.48 41.5046 122.509 42.0176C122.509 42.7579 122.511 43.4971 122.512 44.2375C122.485 44.9813 122.474 45.7264 122.426 46.4679C122.375 47.2618 122.288 48.0535 122.214 48.8451C122.147 49.5622 122.117 50.2839 122.003 50.9927C121.777 52.4128 121.549 53.8364 121.245 55.2413C120.525 58.5606 119.42 61.7505 117.849 64.7737C114.818 70.6044 110.402 75.0804 104.573 78.1606C103.283 78.8427 101.94 79.4245 100.562 80.0809C100.426 79.3464 100.302 78.7063 100.192 78.0638C100.074 77.3737 99.9587 76.6834 99.8578 75.9897C99.7711 75.3962 99.6902 74.8017 99.6363 74.2059C99.5519 73.265 99.471 72.3241 99.4276 71.3809C99.3643 70.0063 99.7571 68.7145 100.212 67.4355C100.702 66.062 101.225 64.6979 101.632 63.3C101.859 62.52 101.92 61.6829 101.983 60.8668C102.069 59.7731 102.083 58.6726 102.133 57.5766C102.176 56.6299 102.192 55.6808 102.28 54.7387C102.395 53.5041 102.758 52.3242 103.342 51.2317C103.878 50.2302 104.469 49.2555 105.081 48.2984C106.164 46.6031 107.273 44.923 108.389 43.2488C109.084 42.2053 109.84 41.2015 110.519 40.1475C111.167 39.139 111.481 38.0162 111.372 36.8107C111.311 36.1298 111.129 35.4734 110.793 34.8659C110.694 34.6852 110.553 34.6386 110.345 34.6187C109.069 34.4951 108.256 35.2216 107.583 36.1368C107.011 36.9145 106.54 37.7655 105.979 38.5514C105.546 39.1564 105.096 39.7686 104.554 40.2734C103.549 41.2108 102.745 42.2998 101.932 43.3899C101.595 43.8411 101.224 44.2713 100.834 44.6771C100.411 45.1189 99.8755 45.3777 99.2529 45.4045C98.634 45.4314 98.5366 45.3404 98.6632 44.747C98.8766 43.7478 99.0888 42.744 99.3842 41.7669C99.6913 40.7514 100.099 39.7663 100.462 38.7671C100.997 37.2875 101.409 35.7777 101.722 34.2317C101.933 33.1964 102.349 32.203 102.661 31.1864C103.044 29.9376 103.497 28.7018 103.757 27.4287C103.92 26.6312 103.861 25.7649 103.76 24.9476C103.689 24.3623 103.154 23.9869 102.692 23.6394C101.943 23.0763 101.229 23.1568 100.607 23.8563C99.9927 24.5476 99.6175 25.3778 99.2846 26.2219C98.5003 28.2144 97.7266 30.2117 96.9857 32.2193C96.403 33.798 95.8919 35.4023 95.3151 36.9844C94.8568 38.2424 94.2225 39.4141 93.396 40.4762C93.3116 40.5847 93.2178 40.6873 93.124 40.7887C93.1041 40.8109 93.0655 40.8167 93.0174 40.8377C92.9951 40.7666 92.9588 40.7048 92.9588 40.643C92.9575 39.6368 92.9364 38.633 93.1288 37.6326C93.3538 36.4597 93.5273 35.2763 93.7231 34.0976C93.8966 33.0518 94.0854 32.0071 94.2389 30.959C94.3655 30.0939 94.4359 29.2207 94.5602 28.3544C94.6903 27.4496 94.8661 26.5507 94.9986 25.646C95.1522 24.5967 95.505 23.5963 95.7418 22.5703C96.0936 21.0418 95.4183 19.5553 94.1217 18.7263C93.2249 18.1527 91.9517 18.3975 91.3573 19.5331C91.0361 20.1463 90.9658 20.8168 90.8122 21.4709C90.5285 22.6846 90.2167 23.8912 89.9271 25.1038C89.6328 26.3362 89.3573 27.5732 89.0632 28.8056C88.831 29.7791 88.5684 30.7456 88.3445 31.7203C88.2143 32.2893 88.1124 32.8664 88.0386 33.4447C87.8814 34.6736 87.7876 35.9117 87.5931 37.1347C87.4852 37.8122 87.2637 38.4791 87.0245 39.1261C86.7678 39.8222 86.1089 39.9819 85.5309 39.4876C85.2637 39.2591 85.0315 38.9326 84.9107 38.6038C84.5462 37.6082 84.3856 36.5646 84.2601 35.5107C84.0632 33.8516 83.8018 32.1995 83.5825 30.5428C83.5122 30.0146 83.4817 29.4818 83.4454 28.9502C83.3692 27.8344 83.3809 26.7058 83.2086 25.6063C83.0292 24.4626 82.7021 23.3375 82.3785 22.2229C82.2742 21.8638 81.9718 21.5642 81.7702 21.2307C81.4876 20.7644 81.0586 20.7538 80.5907 20.8296C79.6271 20.9882 79.0469 21.6096 78.7526 22.4677C78.5263 23.1288 78.354 23.8341 78.3153 24.5278C78.2321 26.0645 78.2508 27.6058 78.2227 29.1449C78.2168 29.4503 78.1875 29.7558 78.17 30.0612C78.17 30.2245 78.1723 30.3889 78.1734 30.5521C78.1734 30.8715 78.1746 31.1921 78.1758 31.5117C78.1734 31.6982 78.1723 31.8847 78.17 32.0713C78.2297 32.7347 78.2883 33.398 78.3505 34.0614C78.3997 34.5803 78.4466 35.0991 78.5099 35.6168C78.5861 36.2429 78.6764 36.8667 78.7608 37.4915C78.8604 38.2296 78.96 38.9676 79.0609 39.7056C79.1465 40.3305 79.2391 40.9531 79.3188 41.5781C79.3786 42.0386 79.4337 42.5003 79.4724 42.962C79.5134 43.4505 79.5333 43.9413 79.5626 44.431C79.5626 44.9405 79.5615 45.45 79.5603 45.9607L79.5685 45.9653Z" fill="white"/>
<path d="M122.512 44.2384C122.512 43.4981 122.511 42.7589 122.51 42.0186C122.528 42.479 122.559 42.9396 122.564 43.4001C122.566 43.6788 122.531 43.9586 122.512 44.2384Z" fill="white"/>
<path d="M79.5703 45.9656C79.5703 45.4561 79.5714 44.9466 79.5726 44.436C79.5726 44.9455 79.5714 45.455 79.5703 45.9656Z" fill="white"/>
<path d="M78.1822 30.5557C78.1822 30.3925 78.1798 30.2281 78.1787 30.0649C78.1787 30.2281 78.181 30.3925 78.1822 30.5557Z" fill="white"/>
<path d="M88.7959 11.1865C88.7711 11.1865 88.7464 11.1877 88.7217 11.1889C88.7464 11.1889 88.7711 11.1877 88.7959 11.1865Z" fill="white"/>
<path d="M90.5371 11.1889C90.5124 11.1889 90.4876 11.1877 90.4629 11.1865C90.4876 11.1865 90.5124 11.1877 90.5371 11.1889Z" fill="white"/>
<path d="M174.545 34.9013V57.3263C174.545 58.026 174.882 58.497 175.555 58.7393C176.241 58.968 176.585 59.3381 176.585 59.8494C176.585 60.4011 176.275 60.677 175.656 60.677H168.813C168.194 60.677 167.885 60.4011 167.885 59.8494C167.885 59.3381 168.222 58.968 168.894 58.7393C169.567 58.497 169.904 58.026 169.904 57.3263V37.9491L159.105 61.2825H157.631L146.953 38.8574V57.3263C146.953 58.026 147.29 58.497 147.962 58.7393C148.635 58.968 148.972 59.3381 148.972 59.8494C148.972 60.4011 148.663 60.677 148.043 60.677H142.917C142.297 60.677 141.988 60.4011 141.988 59.8494C141.988 59.3381 142.324 58.968 142.998 58.7393C143.67 58.497 144.006 58.026 144.006 57.3263V34.9013C144.006 34.215 143.67 33.7507 142.998 33.5085C142.324 33.2662 141.988 32.8827 141.988 32.3579C141.988 31.8062 142.297 31.5304 142.917 31.5304H148.629L159.327 53.4509L169.681 31.5304H175.656C176.275 31.5304 176.585 31.8062 176.585 32.3579C176.585 32.8827 176.241 33.2662 175.555 33.5085C174.882 33.7507 174.545 34.215 174.545 34.9013ZM181.186 44.2467C180.999 43.8161 180.722 43.4797 180.359 43.2375C180.049 43.0356 179.686 42.8539 179.269 42.6924C178.852 42.5175 178.59 42.2821 178.482 41.986C178.428 41.8649 178.401 41.7573 178.401 41.663C178.401 41.2728 178.657 41.0777 179.168 41.0777H185.789C186.286 41.0777 186.623 41.2863 186.798 41.7034C186.851 41.7976 186.879 41.8986 186.879 42.0062C186.879 42.3157 186.683 42.5646 186.293 42.753C186.105 42.8472 185.97 43.0087 185.889 43.2375C185.863 43.3182 185.849 43.4124 185.849 43.5201C185.849 43.6412 185.882 43.769 185.95 43.9036L190.754 55.651L194.912 45.6798C195.02 45.4376 195.073 45.2021 195.073 44.9734C195.073 44.5831 194.912 44.1996 194.589 43.8228L193.701 42.753L195.8 41.1181C195.962 40.9432 196.157 40.8557 196.386 40.8557C196.642 40.8557 196.877 40.9633 197.092 41.1786L198.223 42.3292C198.518 42.6386 198.666 43.0154 198.666 43.4595C198.666 43.6883 198.619 43.9507 198.525 44.2467C198.31 44.8926 197.987 45.6529 197.556 46.5276L187.585 68.771C187.168 69.6591 186.798 70.4059 186.475 71.0115C186.058 71.7381 185.492 72.1015 184.779 72.1015H184.698L183.044 72.0409C182.492 71.9467 182.216 71.6843 182.216 71.2537L182.075 68.5691L183.609 68.5287C184.295 68.5019 184.786 68.1924 185.082 67.6003L188.231 61.0605C188.271 61.0605 188.291 61.047 188.291 61.0201C188.291 60.9663 188.245 60.8855 188.15 60.7779C188.069 60.6972 187.996 60.5558 187.928 60.3541C187.861 60.1656 187.814 60.0378 187.787 59.9705L181.186 44.2467ZM209.97 58.7594C210.979 58.6922 211.948 58.4298 212.876 57.9722C213.805 57.5012 214.551 56.815 215.117 55.9134C215.709 54.958 216.005 53.8008 216.005 52.4416V52.2196C215.964 50.8201 215.44 49.7571 214.431 49.0304C213.973 48.6806 213.414 48.4115 212.756 48.223C211.356 47.8463 209.902 47.5771 208.395 47.4157C206.902 47.2408 205.455 46.8169 204.056 46.1441C202.764 45.5385 201.802 44.6571 201.169 43.4998C200.551 42.3292 200.241 41.071 200.241 39.7253C200.241 37.1014 201.163 34.9484 203.006 33.2662C204.917 31.5035 207.319 30.6221 210.212 30.6221H210.838C213.946 30.7567 216.665 31.5775 218.993 33.0846L218.488 37.5454C218.434 38.0299 218.138 38.272 217.6 38.272H217.498C217.095 38.2452 216.772 37.9693 216.529 37.4445C215.991 36.2872 215.204 35.3116 214.168 34.5178C213.146 33.7238 212.055 33.2999 210.898 33.2461H210.596C209.438 33.2461 208.422 33.448 207.548 33.8516C206.969 34.1477 206.512 34.4706 206.175 34.8205C205.852 35.1704 205.563 35.601 205.307 36.1123C205.106 36.5295 204.95 37.0206 204.843 37.5857C204.749 38.0029 204.702 38.3932 204.702 38.7565C204.702 39.2409 204.776 39.6917 204.924 40.1088C205.18 40.9297 205.617 41.5554 206.235 41.986C206.694 42.3359 207.197 42.5781 207.749 42.7127C208.086 42.8069 208.489 42.8943 208.96 42.9751C209.431 43.0558 209.929 43.1366 210.454 43.2173C211.221 43.3384 212.036 43.4662 212.897 43.6008C213.771 43.7354 214.625 43.9237 215.46 44.166C216.9 44.637 217.976 45.2559 218.689 46.0229C219.201 46.615 219.625 47.2609 219.961 47.9606C220.338 48.8891 220.526 49.9051 220.526 51.0085C220.526 53.9958 219.309 56.4853 216.873 58.4769C215.608 59.513 214.208 60.28 212.675 60.7779C211.436 61.1682 210.118 61.3902 208.718 61.444C208.422 61.4574 208.127 61.4642 207.83 61.4642C205.906 61.4642 203.975 61.1682 202.037 60.5761L200.059 55.0656C200.019 54.958 199.999 54.8503 199.999 54.7427C199.999 54.5409 200.066 54.3457 200.2 54.1573C200.402 53.8343 200.718 53.6729 201.149 53.6729C201.513 53.7671 201.809 54.0497 202.037 54.5206C202.858 56.3103 203.874 57.4945 205.085 58.0731C206.081 58.5576 207.359 58.7998 208.92 58.7998C209.257 58.7998 209.606 58.7863 209.97 58.7594ZM225.088 43.6412C224.926 43.6412 224.335 43.6681 223.311 43.7218H223.191C222.612 43.7218 222.309 43.4528 222.282 42.9146V42.8742C222.282 42.5108 222.498 42.2283 222.928 42.0264C223.184 41.9053 223.729 41.6159 224.564 41.1585C224.779 41.0508 225 40.9499 225.229 40.8557C225.27 40.8422 225.29 40.8288 225.29 40.8153C225.29 40.8018 225.223 40.7951 225.088 40.7951V37.7473C225.088 36.9802 225.256 36.442 225.593 36.1325C225.929 35.8096 226.615 35.3991 227.651 34.9013C228.095 34.6859 228.473 34.5783 228.782 34.5783C229.428 34.5783 229.751 34.8877 229.751 35.5068V40.7144L234.05 40.6336H234.071C234.609 40.6336 234.878 40.9432 234.878 41.5621C234.878 41.764 234.851 42.0129 234.797 42.3089C234.609 43.1702 234.138 43.6008 233.384 43.6008L229.751 43.5806V55.8327C229.751 56.9361 230.127 57.7569 230.881 58.2952C231.648 58.8334 232.428 59.1564 233.222 59.264V60.6568C230.827 60.6568 228.87 60.4482 227.349 60.0311C225.842 59.6139 225.088 58.0126 225.088 55.2271V43.6412ZM246.847 40.5731C249.633 40.6807 251.974 41.7371 253.872 43.7421C255.769 45.7471 256.738 48.1288 256.778 50.8875V51.0085C256.778 53.794 255.789 56.1557 253.81 58.0934C251.779 60.0714 249.289 61.1008 246.343 61.1816H246.02C243.274 61.1816 240.913 60.1723 238.935 58.1539C236.93 56.122 235.927 53.72 235.927 50.948V50.8875C235.94 47.8463 237.091 45.2829 239.379 43.1971C239.688 42.9146 240.112 42.679 240.65 42.4907C241.188 42.3022 241.956 42.0264 242.951 41.663C243.544 41.4477 244.196 41.2123 244.909 40.9566C245.65 40.7009 246.269 40.5731 246.767 40.5731H246.847ZM246.382 42.7328H246.161C244.775 42.7328 243.564 43.4259 242.528 44.8119C241.384 46.3594 240.812 48.2769 240.812 50.5645C240.812 52.8521 241.363 54.8167 242.467 56.4584C243.584 58.0866 244.889 58.9343 246.382 59.0016H246.645C248.018 59.0016 249.215 58.3087 250.238 56.9226C251.382 55.3886 251.954 53.4778 251.954 51.1902C251.954 48.9026 251.396 46.9447 250.279 45.3165C249.162 43.6748 247.863 42.8136 246.382 42.7328ZM266.184 48.2634V57.3263C266.184 58.026 266.513 58.497 267.173 58.7393C267.846 58.968 268.182 59.3381 268.182 59.8494C268.182 60.4011 267.879 60.677 267.274 60.677H260.431C259.812 60.677 259.503 60.4011 259.503 59.8494C259.503 59.3381 259.839 58.968 260.512 58.7393C261.185 58.497 261.522 58.026 261.522 57.3263V44.4081C261.522 43.7354 261.185 43.2778 260.512 43.0356C259.839 42.7934 259.503 42.4099 259.503 41.8851C259.503 41.3334 259.805 41.0575 260.411 41.0575C261.245 41.0171 262.08 40.8826 262.914 40.6539C263.762 40.4251 264.852 40.0887 266.184 39.6446V42.2686L268.283 41.4814C269.319 41.0912 270.134 40.7951 270.725 40.5932C270.967 40.526 271.237 40.4923 271.533 40.4923C272.098 40.4923 272.905 40.674 273.955 41.0374L273.45 46.7698H271.654C271.129 44.8052 270.254 43.8228 269.03 43.8228C268.895 43.8228 268.768 43.8295 268.646 43.843C267.826 43.9372 267.22 44.4014 266.83 45.2358C266.439 46.0566 266.224 47.0658 266.184 48.2634ZM277.225 44.2467C277.036 43.8161 276.761 43.4797 276.397 43.2375C276.088 43.0356 275.725 42.8539 275.307 42.6924C274.89 42.5175 274.628 42.2821 274.52 41.986C274.467 41.8649 274.44 41.7573 274.44 41.663C274.44 41.2728 274.695 41.0777 275.206 41.0777H281.827C282.325 41.0777 282.661 41.2863 282.837 41.7034C282.89 41.7976 282.917 41.8986 282.917 42.0062C282.917 42.3157 282.722 42.5646 282.332 42.753C282.143 42.8472 282.009 43.0087 281.928 43.2375C281.901 43.3182 281.888 43.4124 281.888 43.5201C281.888 43.6412 281.921 43.769 281.988 43.9036L286.792 55.651L290.95 45.6798C291.058 45.4376 291.112 45.2021 291.112 44.9734C291.112 44.5831 290.95 44.1996 290.627 43.8228L289.739 42.753L291.839 41.1181C292 40.9432 292.195 40.8557 292.424 40.8557C292.679 40.8557 292.915 40.9633 293.131 41.1786L294.261 42.3292C294.557 42.6386 294.705 43.0154 294.705 43.4595C294.705 43.6883 294.658 43.9507 294.564 44.2467C294.348 44.8926 294.025 45.6529 293.595 46.5276L283.624 68.771C283.206 69.6591 282.837 70.4059 282.514 71.0115C282.096 71.7381 281.531 72.1015 280.818 72.1015H280.737L279.082 72.0409C278.531 71.9467 278.254 71.6843 278.254 71.2537L278.113 68.5691L279.647 68.5287C280.333 68.5019 280.825 68.1924 281.12 67.6003L284.27 61.0605C284.309 61.0605 284.33 61.047 284.33 61.0201C284.33 60.9663 284.283 60.8855 284.189 60.7779C284.108 60.6972 284.034 60.5558 283.967 60.3541C283.899 60.1656 283.852 60.0378 283.825 59.9705L277.225 44.2467Z" fill="white"/>
</g>
<defs>
<clipPath id="clip0_379_178">
<rect width="242" height="68.8968" fill="white" transform="translate(53.667 11.1841)"/>
</clipPath>
</defs>
</svg>
