<svg width="350" height="92" viewBox="0 0 350 92" fill="none" xmlns="http://www.w3.org/2000/svg">
<path d="M100.344 25.4271C102.47 21.7698 107.785 21.7697 109.911 25.4271L130.211 60.3515C132.337 64.0092 129.68 68.5812 125.428 68.5812H84.8276C80.5757 68.5812 77.9182 64.0092 80.0441 60.3515L100.344 25.4271ZM117.863 45.7743C117.386 44.9622 116.442 44.5403 115.513 44.7241L90.188 49.7368C89.8359 49.8066 89.5278 50.0163 89.3353 50.3174C88.8301 51.108 89.302 52.1544 90.2322 52.3061L120.385 57.2201C122.238 57.5223 123.608 55.544 122.661 53.9333L117.863 45.7743Z" fill="black"/>
<path d="M165.883 64.5387C163.456 64.5387 161.307 63.9875 159.434 62.8859C157.563 61.7839 156.089 60.2341 155.014 58.2366C153.94 56.2051 153.402 53.829 153.402 51.1083C153.402 48.3878 153.94 46.0289 155.014 44.0315C156.089 41.9998 157.563 40.4329 159.434 39.3309C161.307 38.229 163.456 37.678 165.883 37.678C168.31 37.678 170.459 38.229 172.331 39.3309C174.203 40.4329 175.677 41.9998 176.751 44.0315C177.826 46.0289 178.363 48.3878 178.363 51.1083C178.363 53.829 177.826 56.2051 176.751 58.2366C175.677 60.2341 174.203 61.7839 172.331 62.8859C170.459 63.9875 168.31 64.5387 165.883 64.5387ZM165.883 60.4063C167.374 60.4063 168.726 60.0791 169.939 59.4249C171.153 58.7706 172.106 57.7545 172.799 56.3773C173.527 54.9997 173.891 53.2434 173.891 51.1083C173.891 48.9732 173.527 47.2169 172.799 45.8395C172.106 44.462 171.153 43.4461 169.939 42.7918C168.726 42.1375 167.374 41.8103 165.883 41.8103C164.427 41.8103 163.092 42.1375 161.879 42.7918C160.665 43.4461 159.695 44.462 158.966 45.8395C158.239 47.2169 157.875 48.9732 157.875 51.1083C157.875 54.3111 158.655 56.6696 160.214 58.1851C161.775 59.6657 163.664 60.4063 165.883 60.4063ZM197.324 64.5387C194.031 64.5387 191.361 63.781 189.316 62.266C187.305 60.7162 186.178 58.5985 185.936 55.9123H190.46C190.668 57.3243 191.361 58.4778 192.54 59.3729C193.753 60.2685 195.382 60.7162 197.428 60.7162C199.369 60.7162 200.808 60.3028 201.744 59.4764C202.715 58.65 203.2 57.703 203.2 56.6353C203.2 55.189 202.628 54.2076 201.484 53.6911C200.34 53.1401 198.624 52.7268 196.336 52.4513C193.597 52.1414 191.326 51.401 189.524 50.2302C187.721 49.0593 186.82 47.303 186.82 44.9613C186.82 42.8607 187.704 41.1216 189.472 39.7442C191.24 38.3667 193.649 37.678 196.7 37.678C199.716 37.678 202.091 38.3667 203.824 39.7442C205.558 41.0872 206.546 43.0157 206.789 45.5295H202.472C202.368 44.2898 201.762 43.3084 200.652 42.5852C199.578 41.8276 198.225 41.4488 196.596 41.4488C194.897 41.4488 193.58 41.7759 192.644 42.4302C191.708 43.0501 191.24 43.8766 191.24 44.9097C191.24 45.9428 191.76 46.8037 192.8 47.4924C193.875 48.1467 195.556 48.5772 197.844 48.7838C199.647 48.9904 201.293 49.3348 202.784 49.8169C204.275 50.2991 205.454 51.0566 206.321 52.0897C207.222 53.1229 207.673 54.5691 207.673 56.4288C207.707 57.9786 207.274 59.3729 206.373 60.6128C205.506 61.8182 204.292 62.7824 202.732 63.5054C201.172 64.1944 199.369 64.5387 197.324 64.5387ZM227.933 33.7521C226.893 33.7521 226.026 33.4078 225.333 32.7191C224.64 32.0303 224.293 31.2038 224.293 30.2396C224.293 29.2409 224.64 28.4145 225.333 27.7602C226.026 27.0714 226.893 26.7271 227.933 26.7271C228.939 26.7271 229.788 27.0714 230.481 27.7602C231.21 28.4145 231.573 29.2409 231.573 30.2396C231.573 31.2038 231.21 32.0303 230.481 32.7191C229.788 33.4078 228.939 33.7521 227.933 33.7521ZM217.845 63.9188V60.1998H226.061V43.3084C226.061 42.4475 225.628 42.017 224.761 42.017H218.729V38.2978H225.801C228.887 38.2978 230.429 39.8302 230.429 42.8951V60.1998H238.646V63.9188H217.845ZM259.686 64.5387C256.393 64.5387 253.724 63.781 251.678 62.266C249.667 60.7162 248.541 58.5985 248.298 55.9123H252.822C253.03 57.3243 253.724 58.4778 254.902 59.3729C256.116 60.2685 257.745 60.7162 259.791 60.7162C261.732 60.7162 263.171 60.3028 264.107 59.4764C265.077 58.65 265.563 57.703 265.563 56.6353C265.563 55.189 264.991 54.2076 263.847 53.6911C262.703 53.1401 260.986 52.7268 258.698 52.4513C255.96 52.1414 253.689 51.401 251.886 50.2302C250.083 49.0593 249.182 47.303 249.182 44.9613C249.182 42.8607 250.066 41.1216 251.834 39.7442C253.602 38.3667 256.012 37.678 259.062 37.678C262.079 37.678 264.453 38.3667 266.187 39.7442C267.92 41.0872 268.908 43.0157 269.151 45.5295H264.835C264.731 44.2898 264.124 43.3084 263.015 42.5852C261.94 41.8276 260.588 41.4488 258.959 41.4488C257.26 41.4488 255.942 41.7759 255.006 42.4302C254.07 43.0501 253.602 43.8766 253.602 44.9097C253.602 45.9428 254.122 46.8037 255.162 47.4924C256.237 48.1467 257.918 48.5772 260.206 48.7838C262.009 48.9904 263.656 49.3348 265.147 49.8169C266.638 50.2991 267.816 51.0566 268.683 52.0897C269.584 53.1229 270.035 54.5691 270.035 56.4288C270.07 57.9786 269.636 59.3729 268.735 60.6128C267.868 61.8182 266.655 62.7824 265.095 63.5054C263.535 64.1944 261.732 64.5387 259.686 64.5387Z" fill="black"/>
</svg>
