<svg width="350" height="92" viewBox="0 0 350 92" fill="none" xmlns="http://www.w3.org/2000/svg">
<g clip-path="url(#clip0_379_143)">
<path d="M74.8604 64.8617C74.8604 63.1687 76.2327 61.7964 77.9257 61.7964H83.0345C84.7274 61.7964 86.0997 63.1687 86.0997 64.8617C86.0997 66.5546 84.7274 67.927 83.0345 67.927H77.9257C76.2327 67.927 74.8604 66.5546 74.8604 64.8617Z" fill="black"/>
<path d="M76.3926 29.6107C76.3926 27.9178 77.765 26.5454 79.4579 26.5454H83.2384C84.9313 26.5454 86.3037 27.9178 86.3037 29.6107C86.3037 31.3036 84.9313 32.676 83.2384 32.676H79.4579C77.765 32.676 76.3926 31.3036 76.3926 29.6107Z" fill="black"/>
<path d="M58.001 53.1116C58.001 51.4187 59.3734 50.0464 61.0663 50.0464H90.9019C92.5948 50.0464 93.9672 51.4187 93.9672 53.1116C93.9672 54.8046 92.5948 56.1769 90.9019 56.1769H61.0663C59.3734 56.1769 58.001 54.8046 58.001 53.1116Z" fill="black"/>
<path d="M65.46 41.3612C65.46 39.6683 66.8323 38.2959 68.5252 38.2959H90.902C92.5949 38.2959 93.9673 39.6683 93.9673 41.3612C93.9673 43.0542 92.5949 44.4265 90.902 44.4265H68.5252C66.8323 44.4265 65.46 43.0542 65.46 41.3612Z" fill="black"/>
<path d="M84.2863 26.5454C95.8966 26.5455 105.308 35.8092 105.308 47.2363C105.308 58.6634 95.8965 67.9272 84.2863 67.9273C82.5742 67.9273 80.9097 67.7256 79.3164 67.3455V61.7961H79.6233C81.1752 61.7961 82.4337 60.5384 82.4337 58.9866C82.4337 57.4347 81.1752 56.177 79.6233 56.177H79.3164V50.0795H83.5926C85.1442 50.0794 86.402 48.8217 86.4021 47.27C86.4021 45.7183 85.1443 44.4599 83.5926 44.4597H79.3164V38.2956H86.8978C88.4494 38.2955 89.7071 37.0377 89.7073 35.4861C89.7073 33.9344 88.4494 32.676 86.8978 32.6758H79.3164V27.1272C80.9097 26.7471 82.5742 26.5454 84.2863 26.5454Z" fill="black"/>
<path d="M130.938 62.325C128.902 62.325 127.027 62.028 125.314 61.4342C123.617 60.8405 122.251 59.8225 121.216 58.3804C120.182 56.9383 119.664 54.9449 119.664 52.4C119.664 48.5997 120.64 45.9276 122.591 44.3837C124.559 42.8397 127.341 42.0678 130.938 42.0678C133.313 42.0678 135.264 42.246 136.791 42.6022C138.318 42.9586 139.522 43.3912 140.405 43.9002C141.304 44.3922 141.965 44.8587 142.39 45.2998V35.5275C142.39 35.0695 142.432 34.6538 142.517 34.2805C142.602 33.9073 142.89 33.7207 143.382 33.7207C143.874 33.7207 144.171 33.8903 144.273 34.2296C144.375 34.569 144.425 34.9846 144.425 35.4766V60.6962C144.425 61.2391 144.316 61.6039 144.095 61.7905C143.891 61.9771 143.671 62.0705 143.433 62.0705C143.145 62.0705 142.899 61.9856 142.695 61.816C142.491 61.6463 142.39 61.29 142.39 60.7471V57.2098C142.119 58.2956 141.533 59.1778 140.634 59.8565C139.752 60.535 138.725 61.0525 137.554 61.4088C136.384 61.7651 135.205 62.0026 134.017 62.1214C132.83 62.2571 131.803 62.325 130.938 62.325ZM130.938 60.8235C131.956 60.8235 133.059 60.7556 134.246 60.6199C135.451 60.4672 136.613 60.2042 137.733 59.831C138.852 59.4577 139.828 58.9403 140.659 58.2786C141.508 57.6 142.084 56.7263 142.39 55.6574V46.4959C141.88 46.0717 141.16 45.6391 140.226 45.198C139.311 44.7399 138.097 44.3582 136.587 44.0528C135.094 43.7305 133.211 43.5693 130.938 43.5693C127.68 43.5693 125.322 44.2734 123.863 45.6815C122.421 47.0727 121.7 49.3122 121.7 52.4C121.7 54.5377 122.116 56.2258 122.947 57.4643C123.778 58.6858 124.889 59.551 126.281 60.06C127.689 60.569 129.241 60.8235 130.938 60.8235ZM162.546 62.3504C158.304 62.3504 155.242 61.4682 153.359 59.7037C151.476 57.9224 150.535 55.4454 150.535 52.2728C150.535 49.643 151.069 47.5902 152.137 46.1142C153.223 44.6382 154.691 43.5947 156.54 42.984C158.389 42.3732 160.451 42.0678 162.724 42.0678C166.253 42.0678 168.891 42.7465 170.639 44.1037C172.403 45.444 173.286 47.3697 173.286 49.8806C173.286 50.3387 173.218 50.8815 173.082 51.5093C172.946 52.12 172.81 52.4254 172.675 52.4254L152.57 52.1709C152.638 55.5132 153.503 57.7951 155.166 59.0166C156.846 60.2381 159.297 60.849 162.52 60.849C164.421 60.849 166.007 60.6793 167.279 60.34C168.569 59.9837 169.604 59.5935 170.384 59.1693C171.182 58.7282 171.767 58.3804 172.14 58.126C172.191 58.092 172.259 58.075 172.344 58.075C172.53 58.075 172.7 58.1684 172.853 58.355C173.023 58.5246 173.107 58.7112 173.107 58.9149C173.107 59.1015 173.023 59.2541 172.853 59.3729C172.666 59.5595 172.182 59.8989 171.402 60.3909C170.639 60.8659 169.528 61.3155 168.068 61.7396C166.627 62.1468 164.786 62.3504 162.546 62.3504ZM152.595 50.9239H171.784V49.7278C171.784 48.5912 171.495 47.5648 170.919 46.6486C170.342 45.7155 169.392 44.969 168.068 44.4091C166.745 43.8492 164.964 43.5693 162.724 43.5693C159.586 43.5693 157.142 44.1122 155.395 45.198C153.664 46.2838 152.732 48.1925 152.595 50.9239ZM190.871 62.325C189.667 62.325 188.335 62.274 186.876 62.1723C185.417 62.0875 184.001 61.8754 182.626 61.536C181.269 61.1798 180.098 60.6199 179.114 59.8565C178.877 59.6698 178.758 59.4493 178.758 59.1948C178.758 58.6519 178.979 58.3804 179.42 58.3804C179.555 58.3804 179.657 58.4144 179.725 58.4822C181.15 59.4662 182.787 60.1025 184.636 60.3909C186.485 60.6793 188.48 60.8235 190.617 60.8235C192.314 60.8235 193.908 60.7047 195.401 60.4672C196.894 60.2297 198.099 59.814 199.015 59.2202C199.948 58.6265 200.415 57.8035 200.415 56.7517C200.415 55.7168 200.007 54.9449 199.193 54.4359C198.396 53.9269 197.336 53.5791 196.012 53.3924C194.706 53.2059 193.263 53.0956 191.686 53.0616C190.108 53.0277 188.522 52.9769 186.927 52.9089C185.349 52.8411 183.899 52.6629 182.575 52.3745C181.269 52.0692 180.209 51.5687 179.394 50.8731C178.597 50.1774 178.198 49.185 178.198 47.8956C178.198 46.3347 178.733 45.1387 179.801 44.3073C180.887 43.459 182.27 42.8737 183.949 42.5513C185.629 42.229 187.368 42.0678 189.167 42.0678C191.338 42.0678 193.4 42.2545 195.35 42.6277C197.318 43.0009 199.109 43.6117 200.72 44.46C200.991 44.6127 201.144 44.8502 201.178 45.1726C201.178 45.3931 201.11 45.5882 200.974 45.7579C200.839 45.9276 200.686 46.0123 200.517 46.0123C200.415 46.0123 200.347 45.9954 200.313 45.9615C198.87 45.2319 197.225 44.6551 195.376 44.231C193.526 43.7898 191.49 43.5693 189.269 43.5693C187.741 43.5693 186.283 43.705 184.891 43.9765C183.517 44.231 182.397 44.6721 181.532 45.2998C180.667 45.9276 180.234 46.7928 180.234 47.8956C180.234 48.8796 180.633 49.6091 181.43 50.0842C182.245 50.5423 183.305 50.8561 184.611 51.0258C185.935 51.1954 187.385 51.2972 188.963 51.3311C190.558 51.3651 192.144 51.4244 193.722 51.5093C195.3 51.5941 196.742 51.7977 198.048 52.12C199.372 52.4424 200.432 52.9684 201.229 53.6979C202.043 54.4104 202.451 55.4284 202.451 56.7517C202.451 58.1429 201.899 59.2457 200.796 60.06C199.711 60.8574 198.285 61.4342 196.521 61.7905C194.756 62.1468 192.874 62.325 190.871 62.325ZM219.146 70.5703C217.246 70.5703 215.727 70.4431 214.59 70.1886C213.454 69.9341 212.554 69.6202 211.893 69.247C211.248 68.8737 210.705 68.5175 210.264 68.1782C210.129 68.0594 210.061 67.8982 210.061 67.6946C210.061 67.1347 210.324 66.8548 210.85 66.8548C210.985 66.8548 211.13 66.9057 211.282 67.0075C211.927 67.4826 212.826 67.9407 213.98 68.3817C215.151 68.8398 216.872 69.0688 219.146 69.0688C221.487 69.0688 223.32 68.7126 224.643 68C225.966 67.3044 226.899 66.1337 227.442 64.4881C228.002 62.8424 228.282 60.5945 228.282 57.7442C228.01 58.7791 227.476 59.602 226.679 60.2127C225.898 60.8235 224.982 61.2815 223.93 61.587C222.896 61.8923 221.835 62.0875 220.749 62.1723C219.68 62.274 218.713 62.325 217.848 62.325C215.422 62.325 213.479 62.0196 212.02 61.4088C210.578 60.781 209.535 59.7292 208.89 58.2532C208.262 56.7771 207.949 54.7667 207.949 52.2218V44.4091C207.949 43.968 207.999 43.5523 208.101 43.1622C208.203 42.7719 208.483 42.5768 208.941 42.5768C209.433 42.5768 209.73 42.7719 209.831 43.1622C209.933 43.5523 209.985 43.968 209.985 44.4091V52.2218C209.985 54.4274 210.188 56.1579 210.595 57.4134C211.019 58.6688 211.791 59.551 212.911 60.06C214.047 60.569 215.694 60.8235 217.848 60.8235C219.154 60.8235 220.537 60.6962 221.996 60.4418C223.472 60.1703 224.795 59.6868 225.966 58.9912C227.136 58.2956 227.909 57.2861 228.282 55.9628V44.4091C228.282 43.968 228.342 43.5523 228.46 43.1622C228.579 42.7719 228.842 42.5768 229.249 42.5768C229.741 42.5768 230.038 42.7719 230.139 43.1622C230.259 43.5523 230.318 43.968 230.318 44.4091V56.9044C230.318 60.3824 229.936 63.1139 229.172 65.0989C228.426 67.1008 227.23 68.509 225.584 69.3233C223.956 70.1547 221.809 70.5703 219.146 70.5703ZM238.081 62.0705C237.606 62.0705 237.3 61.8754 237.165 61.4851C237.045 61.095 236.986 60.6793 236.986 60.2381V43.7474C236.986 43.459 237.045 43.1961 237.165 42.9586C237.284 42.7041 237.58 42.5768 238.055 42.5768C238.479 42.5768 238.742 42.6956 238.844 42.9331C238.963 43.1537 239.022 43.4251 239.022 43.7474V46.5467C239.972 45.2235 241.067 44.2479 242.305 43.6202C243.543 42.9755 244.816 42.5598 246.122 42.3732C247.429 42.1696 248.659 42.0678 249.812 42.0678C252.239 42.0678 254.156 42.3647 255.564 42.9586C256.989 43.5354 258.007 44.5024 258.618 45.8597C259.229 47.2169 259.534 49.0747 259.534 51.4329V60.2381C259.534 60.6793 259.457 61.095 259.305 61.4851C259.17 61.8754 258.898 62.0705 258.49 62.0705C257.999 62.0705 257.71 61.8754 257.625 61.4851C257.54 61.095 257.498 60.6793 257.498 60.2381V51.4329C257.498 49.6685 257.303 48.2094 256.912 47.0557C256.523 45.8852 255.767 45.0114 254.648 44.4346C253.545 43.8577 251.908 43.5693 249.736 43.5693C248.413 43.5693 246.996 43.722 245.486 44.0274C243.993 44.3327 242.645 44.8587 241.44 45.6052C240.235 46.3517 239.429 47.3951 239.022 48.7353V60.2381C239.022 60.6793 238.971 61.095 238.87 61.4851C238.768 61.8754 238.505 62.0705 238.081 62.0705ZM278.215 62.325C275.653 62.325 273.396 62.0365 271.445 61.4597C269.511 60.8829 268.001 59.8734 266.915 58.4313C265.83 56.9723 265.287 54.9194 265.287 52.2728C265.287 49.643 265.787 47.5902 266.788 46.1142C267.806 44.6382 269.282 43.5947 271.216 42.984C273.15 42.3732 275.483 42.0678 278.215 42.0678C279.708 42.0678 281.251 42.2205 282.846 42.5259C284.458 42.8143 286.002 43.3402 287.477 44.1037C287.834 44.2903 288.012 44.5533 288.012 44.8927C288.012 45.3337 287.775 45.5543 287.299 45.5543C287.147 45.5543 286.969 45.5119 286.765 45.4271C286.222 45.1556 285.484 44.8757 284.551 44.5872C283.618 44.2988 282.592 44.0613 281.472 43.8747C280.369 43.6711 279.283 43.5693 278.215 43.5693C274.329 43.5693 271.539 44.2479 269.842 45.6052C268.162 46.9455 267.323 49.168 267.323 52.2728C267.323 55.3944 268.221 57.6 270.02 58.8894C271.835 60.1788 274.558 60.8235 278.189 60.8235C279.275 60.8235 280.369 60.7302 281.472 60.5435C282.592 60.34 283.618 60.094 284.551 59.8055C285.484 59.5171 286.222 59.2372 286.765 58.9657C286.969 58.8809 287.147 58.8385 287.299 58.8385C287.775 58.8385 288.012 59.059 288.012 59.5001C288.012 59.8395 287.834 60.1025 287.477 60.289C286.002 61.0525 284.458 61.587 282.846 61.8923C281.251 62.1807 279.708 62.325 278.215 62.325Z" fill="black"/>
</g>
<defs>
<clipPath id="clip0_379_143">
<rect width="233.332" height="50.5152" fill="white" transform="translate(58.001 20.375)"/>
</clipPath>
</defs>
</svg>
