<svg width="350" height="92" viewBox="0 0 350 92" fill="none" xmlns="http://www.w3.org/2000/svg">
<g clip-path="url(#clip0_379_203)">
<path d="M76.3755 24.5527H28.333V62.9281H76.3755V24.5527Z" fill="white"/>
<path d="M74.3983 26.5298H30.3105V60.9505H74.3983V26.5298Z" fill="white"/>
<path d="M33.5871 26.5112H30.3281V32.3884L33.5871 26.5112Z" fill="black" stroke="black" stroke-width="0.0366177"/>
<path d="M40.5994 26.5479H36.7912L30.3281 37.7712V44.1976L40.5994 26.5479Z" fill="black" stroke="black" stroke-width="0.0366177"/>
<path d="M47.3187 26.5479H43.4556L30.3281 49.2142V56.0618L47.3187 26.5479Z" fill="black" stroke="black" stroke-width="0.0366177"/>
<path d="M54.0755 26.5479H50.2276L30.3105 60.9319H34.0118L54.0755 26.5479Z" fill="black" stroke="black" stroke-width="0.0366177"/>
<path d="M60.8865 26.5479H57.0446L37.1582 60.9319H40.8537L60.8865 26.5479Z" fill="black" stroke="black" stroke-width="0.0366177"/>
<path d="M67.367 26.5479H63.5251L43.6387 60.9319H47.3342L67.367 26.5479Z" fill="black" stroke="black" stroke-width="0.0366177"/>
<path d="M74.3611 26.5479H70.5192L50.6328 60.9319H54.3284L74.3611 26.5479Z" fill="black" stroke="black" stroke-width="0.0366177"/>
<path d="M57.4072 60.9319H61.2704L74.3978 38.2655V31.418L57.4072 60.9319Z" fill="black" stroke="black" stroke-width="0.0366177"/>
<path d="M64.1084 60.932H67.9098L74.3614 49.7086V43.2822L64.1084 60.932Z" fill="black" stroke="black" stroke-width="0.0366177"/>
<path d="M71.1396 60.9697H74.3986V55.0742L71.1396 60.9697Z" fill="black" stroke="black" stroke-width="0.0366177"/>
<path d="M108.407 47.8174C108.407 48.4034 108.367 48.9779 108.286 49.5409C108.217 50.1039 108.166 50.6784 108.131 51.2643C108.05 51.1839 107.959 51.1207 107.855 51.0748C107.763 51.0173 107.666 50.9886 107.562 50.9886C107.436 50.9886 107.315 51.0288 107.2 51.1092C107.086 51.1896 107.028 51.2931 107.028 51.4194C107.028 51.5573 107.091 51.6492 107.217 51.6952C107.355 51.7411 107.493 51.7641 107.631 51.7641C107.746 51.7641 107.826 51.7584 107.872 51.7469C107.872 51.8848 107.832 52.0284 107.752 52.1778C107.683 52.3156 107.591 52.4535 107.476 52.5914C107.372 52.7293 107.258 52.8614 107.131 52.9878C107.016 53.1027 106.913 53.2061 106.821 53.298C106.752 53.3669 106.677 53.4646 106.597 53.591C106.516 53.7174 106.425 53.8438 106.321 53.9702C106.229 54.0851 106.132 54.1885 106.028 54.2804C105.925 54.3608 105.821 54.401 105.718 54.401C105.603 54.401 105.511 54.3723 105.442 54.3148C105.373 54.2459 105.293 54.2114 105.201 54.2114C105.075 54.2114 104.994 54.2804 104.96 54.4183C104.937 54.5447 104.925 54.671 104.925 54.7974V55.0042C104.925 55.0617 104.805 55.1364 104.563 55.2283C104.322 55.3202 104.029 55.4236 103.684 55.5385C103.351 55.6419 103.001 55.7511 102.633 55.866C102.277 55.9694 101.978 56.0728 101.737 56.1762C101.266 56.3715 100.789 56.5324 100.306 56.6588C99.8238 56.7851 99.3238 56.8483 98.8071 56.8483C98.4277 56.8483 98.06 56.7966 97.7041 56.6932C97.3595 56.6013 97.009 56.4979 96.6526 56.383C96.3079 56.2566 95.9574 56.1475 95.6015 56.0555C95.2569 55.9522 94.8946 55.9004 94.5156 55.9004C94.3661 55.9004 94.171 55.9234 93.9298 55.9694C93.6881 56.0153 93.5043 56.0843 93.3783 56.1762C93.3205 56.2222 93.2631 56.3026 93.2058 56.4175C93.1484 56.5439 93.0793 56.607 92.9989 56.607C92.9415 56.607 92.8611 56.5841 92.7577 56.5381C92.6542 56.4921 92.5797 56.4577 92.5336 56.4347C92.2694 56.2968 92.0454 56.1187 91.8615 55.9004C91.6777 55.6707 91.5223 55.4236 91.3963 55.1594C91.2698 54.8951 91.1777 54.6193 91.1203 54.3321C91.063 54.0333 91.034 53.7461 91.034 53.4704C91.034 53.275 91.0517 53.0854 91.086 52.9016C91.1321 52.7063 91.1546 52.5109 91.1546 52.3156C91.1546 52.0399 91.1203 51.7699 91.0517 51.5056C90.9938 51.2413 90.9654 50.9713 90.9654 50.6956C90.9654 50.5003 90.9938 50.3049 91.0517 50.1096C91.1203 49.9143 91.1546 49.7189 91.1546 49.5236C91.1546 49.3743 91.1203 49.2364 91.0517 49.11C90.9826 48.9721 90.9482 48.8285 90.9482 48.6791C90.9482 48.5757 90.9826 48.4895 91.0517 48.4206C91.1321 48.3517 91.1723 48.2712 91.1723 48.1793C91.1723 48.0415 91.1664 47.9036 91.1546 47.7657C91.1434 47.6278 91.1375 47.49 91.1375 47.3521C91.1375 47.2831 91.1375 47.1855 91.1375 47.0591C91.1492 46.9212 91.1664 46.7891 91.1894 46.6627C91.2125 46.5363 91.2527 46.4271 91.31 46.3352C91.3674 46.2433 91.4478 46.1973 91.5512 46.1973C91.7581 46.1973 91.965 46.3295 92.1719 46.5937C92.39 46.8465 92.5851 47.1452 92.7577 47.49C92.9415 47.8346 93.091 48.1793 93.2058 48.524C93.3205 48.8687 93.3783 49.1272 93.3783 49.2996C93.3783 49.357 93.3553 49.4145 93.3092 49.4719C93.2631 49.5179 93.2057 49.5409 93.1366 49.5409C93.1827 49.6213 93.2347 49.7419 93.292 49.9028C93.3494 50.0637 93.3783 50.19 93.3783 50.282C93.3783 50.4198 93.3553 50.552 93.3092 50.6784C93.2749 50.8047 93.2577 50.9369 93.2577 51.0748C93.2577 51.1896 93.2803 51.2988 93.3263 51.4022C93.3837 51.5056 93.4411 51.6033 93.4989 51.6952C93.5906 51.833 93.671 51.9365 93.7401 52.0054C93.8087 52.0743 93.8837 52.1261 93.9641 52.1605C94.0445 52.1835 94.1308 52.2007 94.2225 52.2122C94.3259 52.2237 94.4583 52.2352 94.6191 52.2467C94.849 52.5799 95.1073 52.8901 95.3946 53.1774C95.6819 53.4646 95.9922 53.7231 96.3251 53.9529C96.8423 54.0678 97.3536 54.1597 97.859 54.2287C98.3644 54.2976 98.8757 54.3321 99.3929 54.3321C99.818 54.3321 100.186 54.2861 100.496 54.1942C100.818 54.1023 101.111 53.9816 101.375 53.8323C101.651 53.6829 101.915 53.5163 102.168 53.3325C102.421 53.1372 102.685 52.9361 102.96 52.7293C103.156 52.5914 103.363 52.4593 103.581 52.3329C103.799 52.2065 104.012 52.0743 104.219 51.9365C104.426 51.7986 104.621 51.6492 104.805 51.4884C104.988 51.3161 105.144 51.1207 105.27 50.9024C105.35 50.7645 105.465 50.6266 105.615 50.4887C105.776 50.3394 105.856 50.1785 105.856 50.0062C105.856 49.9372 105.85 49.8856 105.839 49.8511C105.793 49.4834 105.759 49.1272 105.736 48.7825C105.724 48.4263 105.707 48.0644 105.684 47.6967C105.661 47.3521 105.586 47.0936 105.46 46.9212C105.333 46.7374 105.172 46.588 104.977 46.4731C104.793 46.3467 104.592 46.226 104.374 46.1112C104.156 45.9963 103.943 45.8354 103.736 45.6286C103.518 45.4103 103.271 45.2724 102.995 45.2149C102.731 45.1575 102.455 45.123 102.168 45.1116C101.88 45.1001 101.593 45.0828 101.306 45.0598C101.03 45.0254 100.772 44.9163 100.53 44.7324C100.462 44.6864 100.404 44.6634 100.358 44.6634C100.255 44.6634 100.151 44.698 100.048 44.7669C99.9562 44.8243 99.8528 44.8531 99.7376 44.8531C99.5655 44.8531 99.3871 44.8301 99.2032 44.7841C99.0311 44.7382 98.8586 44.6864 98.6865 44.629C98.514 44.5715 98.3419 44.5141 98.1693 44.4567C97.9968 44.3992 97.8247 44.359 97.6521 44.336C97.4227 44.3016 97.233 44.2786 97.0835 44.267C96.9457 44.2556 96.8134 44.2383 96.6874 44.2154C96.5722 44.1809 96.4457 44.1349 96.3079 44.0775C96.1702 44.0085 95.9976 43.9052 95.7907 43.7673C95.1936 43.3766 94.5558 43.0894 93.8779 42.9055C93.7514 42.5838 93.5847 42.2564 93.3783 41.9232C93.2518 41.8427 93.1254 41.768 92.9989 41.6991C92.8842 41.6187 92.769 41.5325 92.6542 41.4406C92.5851 41.3257 92.4934 41.1246 92.3787 40.8374C92.2753 40.5501 92.1719 40.2456 92.0684 39.924C91.965 39.5907 91.8728 39.2805 91.7924 38.9933C91.7238 38.706 91.689 38.4992 91.689 38.3728C91.689 38.1085 91.7179 37.8558 91.7753 37.6145C91.8326 37.3732 91.965 37.1549 92.1719 36.9596C92.2062 36.9366 92.2464 36.9079 92.2924 36.8734C92.3498 36.8275 92.3787 36.7757 92.3787 36.7183C92.3787 36.6608 92.3327 36.6206 92.2405 36.5976C92.1601 36.5632 92.1199 36.5 92.1199 36.4081C92.1199 36.3966 92.1258 36.3793 92.137 36.3564C92.1488 36.3219 92.1547 36.2932 92.1547 36.2702C92.2351 36.0174 92.3557 35.7761 92.5165 35.5463C92.6773 35.3165 92.8611 35.0982 93.068 34.8914C93.2749 34.6846 93.4871 34.495 93.7058 34.3227C93.9352 34.1389 94.1539 33.9722 94.3607 33.8229C94.5098 33.7195 94.6362 33.5873 94.7397 33.4265C94.8544 33.2656 94.975 33.1507 95.1015 33.0818C95.1819 33.0818 95.2623 33.0818 95.3427 33.0818C95.4231 33.0703 95.5039 33.0646 95.5843 33.0646C95.676 33.0646 95.7564 33.0703 95.8255 33.0818C95.9059 33.0818 95.9922 33.0818 96.0839 33.0818C96.2104 33.0358 96.2966 32.9841 96.3422 32.9267C96.3883 32.8577 96.4344 32.7945 96.4805 32.7371C96.5261 32.6796 96.5839 32.6337 96.6526 32.5992C96.733 32.5648 96.8712 32.5475 97.0663 32.5475C97.1928 32.5475 97.3193 32.5533 97.4453 32.5648C97.5717 32.5648 97.6982 32.5648 97.8247 32.5648C98.2615 32.5648 98.6919 32.559 99.1174 32.5475C99.5537 32.536 99.9905 32.5303 100.427 32.5303C100.737 32.5303 101.042 32.536 101.341 32.5475C101.651 32.5475 101.961 32.5705 102.271 32.6164C102.478 32.6394 102.679 32.6854 102.875 32.7543C103.07 32.8118 103.277 32.8405 103.495 32.8405C103.702 32.8405 103.845 32.8003 103.926 32.7199C104.018 32.6394 104.086 32.5533 104.132 32.4613C104.19 32.3694 104.253 32.2832 104.322 32.2028C104.391 32.1224 104.512 32.0822 104.684 32.0822C104.925 32.0822 105.172 32.1454 105.425 32.2718C105.689 32.3981 105.937 32.5015 106.166 32.582L106.149 32.6509C106.114 32.7543 106.097 32.8692 106.097 32.9956C106.097 33.1909 106.126 33.3863 106.184 33.5816C106.252 33.7654 106.321 33.9493 106.39 34.1331C106.459 34.317 106.522 34.5008 106.58 34.6846C106.649 34.8685 106.683 35.0638 106.683 35.2706C106.683 35.397 106.672 35.5176 106.649 35.6325C106.626 35.7359 106.615 35.8508 106.615 35.9772C106.615 36.207 106.66 36.3736 106.752 36.477C106.844 36.5689 106.89 36.6551 106.89 36.7355C106.89 36.8275 106.85 36.9079 106.769 36.9768C106.689 37.0342 106.649 37.1262 106.649 37.2525C106.649 37.5513 106.666 37.85 106.7 38.1488C106.735 38.436 106.752 38.729 106.752 39.0277C106.752 39.1312 106.746 39.2863 106.735 39.4931C106.735 39.6999 106.712 39.9067 106.666 40.1135C106.632 40.3088 106.568 40.4812 106.476 40.6306C106.396 40.7799 106.275 40.8546 106.114 40.8546C105.942 40.8546 105.776 40.7914 105.615 40.665C105.454 40.5271 105.322 40.395 105.218 40.2686C105.069 40.1078 104.96 39.9354 104.891 39.7516C104.822 39.5563 104.764 39.3552 104.718 39.1484C104.673 38.9416 104.621 38.7405 104.563 38.5452C104.506 38.3384 104.42 38.1488 104.305 37.9764C104.121 37.7122 103.943 37.4479 103.771 37.1836C103.61 36.9079 103.449 36.6321 103.288 36.3564C103.162 36.1495 103.052 36.0059 102.96 35.9255C102.869 35.8451 102.771 35.7934 102.668 35.7704C102.564 35.7359 102.444 35.7187 102.306 35.7187C102.179 35.7187 102.019 35.7015 101.823 35.667C101.616 35.6325 101.409 35.5808 101.203 35.5119C101.007 35.4429 100.806 35.3797 100.599 35.3223C100.404 35.2533 100.203 35.1959 99.9964 35.1499C99.7895 35.0925 99.5827 35.0638 99.3758 35.0638C99.0424 35.0638 98.7037 35.1155 98.359 35.2189C98.0144 35.3223 97.6698 35.4544 97.3247 35.6153C96.98 35.7646 96.6413 35.9255 96.3079 36.0979C95.9746 36.2587 95.653 36.3966 95.3427 36.5115C95.0554 37.1204 94.9117 37.7754 94.9117 38.4762C94.9117 38.9818 94.9696 39.3954 95.0843 39.7171C95.199 40.0388 95.3544 40.3146 95.5495 40.5444C95.7564 40.7627 95.9863 40.958 96.2393 41.1304C96.5035 41.3027 96.779 41.4866 97.0663 41.6819C97.3649 41.8772 97.658 42.0093 97.9453 42.0783C98.2438 42.1357 98.5659 42.1644 98.9105 42.1644C99.1057 42.1644 99.2954 42.1587 99.4792 42.1472C99.6743 42.1357 99.8699 42.13 100.065 42.13C100.284 42.13 100.49 42.1587 100.686 42.2161C100.881 42.2736 101.071 42.3425 101.254 42.4229C101.449 42.4919 101.645 42.5551 101.84 42.6125C102.036 42.67 102.237 42.6987 102.444 42.6987C102.639 42.6987 102.823 42.6872 102.995 42.6642C103.179 42.6412 103.363 42.6298 103.547 42.6298C103.707 42.6298 103.851 42.67 103.978 42.7504C104.104 42.8193 104.23 42.9055 104.357 43.0089C104.483 43.1008 104.609 43.187 104.736 43.2675C104.874 43.3479 105.023 43.3938 105.184 43.4053C105.413 43.5202 105.603 43.6236 105.753 43.7155C105.902 43.8075 106.034 43.9052 106.149 44.0085C106.275 44.1119 106.39 44.2383 106.494 44.3877C106.609 44.5371 106.735 44.7209 106.873 44.9392C106.999 45.1575 107.166 45.3471 107.372 45.508C107.579 45.6688 107.746 45.8642 107.872 46.0939C107.919 46.1744 107.947 46.272 107.959 46.3869C107.97 46.4903 107.987 46.5937 108.01 46.6972C108.033 46.7891 108.068 46.8753 108.114 46.9557C108.171 47.0246 108.257 47.0648 108.372 47.0763C108.384 47.2027 108.39 47.3291 108.39 47.4555C108.401 47.5704 108.407 47.691 108.407 47.8174ZM127.744 52.8671C127.744 52.982 127.698 53.0624 127.606 53.1084C127.526 53.1544 127.445 53.2003 127.365 53.2463C127.238 53.3153 127.135 53.3957 127.055 53.4876C126.974 53.5795 126.899 53.6829 126.831 53.7978C126.761 53.9012 126.698 54.0161 126.641 54.1425C126.584 54.2574 126.52 54.3666 126.451 54.4699C126.29 54.7112 126.066 54.8779 125.779 54.9698C125.504 55.0617 125.228 55.1479 124.952 55.2283C124.676 55.3087 124.424 55.4236 124.194 55.573C123.975 55.7109 123.837 55.9521 123.78 56.2968H123.694C123.429 56.2968 123.182 56.3428 122.953 56.4347C122.734 56.5267 122.51 56.6243 122.281 56.7277C122.062 56.8426 121.838 56.946 121.609 57.0379C121.379 57.1298 121.138 57.1758 120.885 57.1758C120.747 57.1758 120.614 57.1528 120.488 57.1068C120.373 57.0609 120.253 57.0092 120.126 56.9517C120.011 56.8943 119.891 56.8426 119.764 56.7966C119.649 56.7507 119.523 56.7277 119.385 56.7277C119.201 56.7277 119.023 56.7392 118.851 56.7622C118.679 56.7851 118.506 56.7966 118.334 56.7966C118.207 56.7966 118.058 56.7794 117.886 56.7449C117.713 56.722 117.553 56.676 117.403 56.607C117.254 56.5381 117.127 56.4519 117.024 56.3485C116.921 56.2336 116.869 56.0958 116.869 55.9349C116.869 55.8774 116.875 55.8315 116.886 55.797C116.829 55.8545 116.766 55.8947 116.697 55.9177C116.627 55.9292 116.559 55.9349 116.49 55.9349C116.145 55.9349 115.823 55.8602 115.524 55.7109C115.237 55.55 114.962 55.3604 114.697 55.1421C114.444 54.9123 114.203 54.671 113.973 54.4183C113.755 54.154 113.537 53.9127 113.318 53.6944C113.054 53.4301 112.847 53.1257 112.698 52.781C112.56 52.4363 112.394 52.1031 112.198 51.7814C111.784 51.115 111.532 50.4428 111.44 49.7649C111.348 49.0755 111.302 48.3574 111.302 47.6106C111.302 47.4727 111.308 47.3176 111.319 47.1452C111.342 46.9614 111.382 46.8293 111.44 46.7488C111.486 46.6914 111.543 46.6512 111.612 46.6282C111.682 46.5937 111.744 46.565 111.802 46.542C111.871 46.5076 111.928 46.4731 111.974 46.4386C112.02 46.4041 112.043 46.3525 112.043 46.2835C112.043 46.1227 112.003 45.979 111.923 45.8526C111.842 45.7148 111.802 45.5654 111.802 45.4046C111.802 45.2897 111.825 45.192 111.871 45.1116C111.928 45.0311 111.986 44.945 112.043 44.8531C112.135 44.7037 112.215 44.4567 112.285 44.1119C112.365 43.7558 112.445 43.4053 112.526 43.0606C112.618 42.7044 112.727 42.3942 112.853 42.13C112.991 41.8542 113.169 41.7163 113.388 41.7163C113.548 41.7163 113.698 41.7393 113.836 41.7853C113.973 41.8312 114.123 41.8542 114.284 41.8542C114.421 41.8542 114.554 41.837 114.68 41.8025L114.697 41.6646C114.697 41.5268 114.651 41.4406 114.56 41.4061C114.479 41.3716 114.387 41.3487 114.284 41.3372C114.192 41.3257 114.1 41.3142 114.008 41.3027C113.928 41.2797 113.888 41.2165 113.888 41.1131C113.888 41.0442 113.916 40.9867 113.973 40.9408C114.042 40.8833 114.117 40.8374 114.197 40.8029C114.29 40.7569 114.381 40.7168 114.473 40.6822C114.565 40.6478 114.634 40.6133 114.68 40.5788C114.795 40.4869 114.875 40.4007 114.921 40.3204C114.968 40.2284 115.008 40.1422 115.042 40.0618C115.088 39.9814 115.151 39.9124 115.232 39.855C115.312 39.7976 115.444 39.7459 115.628 39.6999C115.789 39.6654 115.95 39.6482 116.111 39.6482C116.272 39.6367 116.432 39.6309 116.593 39.6309C116.754 39.6195 116.915 39.6079 117.076 39.5965C117.237 39.585 117.398 39.5563 117.558 39.5103L117.386 39.338C117.443 39.2345 117.524 39.1541 117.627 39.0967C117.73 39.0277 117.846 38.976 117.972 38.9416C118.11 38.9071 118.242 38.8899 118.368 38.8899C118.506 38.8784 118.627 38.8726 118.73 38.8726C119.133 38.8726 119.523 38.9243 119.902 39.0277C120.281 39.1312 120.661 39.1829 121.04 39.1829C121.201 39.1829 121.356 39.1656 121.505 39.1312C121.666 39.0852 121.827 39.0622 121.988 39.0622C122.229 39.0622 122.453 39.1254 122.66 39.2518C122.878 39.3667 123.085 39.4758 123.28 39.5792L123.349 39.5965C123.452 39.5965 123.539 39.5563 123.608 39.4758C123.676 39.3954 123.746 39.3552 123.815 39.3552C123.872 39.3552 123.918 39.3839 123.952 39.4414C123.987 39.4873 124.021 39.5333 124.056 39.5792C124.148 39.6827 124.268 39.7516 124.418 39.786C124.578 39.809 124.688 39.8665 124.745 39.9584C124.826 40.0963 124.918 40.1939 125.021 40.2514C125.124 40.2974 125.228 40.3318 125.331 40.3548C125.434 40.3778 125.544 40.4007 125.658 40.4237C125.774 40.4467 125.882 40.4984 125.986 40.5788V41.0614C126.216 41.3602 126.429 41.5899 126.624 41.7508C126.831 41.9002 127.009 42.061 127.158 42.2334C127.319 42.3942 127.439 42.601 127.52 42.8538C127.612 43.0951 127.658 43.4513 127.658 43.9224C127.658 44.4279 127.612 44.8703 127.52 45.2495C127.439 45.6286 127.29 45.9503 127.072 46.2146C126.865 46.4673 126.584 46.6627 126.227 46.8005C125.871 46.9269 125.429 46.9844 124.9 46.9729L123.78 46.9557C123.688 46.8063 123.556 46.5995 123.384 46.3352C123.211 46.0595 123.039 45.778 122.867 45.4907C122.694 45.192 122.539 44.9163 122.401 44.6634C122.275 44.3992 122.212 44.1981 122.212 44.0603C122.212 43.8879 122.223 43.7155 122.246 43.5432C122.281 43.3709 122.298 43.1985 122.298 43.0262C122.218 42.8079 122.108 42.6298 121.97 42.4919C121.844 42.354 121.694 42.2506 121.522 42.1817C121.35 42.1013 121.16 42.0495 120.954 42.0265C120.758 42.0036 120.557 41.9921 120.35 41.9921C120.052 41.9921 119.753 42.0151 119.454 42.061C119.167 42.107 118.885 42.1817 118.609 42.2851C118.609 42.1817 118.581 42.0897 118.524 42.0093C118.478 41.9174 118.391 41.8714 118.265 41.8714C118.104 41.8714 117.909 41.9346 117.679 42.061C117.449 42.1759 117.214 42.3196 116.972 42.4919C116.743 42.6642 116.53 42.8481 116.335 43.0434C116.139 43.2273 115.996 43.3881 115.904 43.526C115.823 43.6409 115.714 43.819 115.576 44.0603C115.439 44.3016 115.289 44.5428 115.128 44.7841C114.979 45.0254 114.818 45.2437 114.645 45.439C114.485 45.6229 114.336 45.7205 114.197 45.732C114.232 45.8928 114.278 46.1112 114.336 46.3869C114.393 46.6512 114.444 46.9327 114.491 47.2314C114.537 47.5302 114.577 47.8174 114.611 48.0931C114.645 48.3574 114.663 48.5642 114.663 48.7136C114.663 48.9779 114.709 49.2249 114.801 49.4547C114.893 49.6845 114.939 49.9315 114.939 50.1958C114.939 50.3911 114.91 50.5864 114.852 50.7817C114.807 50.9771 114.784 51.1724 114.784 51.3677C114.784 51.5401 114.807 51.655 114.852 51.7124C114.91 51.7699 115.019 51.8216 115.18 51.8676C115.364 51.925 115.49 52.0227 115.559 52.1605C115.64 52.2984 115.703 52.442 115.748 52.5914C115.806 52.7293 115.869 52.8499 115.938 52.9533C116.019 53.0567 116.156 53.1084 116.352 53.1084H116.438L116.645 53.0912C116.783 53.275 116.863 53.4818 116.886 53.7117C116.921 53.9414 117.007 54.1483 117.145 54.3321C117.225 54.3206 117.277 54.2861 117.3 54.2287C117.323 54.1712 117.346 54.1138 117.369 54.0563C117.392 53.9989 117.426 53.9472 117.472 53.9012C117.529 53.8552 117.627 53.8323 117.765 53.8323C117.892 53.8323 117.995 53.8668 118.075 53.9357C118.156 54.0046 118.23 54.0851 118.3 54.177C118.368 54.2574 118.437 54.3321 118.506 54.401C118.586 54.4699 118.684 54.5045 118.799 54.5045C118.995 54.5045 119.207 54.4699 119.437 54.401C119.678 54.3206 119.919 54.2344 120.161 54.1425C120.413 54.0391 120.661 53.9357 120.902 53.8323C121.143 53.7289 121.362 53.6485 121.557 53.591C122.028 53.4531 122.47 53.2521 122.884 52.9878C123.298 52.7235 123.631 52.3731 123.883 51.9365C124.01 51.7067 124.159 51.4941 124.331 51.2988C124.515 51.1035 124.659 50.8851 124.762 50.6439C124.878 50.6439 124.992 50.6381 125.107 50.6266C125.222 50.6152 125.343 50.6094 125.469 50.6094C125.504 50.6094 125.555 50.6094 125.624 50.6094C125.705 50.6094 125.785 50.6152 125.865 50.6266C125.946 50.6381 126.015 50.6554 126.072 50.6784C126.141 50.7013 126.176 50.73 126.176 50.7645C126.176 50.8679 126.135 50.9541 126.055 51.023C125.986 51.0805 125.906 51.1379 125.814 51.1954C125.733 51.2413 125.658 51.2988 125.59 51.3677C125.521 51.4252 125.486 51.5114 125.486 51.6263L125.676 51.609C125.814 51.609 125.998 51.6435 126.227 51.7124C126.457 51.7814 126.681 51.879 126.899 52.0054C127.129 52.1203 127.325 52.2524 127.486 52.4018C127.658 52.5512 127.744 52.7063 127.744 52.8671ZM126.503 53.8323C126.503 53.7633 126.474 53.7059 126.417 53.6599C126.371 53.6025 126.313 53.5738 126.245 53.5738C126.164 53.5738 126.095 53.6255 126.038 53.7289C125.981 53.8323 125.952 53.9127 125.952 53.9702C125.952 54.0391 125.992 54.0736 126.072 54.0736C126.153 54.0621 126.205 54.0563 126.227 54.0563C126.285 54.0563 126.342 54.0449 126.4 54.0219C126.469 53.9874 126.503 53.9242 126.503 53.8323ZM150.425 55.5902C150.425 55.7855 150.39 55.9751 150.321 56.159C150.264 56.3313 150.184 56.4979 150.08 56.6588C149.816 56.6818 149.557 56.699 149.305 56.7105C149.063 56.722 148.811 56.7277 148.546 56.7277C148.293 56.7277 148.041 56.722 147.788 56.7105C147.535 56.7105 147.282 56.7105 147.03 56.7105C146.673 56.7105 146.323 56.7449 145.978 56.8139C145.645 56.8828 145.3 56.9173 144.944 56.9173C144.473 56.9173 144.221 56.6702 144.186 56.1762C144.025 56.1762 143.881 56.2279 143.755 56.3313C143.629 56.4232 143.502 56.5209 143.376 56.6243C143.249 56.7392 143.112 56.8426 142.962 56.9345C142.813 57.0379 142.64 57.0896 142.445 57.0896C142.25 57.0896 142.049 57.0322 141.842 56.9173C141.647 56.8024 141.549 56.63 141.549 56.4002C141.549 56.3198 141.566 56.2451 141.601 56.1762C141.647 56.1073 141.692 56.0498 141.738 56.0038C141.796 55.9464 141.848 55.9004 141.893 55.866C141.939 55.82 141.963 55.7798 141.963 55.7453C141.963 55.6879 141.939 55.6361 141.893 55.5902C141.848 55.5443 141.79 55.4983 141.721 55.4523C141.664 55.4064 141.612 55.3604 141.566 55.3145C141.52 55.257 141.497 55.1881 141.497 55.1076C141.497 54.9238 141.566 54.7917 141.704 54.7112C141.842 54.6193 142.02 54.5561 142.239 54.5217C142.457 54.4872 142.692 54.4699 142.945 54.4699C143.198 54.4585 143.444 54.447 143.686 54.4355C143.927 54.424 144.14 54.3953 144.323 54.3493C144.507 54.2919 144.634 54.1942 144.703 54.0563C144.818 53.8495 144.91 53.6025 144.978 53.3153C145.048 53.028 145.099 52.7293 145.134 52.4191C145.18 52.1088 145.208 51.8043 145.22 51.5056C145.243 51.1954 145.254 50.9196 145.254 50.6784C145.254 50.1728 145.231 49.673 145.185 49.1789C145.151 48.6849 145.082 48.1908 144.978 47.6967C144.933 47.467 144.87 47.2429 144.789 47.0246C144.72 46.8063 144.686 46.5822 144.686 46.3525C144.686 46.2031 144.709 46.0709 144.754 45.9561C144.8 45.8412 144.847 45.7377 144.893 45.6458C144.95 45.5539 145.001 45.4678 145.048 45.3873C145.094 45.2954 145.117 45.2035 145.117 45.1116C145.117 44.9163 145.059 44.7496 144.944 44.6118C144.829 44.4624 144.743 44.3016 144.686 44.1292C144.628 43.9683 144.588 43.8075 144.565 43.6466C144.553 43.4743 144.513 43.3077 144.445 43.1468C144.387 43.0319 144.312 42.9285 144.221 42.8366C144.128 42.7332 144.037 42.6355 143.944 42.5436C143.853 42.4402 143.761 42.3425 143.669 42.2506C143.577 42.1587 143.508 42.0495 143.462 41.9232C143.06 41.8887 142.675 41.8714 142.307 41.8714C141.802 41.8714 141.331 41.9059 140.894 41.9749C140.469 42.0323 140.061 42.1415 139.67 42.3023C139.291 42.4632 138.929 42.6758 138.584 42.94C138.251 43.2043 137.924 43.5375 137.602 43.9396C137.487 44.0775 137.349 44.2326 137.189 44.4049C137.028 44.5773 136.867 44.7554 136.706 44.9392C136.545 45.1116 136.396 45.2897 136.258 45.4735C136.132 45.6573 136.051 45.8354 136.017 46.0077C135.902 46.4673 135.81 46.9844 135.741 47.5589C135.683 48.1334 135.655 48.6619 135.655 49.1445C135.655 49.3053 135.672 49.4662 135.706 49.627C135.752 49.7879 135.798 49.9488 135.844 50.1096C135.902 50.259 135.948 50.4141 135.982 50.5749C136.028 50.7243 136.051 50.8851 136.051 51.0575C136.051 51.1379 136.028 51.2873 135.982 51.5056C135.936 51.7124 135.879 51.925 135.81 52.1433C135.741 52.3616 135.666 52.5569 135.586 52.7293C135.505 52.8901 135.425 52.9706 135.344 52.9706C135.367 53.051 135.448 53.1601 135.586 53.298C135.723 53.4244 135.879 53.5508 136.051 53.6772C136.235 53.8036 136.407 53.9127 136.568 54.0046C136.741 54.0965 136.867 54.1425 136.947 54.1425C137.051 54.1425 137.148 54.1368 137.24 54.1253C137.344 54.1023 137.441 54.0908 137.533 54.0908C137.751 54.0908 137.987 54.154 138.24 54.2804C138.504 54.3953 138.723 54.5274 138.895 54.6768C139.078 54.8147 139.188 54.9468 139.222 55.0732C139.257 55.1881 139.153 55.2455 138.912 55.2455C138.854 55.2455 138.791 55.2513 138.723 55.2627C138.665 55.2627 138.607 55.2627 138.55 55.2627C138.435 55.2627 138.355 55.234 138.309 55.1766C138.263 55.1076 138.223 55.0387 138.188 54.9698C138.154 54.8893 138.119 54.8204 138.085 54.763C138.05 54.694 137.987 54.6596 137.895 54.6596C137.838 54.6596 137.798 54.694 137.774 54.763C137.763 54.8319 137.757 54.8893 137.757 54.9353C137.757 55.0387 137.803 55.1479 137.895 55.2627C137.987 55.3662 138.085 55.4753 138.188 55.5902C138.303 55.7051 138.406 55.8258 138.499 55.9521C138.59 56.0671 138.636 56.1877 138.636 56.3141C138.636 56.3715 138.613 56.4117 138.567 56.4347C138.522 56.4577 138.475 56.4692 138.429 56.4692C138.315 56.4692 138.199 56.4519 138.085 56.4175C137.981 56.383 137.872 56.3658 137.757 56.3658C137.654 56.3658 137.556 56.406 137.464 56.4864C137.372 56.5783 137.252 56.676 137.102 56.7794C136.953 56.8828 136.758 56.9747 136.517 57.0552C136.275 57.1471 135.953 57.193 135.551 57.193C135.379 57.193 135.264 57.1298 135.207 57.0034C135.149 56.8771 135.097 56.7334 135.051 56.5726C135.006 56.4232 134.954 56.2854 134.896 56.159C134.839 56.0325 134.724 55.9694 134.552 55.9694C134.46 55.9694 134.385 56.0038 134.328 56.0728C134.27 56.1417 134.23 56.2106 134.207 56.2796H134.224C134.259 56.3141 134.293 56.3658 134.328 56.4347C134.374 56.5151 134.414 56.6013 134.448 56.6932C134.483 56.7851 134.512 56.8713 134.535 56.9517C134.569 57.0436 134.592 57.1126 134.603 57.1586L134.293 57.1413C134.132 57.1298 133.977 57.1413 133.828 57.1758C133.679 57.2103 133.529 57.2447 133.38 57.2792C133.242 57.3252 133.098 57.3654 132.949 57.3998C132.8 57.4343 132.65 57.4458 132.501 57.4343C132.352 57.4343 132.213 57.4113 132.087 57.3654C131.972 57.3309 131.852 57.2849 131.725 57.2275C131.53 57.1356 131.329 57.0839 131.122 57.0724C130.915 57.0609 130.725 57.0379 130.553 57.0034C130.381 56.969 130.237 56.8885 130.122 56.7622C130.019 56.6358 129.967 56.4175 129.967 56.1073C129.967 55.9234 130.002 55.7339 130.071 55.5385C130.14 55.3432 130.237 55.1708 130.364 55.0215C130.49 54.8606 130.639 54.7342 130.812 54.6423C130.984 54.5389 131.168 54.4872 131.363 54.4872C131.501 54.4872 131.633 54.5217 131.76 54.5906C131.886 54.648 132.018 54.6768 132.156 54.6768C132.271 54.6768 132.363 54.6423 132.432 54.5734C132.512 54.5045 132.581 54.4297 132.639 54.3493C132.707 54.2574 132.777 54.177 132.845 54.1081C132.926 54.0276 133.024 53.9759 133.138 53.9529C133.15 53.344 133.202 52.7465 133.293 52.1605C133.385 51.5631 133.432 50.9598 133.432 50.3509C133.432 49.7534 133.374 49.1674 133.259 48.593C133.156 48.007 133.104 47.4152 133.104 46.8178C133.104 46.4501 133.15 46.0939 133.242 45.7492C133.345 45.4046 133.397 45.0484 133.397 44.6807C133.397 44.4854 133.351 44.3016 133.259 44.1292C133.179 43.9454 133.138 43.7558 133.138 43.5604C133.138 43.4111 133.179 43.2962 133.259 43.2157C133.339 43.1353 133.391 43.0319 133.414 42.9055H133.362C133.213 42.9055 133.138 42.8251 133.138 42.6642C133.138 42.5034 133.19 42.4229 133.293 42.4229C133.328 42.4229 133.374 42.4402 133.432 42.4747C133.432 42.3827 133.403 42.2908 133.345 42.1989C133.299 42.107 133.242 42.0151 133.173 41.9232C133.115 41.8312 133.058 41.7393 133.001 41.6474C132.943 41.544 132.914 41.4406 132.914 41.3372C133.041 41.0959 133.121 40.8833 133.156 40.6995C133.202 40.5157 133.225 40.3318 133.225 40.148C133.225 39.9871 133.213 39.8262 133.19 39.6654C133.179 39.4931 133.173 39.292 133.173 39.0622C133.173 38.8094 133.225 38.5681 133.328 38.3384C133.432 38.1085 133.483 37.8673 133.483 37.6145C133.483 37.4651 133.449 37.3617 133.38 37.3043C133.311 37.2468 133.225 37.2181 133.121 37.2181C133.064 37.2181 132.989 37.2296 132.897 37.2525C132.897 37.1032 132.885 36.9021 132.863 36.6494C132.84 36.3851 132.794 36.1323 132.725 35.891C132.656 35.6497 132.553 35.4429 132.414 35.2706C132.288 35.0868 132.116 34.9948 131.898 34.9948C131.76 34.9948 131.622 35.0063 131.484 35.0293C131.357 35.0408 131.225 35.0465 131.087 35.0465C130.869 35.0465 130.657 34.9891 130.45 34.8742C130.254 34.7593 130.082 34.6099 129.933 34.4261C129.783 34.2422 129.663 34.0412 129.571 33.8229C129.479 33.6045 129.433 33.392 129.433 33.1852C129.433 32.9554 129.502 32.8118 129.64 32.7543C129.778 32.6969 129.933 32.6682 130.105 32.6682C130.197 32.6682 130.283 32.6739 130.364 32.6854C130.444 32.6854 130.524 32.6854 130.605 32.6854C130.731 32.6854 130.863 32.6739 131.001 32.6509C131.139 32.6164 131.254 32.5533 131.346 32.4613C131.702 32.4383 132.053 32.4096 132.397 32.3752C132.742 32.3407 133.092 32.3235 133.449 32.3235C133.644 32.3235 133.816 32.3694 133.966 32.4613C134.115 32.5533 134.259 32.6624 134.396 32.7888C134.546 32.9037 134.695 33.0128 134.845 33.1163C134.994 33.2197 135.161 33.2886 135.344 33.3231C135.344 33.5759 135.321 33.8229 135.275 34.0641C135.241 34.3054 135.224 34.5525 135.224 34.8053C135.224 35.0465 135.27 35.2763 135.362 35.4946C135.465 35.7015 135.517 35.9198 135.517 36.1495C135.517 36.2185 135.494 36.2587 135.448 36.2702C135.402 36.2702 135.35 36.276 135.293 36.2874C135.247 36.2989 135.201 36.3219 135.155 36.3564C135.12 36.3908 135.103 36.4713 135.103 36.5976C135.103 36.701 135.12 36.7987 135.155 36.8907C135.201 36.9826 135.247 37.0745 135.293 37.1664C135.339 37.2468 135.379 37.333 135.414 37.4249C135.459 37.5168 135.482 37.6145 135.482 37.7179C135.482 37.9018 135.448 38.0741 135.379 38.235C135.321 38.3958 135.293 38.5681 135.293 38.752C135.293 38.9013 135.31 39.1369 135.344 39.4586C135.379 39.7803 135.437 40.1078 135.517 40.441C135.597 40.7627 135.701 41.0499 135.827 41.3027C135.953 41.544 136.109 41.6646 136.293 41.6646C136.534 41.6646 136.764 41.6072 136.982 41.4923C137.2 41.3774 137.407 41.2395 137.602 41.0786C137.809 40.9063 138.004 40.7282 138.188 40.5444C138.372 40.3491 138.544 40.1767 138.705 40.0273C138.808 39.9354 139.01 39.8435 139.308 39.7516C139.607 39.6597 139.929 39.5792 140.274 39.5103C140.63 39.4299 140.969 39.3667 141.29 39.3207C141.624 39.2747 141.865 39.2518 142.014 39.2518C142.393 39.2518 142.664 39.2747 142.824 39.3207C142.996 39.3667 143.14 39.4356 143.255 39.5276C143.37 39.6079 143.485 39.7057 143.6 39.8205C143.715 39.9354 143.91 40.0618 144.186 40.1997C144.301 40.2572 144.41 40.2974 144.513 40.3204C144.628 40.3318 144.732 40.3491 144.823 40.372C144.927 40.3835 145.024 40.418 145.117 40.4755C145.22 40.5214 145.318 40.6018 145.409 40.7167C145.559 40.9121 145.743 41.1246 145.961 41.3544C146.191 41.5727 146.403 41.8082 146.599 42.061C146.794 42.3023 146.96 42.5551 147.099 42.8193C147.248 43.0836 147.323 43.3479 147.323 43.6121C147.323 43.7845 147.288 43.9568 147.219 44.1292C147.162 44.3016 147.133 44.4739 147.133 44.6462C147.133 44.7726 147.162 44.8875 147.219 44.9909C147.277 45.0828 147.306 45.192 147.306 45.3184C147.306 45.4562 147.3 45.6286 147.288 45.8354C147.277 46.0422 147.254 46.2605 147.219 46.4903C147.184 46.7086 147.139 46.9212 147.081 47.128C147.035 47.3233 146.972 47.4727 146.892 47.5761C147.064 47.8634 147.179 48.1678 147.236 48.4895C147.294 48.8113 147.323 49.133 147.323 49.4547C147.323 49.8568 147.3 50.259 147.254 50.6611C147.219 51.0518 147.202 51.4482 147.202 51.8503C147.202 52.3903 147.282 52.8097 147.443 53.1084C147.604 53.3957 147.799 53.6197 148.029 53.7806C148.27 53.93 148.529 54.0391 148.805 54.1081C149.092 54.177 149.35 54.2632 149.58 54.3666C149.821 54.4585 150.022 54.5964 150.184 54.7802C150.344 54.9525 150.425 55.2225 150.425 55.5902ZM170.986 43.8362C170.986 44.066 170.939 44.2613 170.848 44.4221C170.756 44.583 170.652 44.7382 170.537 44.8875C170.434 45.0254 170.325 45.169 170.21 45.3184C170.107 45.4678 170.038 45.6458 170.003 45.8526C169.9 45.8067 169.791 45.778 169.676 45.7665C169.572 45.755 169.463 45.7492 169.348 45.7492C169.073 45.7492 168.797 45.7722 168.521 45.8182C168.257 45.8526 167.993 45.8699 167.728 45.8699C167.418 45.8699 167.16 45.778 166.953 45.5941C166.757 45.3988 166.597 45.1633 166.47 44.8875C166.355 44.6118 166.275 44.3188 166.229 44.0085C166.183 43.6868 166.16 43.3996 166.16 43.1468C166.16 42.8251 166.212 42.4977 166.315 42.1644C166.223 42.13 166.143 42.1127 166.074 42.1127C165.924 42.1127 165.815 42.1587 165.746 42.2506C165.689 42.3425 165.603 42.3885 165.488 42.3885C165.384 42.3885 165.293 42.354 165.212 42.2851C165.132 42.2046 165.034 42.1644 164.919 42.1644C164.747 42.1644 164.528 42.2219 164.264 42.3368C164.012 42.4402 163.764 42.5781 163.523 42.7504C163.282 42.9228 163.069 43.1124 162.885 43.3191C162.713 43.5145 162.627 43.7041 162.627 43.8879C162.385 43.9109 162.156 43.9798 161.937 44.0947C161.731 44.1981 161.53 44.313 161.334 44.4394C161.185 44.5313 161.058 44.675 160.955 44.8703C160.852 45.0656 160.754 45.2781 160.662 45.508C160.582 45.7263 160.496 45.9503 160.403 46.1801C160.323 46.4099 160.226 46.5995 160.111 46.7488C159.915 47.0016 159.743 47.2601 159.594 47.5244C159.456 47.7772 159.387 48.0644 159.387 48.3861C159.387 48.7883 159.45 49.1962 159.576 49.6098C159.703 50.0234 159.766 50.4428 159.766 50.8679C159.766 51.1437 159.743 51.4194 159.697 51.6952C159.663 51.9709 159.645 52.241 159.645 52.5052C159.645 52.8269 159.703 53.0854 159.818 53.2808C159.932 53.4761 160.088 53.6312 160.283 53.7461C160.478 53.8495 160.703 53.9184 160.955 53.9529C161.208 53.9874 161.466 54.0046 161.731 54.0046C162.018 54.0046 162.294 53.9989 162.558 53.9874C162.834 53.9644 163.086 53.9529 163.316 53.9529C163.397 54.0449 163.442 54.131 163.454 54.2114C163.465 54.2919 163.46 54.378 163.437 54.4699C163.425 54.5504 163.402 54.6366 163.368 54.7285C163.345 54.8089 163.334 54.9066 163.334 55.0215C163.334 55.0674 163.345 55.1249 163.368 55.1938C163.54 55.1938 163.689 55.1536 163.816 55.0732C163.942 54.9928 164.034 54.8663 164.092 54.694C164.172 54.717 164.241 54.7515 164.299 54.7974C164.367 54.8434 164.402 54.9123 164.402 55.0042C164.402 55.0732 164.385 55.1421 164.35 55.2111C164.316 55.2685 164.276 55.3259 164.23 55.3834C164.184 55.4408 164.143 55.504 164.109 55.573C164.075 55.6304 164.057 55.6994 164.057 55.7798C164.057 55.8258 164.063 55.8774 164.075 55.9349C164.086 55.9809 164.103 56.0211 164.126 56.0555C164.069 56.1475 163.989 56.2106 163.885 56.2451C163.782 56.2796 163.678 56.2968 163.575 56.2968C163.391 56.2968 163.236 56.2681 163.11 56.2106C162.994 56.1532 162.885 56.09 162.782 56.0211C162.69 55.9521 162.604 55.889 162.523 55.8315C162.443 55.774 162.345 55.7453 162.231 55.7453C162.184 55.7453 162.115 55.7568 162.024 55.7798C161.932 55.8028 161.84 55.8315 161.748 55.866C161.656 55.9004 161.576 55.9464 161.506 56.0038C161.438 56.0498 161.403 56.0958 161.403 56.1417C161.403 56.2336 161.432 56.3141 161.489 56.383C161.558 56.4519 161.593 56.5324 161.593 56.6243C161.593 56.7047 161.564 56.7679 161.506 56.8139C161.449 56.8598 161.38 56.8885 161.3 56.9001C161.219 56.923 161.133 56.9345 161.041 56.9345C160.961 56.946 160.892 56.9517 160.834 56.9517C160.386 56.9517 159.938 56.9001 159.49 56.7966C159.053 56.7047 158.611 56.6588 158.163 56.6588C157.956 56.6588 157.749 56.7047 157.542 56.7966C157.336 56.8885 157.117 56.9345 156.888 56.9345C156.762 56.9345 156.664 56.9058 156.595 56.8483C156.538 56.8024 156.486 56.7449 156.439 56.676C156.394 56.607 156.342 56.5439 156.285 56.4864C156.227 56.4405 156.141 56.4175 156.026 56.4175C155.808 56.4175 155.589 56.4405 155.371 56.4864C155.164 56.5324 154.952 56.5783 154.733 56.6243C154.527 56.6818 154.314 56.7277 154.096 56.7622C153.889 56.8081 153.677 56.8311 153.458 56.8311C153.343 56.8311 153.205 56.8139 153.045 56.7794C152.883 56.7564 152.728 56.7105 152.579 56.6415C152.43 56.5726 152.303 56.4864 152.2 56.383C152.097 56.2796 152.045 56.1532 152.045 56.0038C152.045 55.9119 152.097 55.7913 152.2 55.6419C152.315 55.4926 152.441 55.3489 152.579 55.2111C152.717 55.0617 152.855 54.9353 152.993 54.8319C153.13 54.7285 153.234 54.6768 153.303 54.6768C153.487 54.6768 153.665 54.6825 153.837 54.694C154.021 54.7055 154.21 54.7112 154.406 54.7112C154.716 54.7112 155.027 54.6653 155.336 54.5734C155.659 54.4699 155.945 54.3264 156.198 54.1425C156.463 53.9587 156.675 53.7289 156.836 53.4531C156.997 53.1774 157.077 52.8671 157.077 52.5225C157.077 52.3731 157.066 52.2294 157.043 52.0916C157.02 51.9422 157.008 51.7928 157.008 51.6435C157.008 51.3447 157.043 51.046 157.112 50.7473C157.181 50.4485 157.215 50.1498 157.215 49.8511C157.215 49.449 157.169 49.041 157.077 48.6274C156.997 48.2023 156.957 47.7772 156.957 47.3521C156.957 46.9729 156.963 46.5995 156.974 46.2318C156.997 45.8526 157.008 45.4735 157.008 45.0943C157.008 44.922 157.003 44.6692 156.991 44.336C156.98 44.0028 156.94 43.6696 156.87 43.3364C156.813 43.0032 156.715 42.7102 156.578 42.4574C156.451 42.2046 156.273 42.0783 156.043 42.0783C155.79 42.0783 155.537 42.107 155.285 42.1644C155.032 42.2219 154.774 42.2506 154.509 42.2506C154.314 42.2506 154.084 42.2391 153.82 42.2161C153.556 42.1817 153.303 42.1242 153.062 42.0438C152.821 41.9519 152.614 41.8255 152.441 41.6646C152.269 41.5038 152.183 41.2912 152.183 41.027C152.183 40.7397 152.223 40.5099 152.303 40.3376C152.384 40.1537 152.487 40.0159 152.614 39.924C152.751 39.832 152.906 39.7688 153.079 39.7344C153.263 39.6999 153.458 39.6827 153.665 39.6827C153.849 39.6827 154.038 39.6884 154.233 39.6999C154.429 39.7114 154.618 39.7171 154.802 39.7171C155.17 39.7171 155.532 39.6999 155.888 39.6654C156.256 39.6195 156.623 39.5965 156.991 39.5965C157.244 39.5965 157.497 39.6079 157.749 39.6309C158.002 39.6539 158.249 39.7057 158.491 39.786C158.709 39.855 158.87 39.9871 158.973 40.1824C159.076 40.3663 159.169 40.5559 159.249 40.7512C159.341 40.9465 159.444 41.1246 159.559 41.2855C159.674 41.4348 159.858 41.5095 160.111 41.5095C160.226 41.5095 160.329 41.4808 160.421 41.4234C160.524 41.3544 160.622 41.2797 160.714 41.1993C160.806 41.1189 160.898 41.0442 160.99 40.9752C161.081 40.9063 161.191 40.8603 161.317 40.8374C161.57 40.8029 161.8 40.7225 162.007 40.5961C162.225 40.4697 162.437 40.3433 162.644 40.2169C162.851 40.0905 163.058 39.9756 163.264 39.8722C163.483 39.7688 163.718 39.7171 163.971 39.7171C164.12 39.7171 164.304 39.6999 164.523 39.6654C164.752 39.6309 164.976 39.585 165.195 39.5276C165.424 39.4586 165.637 39.3782 165.832 39.2863C166.039 39.1943 166.2 39.0909 166.315 38.976C166.625 38.999 166.987 39.0737 167.401 39.2001C167.826 39.3265 168.228 39.4988 168.607 39.7171C168.998 39.924 169.337 40.171 169.624 40.4582C169.911 40.7454 170.078 41.0672 170.124 41.4234C170.159 41.6417 170.222 41.8484 170.313 42.0438C170.406 42.2391 170.497 42.4345 170.589 42.6298C170.693 42.8136 170.785 43.0089 170.865 43.2157C170.945 43.4111 170.986 43.6179 170.986 43.8362ZM190.633 48.8687C190.633 49.0296 190.605 49.1847 190.547 49.3341C190.501 49.4719 190.444 49.5926 190.375 49.696C190.317 49.7994 190.26 49.8856 190.202 49.9545C190.156 50.0234 190.133 50.0637 190.133 50.0751C190.133 50.19 190.168 50.3107 190.237 50.4371C190.317 50.5634 190.357 50.7013 190.357 50.8507C190.357 50.9197 190.329 50.9656 190.271 50.9886C190.225 51.0116 190.174 51.023 190.116 51.023C190.013 51.023 189.927 51.0116 189.857 50.9886C189.869 51.2069 189.886 51.4194 189.909 51.6263C189.944 51.833 189.961 52.0456 189.961 52.2639C189.961 52.5971 189.927 52.8154 189.857 52.9189C189.8 53.0108 189.737 53.0682 189.668 53.0912C189.599 53.1142 189.53 53.1429 189.461 53.1774C189.403 53.2003 189.375 53.3037 189.375 53.4876C189.375 53.591 189.301 53.7231 189.151 53.884C189.013 54.0449 188.841 54.2057 188.634 54.3666C188.439 54.5274 188.232 54.6653 188.014 54.7802C187.807 54.8951 187.64 54.9525 187.514 54.9525C187.479 54.9525 187.439 54.9411 187.393 54.9181C187.393 55.01 187.399 55.1076 187.41 55.2111C187.422 55.3145 187.427 55.4121 187.427 55.504C187.427 55.6534 187.382 55.7568 187.29 55.8142C187.197 55.8602 187.095 55.9062 186.979 55.9521C186.807 56.0325 186.629 56.1532 186.445 56.3141C186.261 56.4635 186.072 56.6186 185.876 56.7794C185.681 56.9403 185.48 57.0782 185.273 57.193C185.078 57.3194 184.871 57.3826 184.653 57.3826C184.469 57.3826 184.297 57.3367 184.135 57.2447C183.986 57.1528 183.808 57.1068 183.602 57.1068C183.418 57.1068 183.262 57.1298 183.136 57.1758C183.01 57.2333 182.889 57.2907 182.774 57.3481C182.671 57.4171 182.561 57.4745 182.447 57.5205C182.332 57.5779 182.2 57.6067 182.05 57.6067C181.751 57.6067 181.453 57.5262 181.154 57.3654C180.855 57.216 180.568 57.0954 180.293 57.0034C180.131 56.946 179.959 56.9001 179.775 56.8656C179.592 56.8426 179.414 56.8139 179.241 56.7794C179.068 56.7449 178.902 56.6875 178.741 56.607C178.592 56.5381 178.46 56.4347 178.345 56.2968C178.104 55.9981 177.822 55.7511 177.5 55.5557C177.179 55.3604 176.851 55.1766 176.518 55.0042C176.185 54.8319 175.863 54.6538 175.553 54.4699C175.243 54.2746 174.973 54.0219 174.743 53.7117C174.571 53.4704 174.375 53.2118 174.157 52.9361C173.939 52.6488 173.732 52.3501 173.536 52.0399C173.352 51.7297 173.197 51.4137 173.071 51.092C172.945 50.7703 172.881 50.4543 172.881 50.1441C172.881 49.9143 172.904 49.6902 172.95 49.4719C172.996 49.2536 173.043 49.0353 173.088 48.817C173.146 48.5872 173.197 48.3632 173.244 48.1449C173.289 47.9266 173.312 47.7025 173.312 47.4727V47.2831C173.312 47.2371 173.295 47.1855 173.261 47.128C173.226 47.0706 173.186 47.0188 173.14 46.9729C173.105 46.9155 173.065 46.8695 173.02 46.835C172.985 46.7891 172.962 46.7661 172.95 46.7661C172.927 46.7661 172.916 46.7718 172.916 46.7833C172.927 46.6799 172.956 46.5248 173.002 46.318C173.06 46.0997 173.123 45.8814 173.192 45.6631C173.261 45.4333 173.329 45.2265 173.398 45.0426C173.468 44.8473 173.531 44.7209 173.588 44.6634C173.657 44.606 173.72 44.5486 173.778 44.4911C173.847 44.4221 173.881 44.336 173.881 44.2326C173.881 44.1292 173.875 44.0315 173.864 43.9396C173.852 43.8362 173.847 43.7328 173.847 43.6294C173.847 43.4915 173.864 43.4111 173.898 43.3881C173.933 43.3536 173.979 43.3364 174.036 43.3364C174.094 43.3364 174.151 43.3307 174.208 43.3191C174.266 43.2962 174.324 43.233 174.381 43.1296C174.484 42.9228 174.582 42.7332 174.674 42.5608C174.777 42.377 174.886 42.2104 175.002 42.061C175.116 41.9117 175.249 41.7738 175.398 41.6474C175.547 41.521 175.731 41.4004 175.949 41.2855C176.133 41.1821 176.311 41.0557 176.483 40.9063C176.667 40.7569 176.851 40.6076 177.035 40.4582C177.219 40.3088 177.403 40.1824 177.586 40.0791C177.782 39.9756 177.988 39.924 178.207 39.924C178.517 39.924 178.816 39.8722 179.103 39.7688C179.402 39.6539 179.701 39.5677 179.999 39.5103C180.471 39.4414 180.936 39.3782 181.396 39.3207C181.867 39.2518 182.343 39.2173 182.826 39.2173C183.09 39.2173 183.412 39.2633 183.791 39.3552C184.17 39.4356 184.555 39.5448 184.946 39.6827C185.348 39.8205 185.721 39.9756 186.066 40.148C186.422 40.3204 186.704 40.4927 186.911 40.665V40.7167C186.911 40.8776 186.882 41.0442 186.824 41.2165C186.767 41.3774 186.738 41.5382 186.738 41.6991C186.738 41.7221 186.738 41.7451 186.738 41.768C186.738 41.791 186.749 41.8025 186.772 41.8025C186.968 41.8025 187.152 41.7795 187.324 41.7336C187.508 41.6761 187.697 41.6474 187.893 41.6474C187.916 41.8427 188.002 41.9749 188.151 42.0438C188.3 42.1127 188.45 42.1759 188.6 42.2334C188.737 42.3023 188.864 42.4287 188.978 42.6125C189.105 42.7849 189.22 42.986 189.323 43.2157C189.427 43.434 189.525 43.6523 189.616 43.8706C189.72 44.089 189.817 44.267 189.909 44.4049C190.001 44.5428 190.081 44.7094 190.151 44.9047C190.231 45.0886 190.294 45.2839 190.34 45.4907C190.398 45.6975 190.438 45.9044 190.461 46.1112C190.484 46.3065 190.495 46.4903 190.495 46.6627C190.495 46.8925 190.449 47.0878 190.357 47.2487C190.277 47.398 190.185 47.5359 190.081 47.6623C189.978 47.7772 189.88 47.8921 189.789 48.007C189.708 48.1104 189.668 48.231 189.668 48.3689C189.668 48.4493 189.685 48.524 189.72 48.593C189.754 48.6619 189.8 48.7251 189.857 48.7825C189.88 48.771 189.927 48.7596 189.996 48.7481C190.076 48.7366 190.116 48.7021 190.116 48.6446V48.6274C190.116 48.5355 190.076 48.4493 189.996 48.3689C189.927 48.2885 189.892 48.1908 189.892 48.0759C189.892 48.0529 189.904 48.0185 189.927 47.9725C189.95 47.915 189.978 47.8864 190.013 47.8864C190.081 47.8864 190.151 47.9323 190.22 48.0242C190.288 48.1047 190.352 48.1966 190.409 48.3C190.478 48.3919 190.53 48.4723 190.564 48.5413C190.599 48.6102 190.616 48.6332 190.616 48.6102L190.599 48.593C190.61 48.6504 190.616 48.7021 190.616 48.7481C190.628 48.7825 190.633 48.8227 190.633 48.8687ZM188.91 49.0066C188.91 48.8227 188.841 48.7136 188.703 48.6791C188.565 48.6332 188.41 48.6044 188.238 48.593C188.065 48.5815 187.893 48.5642 187.721 48.5413C187.56 48.5183 187.45 48.4321 187.393 48.2827V48.1104C187.393 47.8576 187.359 47.5646 187.29 47.2314C187.232 46.8867 187.157 46.542 187.066 46.1973C186.973 45.8412 186.876 45.4965 186.772 45.1633C186.669 44.8185 186.571 44.5141 186.48 44.2498C186.388 43.9856 186.313 43.773 186.256 43.6121C186.198 43.4513 186.169 43.3709 186.169 43.3709C186.077 43.3938 186.003 43.4053 185.945 43.4053C185.75 43.4053 185.578 43.3651 185.428 43.2847C185.29 43.2043 185.13 43.1181 184.946 43.0262C184.773 42.9343 184.555 42.8481 184.291 42.7676C184.038 42.6872 183.699 42.647 183.274 42.647C182.803 42.647 182.337 42.6183 181.878 42.5608C181.418 42.4919 180.953 42.4574 180.482 42.4574C179.839 42.4574 179.235 42.6068 178.672 42.9055C178.109 43.1928 177.615 43.5777 177.19 44.0603C176.765 44.5313 176.432 45.0656 176.19 45.6631C175.949 46.2605 175.829 46.8637 175.829 47.4727C175.829 47.7255 175.834 48.0242 175.846 48.3689C175.857 48.7021 175.886 49.041 175.932 49.3857C175.978 49.7189 176.053 50.0349 176.156 50.3336C176.259 50.6209 176.403 50.8392 176.587 50.9886V51.4712C176.633 51.5171 176.69 51.5458 176.759 51.5573C176.84 51.5573 176.914 51.5573 176.984 51.5573C177.064 51.5573 177.133 51.5688 177.19 51.5918C177.248 51.6033 177.293 51.6492 177.328 51.7297C177.477 52.1548 177.673 52.4823 177.914 52.712C178.155 52.9303 178.414 53.1199 178.69 53.2808C178.966 53.4301 179.241 53.5853 179.517 53.7461C179.793 53.8955 180.045 54.1195 180.275 54.4183C180.367 54.4068 180.465 54.401 180.568 54.401C180.672 54.3895 180.769 54.3838 180.861 54.3838C181.229 54.3838 181.585 54.4125 181.929 54.4699C182.286 54.5159 182.642 54.5389 182.998 54.5389C183.378 54.5389 183.716 54.4413 184.015 54.2459C184.325 54.0506 184.589 53.8036 184.808 53.5048C184.946 53.3095 185.072 53.1429 185.187 53.005C185.302 52.8671 185.417 52.7408 185.532 52.6258C185.658 52.4995 185.79 52.3846 185.928 52.2812C186.077 52.1663 186.25 52.0399 186.445 51.902C186.514 51.856 186.594 51.7986 186.687 51.7297C186.79 51.6607 186.888 51.586 186.979 51.5056C187.083 51.4137 187.169 51.3275 187.238 51.2471C187.307 51.1552 187.341 51.069 187.341 50.9886C187.341 50.8851 187.324 50.7817 187.29 50.6784C187.267 50.5749 187.255 50.4715 187.255 50.3681C187.255 50.2532 187.272 50.1153 187.307 49.9545C187.341 49.7936 187.393 49.6385 187.462 49.4892C187.543 49.3398 187.634 49.2191 187.738 49.1272C187.852 49.0238 187.991 48.9721 188.151 48.9721C188.278 48.9721 188.404 49.0008 188.53 49.0583C188.657 49.1158 188.772 49.1847 188.875 49.2651C188.898 49.1502 188.91 49.064 188.91 49.0066ZM211.711 37.2525L211.625 37.2698C211.499 37.2698 211.389 37.2353 211.298 37.1664C211.205 37.086 211.102 37.0342 210.987 37.0113L210.97 37.0802C210.97 37.1721 210.999 37.2583 211.056 37.3387C211.114 37.4192 211.177 37.4938 211.246 37.5628C211.315 37.6317 211.378 37.7064 211.435 37.7868C211.493 37.8558 211.522 37.9247 211.522 37.9937C211.522 38.0971 211.453 38.1545 211.315 38.166C211.188 38.1775 211.091 38.1947 211.022 38.2177C210.884 38.2522 210.775 38.3384 210.694 38.4762C210.614 38.6026 210.516 38.7462 210.401 38.9071C210.298 39.0564 210.154 39.1943 209.971 39.3207C209.798 39.4356 209.551 39.4931 209.229 39.4931C208.827 39.4931 208.425 39.4012 208.023 39.2173C207.563 38.999 207.23 38.7348 207.023 38.4245C206.816 38.1028 206.679 37.7696 206.61 37.4249C206.541 37.0802 206.501 36.7413 206.489 36.4081C206.478 36.0634 206.437 35.7532 206.368 35.4774C206.299 35.2017 206.167 34.9833 205.972 34.8225C205.777 34.6502 205.455 34.564 205.007 34.564C204.593 34.564 204.156 34.6156 203.697 34.7191C203.237 34.811 202.812 34.9718 202.422 35.2017C202.043 35.42 201.726 35.7072 201.474 36.0634C201.221 36.4081 201.094 36.8275 201.094 37.3215C201.094 37.8615 201.118 38.2809 201.164 38.5796C201.21 38.8669 201.307 39.0794 201.456 39.2173C201.606 39.3437 201.824 39.4184 202.111 39.4414C202.398 39.4528 202.783 39.4586 203.266 39.4586C203.358 39.4586 203.484 39.5276 203.645 39.6654C203.818 39.7918 203.984 39.9469 204.145 40.1307C204.317 40.3031 204.461 40.4812 204.576 40.665C204.703 40.8489 204.765 40.9982 204.765 41.1131C204.765 41.3774 204.651 41.5842 204.421 41.7336C204.203 41.8714 203.938 41.9749 203.628 42.0438C203.318 42.1127 203.002 42.1529 202.68 42.1644C202.358 42.1759 202.106 42.1817 201.922 42.1817C201.726 42.1817 201.566 42.2219 201.439 42.3023C201.324 42.3827 201.238 42.4861 201.181 42.6125C201.123 42.7389 201.083 42.8825 201.06 43.0434C201.048 43.2043 201.043 43.3651 201.043 43.526C201.043 44.2958 201.083 45.0656 201.164 45.8354C201.255 46.5937 201.301 47.3635 201.301 48.1449C201.301 48.593 201.238 48.9606 201.112 49.2479C200.997 49.5351 200.94 49.7706 200.94 49.9545C200.94 50.0809 200.963 50.2072 201.008 50.3336C201.066 50.4601 201.094 50.5864 201.094 50.7128C201.094 50.9656 201.054 51.2126 200.974 51.4539C200.905 51.6837 200.87 51.925 200.87 52.1778C200.87 52.3846 200.905 52.5627 200.974 52.712C201.043 52.8499 201.123 52.9878 201.215 53.1257C201.307 53.2521 201.394 53.3784 201.474 53.5048C201.554 53.6312 201.612 53.7806 201.646 53.9529C201.956 53.907 202.261 53.8438 202.559 53.7633C202.87 53.6829 203.186 53.6427 203.507 53.6427C203.714 53.6427 203.996 53.6542 204.352 53.6772C204.72 53.7001 205.076 53.7576 205.42 53.8495C205.777 53.93 206.081 54.0563 206.334 54.2287C206.598 54.3895 206.73 54.6136 206.73 54.9008C206.73 55.1421 206.696 55.3719 206.627 55.5902C206.569 55.8085 206.478 56.0096 206.351 56.1934C206.225 56.3773 206.07 56.5267 205.886 56.6415C205.702 56.7679 205.489 56.8483 205.248 56.8828C204.938 56.9288 204.633 57.015 204.335 57.1413C204.036 57.2677 203.731 57.3309 203.421 57.3309C203.226 57.3309 203.036 57.2965 202.852 57.2275C202.68 57.1586 202.497 57.0839 202.301 57.0034C202.117 56.9345 201.927 56.8656 201.732 56.7966C201.537 56.7277 201.33 56.6932 201.112 56.6932C200.595 56.6932 200.084 56.6932 199.578 56.6932C199.084 56.7047 198.578 56.7334 198.061 56.7794C197.774 56.8024 197.492 56.8483 197.217 56.9173C196.941 56.9977 196.659 57.0724 196.372 57.1413C196.097 57.2217 195.815 57.2907 195.528 57.3481C195.241 57.4056 194.953 57.4343 194.666 57.4343C194.54 57.4343 194.39 57.4113 194.218 57.3654C194.045 57.3194 193.868 57.2562 193.684 57.1758C193.511 57.0954 193.345 57.0092 193.184 56.9173C193.035 56.8369 192.908 56.7507 192.805 56.6588L192.788 55.866C192.788 55.4868 192.868 55.1995 193.029 55.0042C193.19 54.7974 193.396 54.648 193.649 54.5561C193.914 54.4527 194.212 54.3895 194.545 54.3666C194.878 54.3436 195.218 54.3264 195.562 54.3148C195.919 54.3034 196.263 54.2861 196.596 54.2632C196.929 54.2287 197.223 54.154 197.475 54.0391C197.739 53.9242 197.952 53.7519 198.113 53.5221C198.274 53.2808 198.354 52.9533 198.354 52.5397C198.354 52.3673 198.337 52.195 198.303 52.0227C198.28 51.8503 198.245 51.6779 198.199 51.5056H198.233C198.303 51.4022 198.354 51.2528 198.389 51.0575C198.434 50.8507 198.463 50.6324 198.475 50.4026C198.486 50.1728 198.492 49.9545 198.492 49.7477C198.492 49.5294 198.492 49.357 198.492 49.2306C198.492 48.9089 198.486 48.5642 198.475 48.1966C198.463 47.8174 198.412 47.4784 198.32 47.1797C198.297 47.0993 198.268 47.0246 198.233 46.9557C198.21 46.8753 198.199 46.7891 198.199 46.6972C198.199 46.4329 198.245 46.1744 198.337 45.9216C198.429 45.6573 198.475 45.393 198.475 45.1288C198.475 45.0254 198.463 44.9507 198.44 44.9047C198.429 44.8473 198.406 44.8013 198.371 44.7669C198.349 44.7209 198.326 44.6807 198.303 44.6462C198.28 44.6002 198.262 44.5428 198.251 44.4739C198.331 44.3475 198.394 44.2154 198.44 44.0775C198.498 43.9281 198.527 43.7788 198.527 43.6294C198.527 43.4915 198.498 43.3766 198.44 43.2847C198.383 43.1813 198.32 43.0894 198.251 43.0089C198.182 42.917 198.113 42.8251 198.044 42.7332C197.986 42.6412 197.958 42.5379 197.958 42.4229C197.797 42.4229 197.59 42.4229 197.337 42.4229C197.084 42.4115 196.809 42.3942 196.51 42.3713C196.211 42.3483 195.913 42.3081 195.614 42.2506C195.315 42.1932 195.045 42.1185 194.804 42.0265C194.563 41.9232 194.362 41.7968 194.201 41.6474C194.051 41.4866 193.977 41.2912 193.977 41.0614C193.977 40.9006 194.04 40.7512 194.166 40.6133C194.304 40.4639 194.465 40.3376 194.649 40.2342C194.844 40.1307 195.045 40.0503 195.252 39.9929C195.471 39.9354 195.654 39.9067 195.803 39.9067C195.964 39.9067 196.125 39.9124 196.286 39.924C196.458 39.9354 196.625 39.9412 196.786 39.9412C196.958 39.9412 197.165 39.9297 197.406 39.9067C197.659 39.8837 197.855 39.8205 197.992 39.7171C198.027 39.6827 198.067 39.5965 198.113 39.4586C198.159 39.3093 198.199 39.1484 198.233 38.976C198.268 38.7922 198.297 38.6198 198.32 38.459C198.343 38.2866 198.354 38.1717 198.354 38.1143C198.354 37.85 198.331 37.5973 198.285 37.356C198.251 37.1147 198.233 36.8619 198.233 36.5976C198.233 36.2185 198.28 35.868 198.371 35.5463C198.463 35.2246 198.647 34.9259 198.923 34.6502C199.245 34.3284 199.549 34.0182 199.837 33.7195C200.135 33.4092 200.44 33.1335 200.75 32.8922C201.071 32.6509 201.416 32.4441 201.784 32.2718C202.163 32.0994 202.599 31.9788 203.094 31.9098C203.438 31.8639 203.783 31.8122 204.128 31.7547C204.484 31.6973 204.84 31.6685 205.196 31.6685C205.392 31.6685 205.65 31.6973 205.972 31.7547C206.305 31.8007 206.656 31.8754 207.023 31.9788C207.402 32.0707 207.782 32.1856 208.161 32.3235C208.54 32.4613 208.885 32.6222 209.195 32.806C209.505 32.9784 209.758 33.1737 209.953 33.392C210.149 33.5988 210.246 33.8229 210.246 34.0641C210.602 34.0757 210.861 34.1963 211.022 34.4261C211.194 34.6559 211.315 34.9317 211.383 35.2533C211.453 35.5751 211.499 35.914 211.522 36.2702C211.545 36.6149 211.596 36.9136 211.677 37.1664L211.711 37.2525ZM228.429 37.2525L228.342 37.2698C228.216 37.2698 228.107 37.2353 228.015 37.1664C227.923 37.086 227.82 37.0342 227.705 37.0113L227.687 37.0802C227.687 37.1721 227.716 37.2583 227.774 37.3387C227.831 37.4192 227.894 37.4938 227.963 37.5628C228.032 37.6317 228.095 37.7064 228.153 37.7868C228.211 37.8558 228.239 37.9247 228.239 37.9937C228.239 38.0971 228.17 38.1545 228.032 38.166C227.906 38.1775 227.808 38.1947 227.739 38.2177C227.601 38.2522 227.492 38.3384 227.412 38.4762C227.332 38.6026 227.234 38.7462 227.119 38.9071C227.015 39.0564 226.872 39.1943 226.688 39.3207C226.516 39.4356 226.269 39.4931 225.947 39.4931C225.545 39.4931 225.143 39.4012 224.741 39.2173C224.281 38.999 223.948 38.7348 223.741 38.4245C223.534 38.1028 223.396 37.7696 223.327 37.4249C223.258 37.0802 223.218 36.7413 223.207 36.4081C223.195 36.0634 223.155 35.7532 223.086 35.4774C223.017 35.2017 222.885 34.9833 222.69 34.8225C222.494 34.6502 222.172 34.564 221.724 34.564C221.311 34.564 220.874 34.6156 220.414 34.7191C219.955 34.811 219.53 34.9718 219.139 35.2017C218.76 35.42 218.444 35.7072 218.191 36.0634C217.939 36.4081 217.812 36.8275 217.812 37.3215C217.812 37.8615 217.835 38.2809 217.881 38.5796C217.927 38.8669 218.025 39.0794 218.174 39.2173C218.324 39.3437 218.542 39.4184 218.829 39.4414C219.116 39.4528 219.501 39.4586 219.984 39.4586C220.076 39.4586 220.202 39.5276 220.363 39.6654C220.535 39.7918 220.702 39.9469 220.862 40.1307C221.035 40.3031 221.179 40.4812 221.293 40.665C221.42 40.8489 221.483 40.9982 221.483 41.1131C221.483 41.3774 221.368 41.5842 221.138 41.7336C220.92 41.8714 220.656 41.9749 220.346 42.0438C220.035 42.1127 219.719 42.1529 219.398 42.1644C219.076 42.1759 218.823 42.1817 218.639 42.1817C218.444 42.1817 218.283 42.2219 218.157 42.3023C218.042 42.3827 217.956 42.4861 217.899 42.6125C217.841 42.7389 217.801 42.8825 217.777 43.0434C217.766 43.2043 217.76 43.3651 217.76 43.526C217.76 44.2958 217.801 45.0656 217.881 45.8354C217.973 46.5937 218.019 47.3635 218.019 48.1449C218.019 48.593 217.956 48.9606 217.829 49.2479C217.714 49.5351 217.657 49.7706 217.657 49.9545C217.657 50.0809 217.68 50.2072 217.726 50.3336C217.783 50.4601 217.812 50.5864 217.812 50.7128C217.812 50.9656 217.772 51.2126 217.692 51.4539C217.623 51.6837 217.588 51.925 217.588 52.1778C217.588 52.3846 217.623 52.5627 217.692 52.712C217.76 52.8499 217.841 52.9878 217.933 53.1257C218.025 53.2521 218.111 53.3784 218.191 53.5048C218.272 53.6312 218.329 53.7806 218.364 53.9529C218.674 53.907 218.979 53.8438 219.277 53.7633C219.587 53.6829 219.903 53.6427 220.225 53.6427C220.432 53.6427 220.713 53.6542 221.069 53.6772C221.437 53.7001 221.793 53.7576 222.138 53.8495C222.494 53.93 222.799 54.0563 223.051 54.2287C223.316 54.3895 223.448 54.6136 223.448 54.9008C223.448 55.1421 223.414 55.3719 223.345 55.5902C223.287 55.8085 223.195 56.0096 223.069 56.1934C222.943 56.3773 222.787 56.5267 222.603 56.6415C222.419 56.7679 222.207 56.8483 221.966 56.8828C221.656 56.9288 221.351 57.015 221.052 57.1413C220.754 57.2677 220.449 57.3309 220.139 57.3309C219.943 57.3309 219.754 57.2965 219.57 57.2275C219.398 57.1586 219.214 57.0839 219.019 57.0034C218.835 56.9345 218.645 56.8656 218.45 56.7966C218.254 56.7277 218.048 56.6932 217.829 56.6932C217.312 56.6932 216.801 56.6932 216.296 56.6932C215.801 56.7047 215.296 56.7334 214.779 56.7794C214.491 56.8024 214.21 56.8483 213.935 56.9173C213.659 56.9977 213.377 57.0724 213.09 57.1413C212.814 57.2217 212.533 57.2907 212.245 57.3481C211.958 57.4056 211.671 57.4343 211.383 57.4343C211.257 57.4343 211.108 57.4113 210.935 57.3654C210.763 57.3194 210.585 57.2562 210.401 57.1758C210.229 57.0954 210.062 57.0092 209.901 56.9173C209.752 56.8369 209.625 56.7507 209.522 56.6588L209.505 55.866C209.505 55.4868 209.585 55.1995 209.747 55.0042C209.907 54.7974 210.114 54.648 210.367 54.5561C210.631 54.4527 210.93 54.3895 211.263 54.3666C211.596 54.3436 211.935 54.3264 212.28 54.3148C212.636 54.3034 212.981 54.2861 213.314 54.2632C213.647 54.2287 213.94 54.154 214.193 54.0391C214.457 53.9242 214.67 53.7519 214.831 53.5221C214.991 53.2808 215.072 52.9533 215.072 52.5397C215.072 52.3673 215.055 52.195 215.02 52.0227C214.997 51.8503 214.963 51.6779 214.916 51.5056H214.951C215.02 51.4022 215.072 51.2528 215.106 51.0575C215.152 50.8507 215.181 50.6324 215.192 50.4026C215.204 50.1728 215.21 49.9545 215.21 49.7477C215.21 49.5294 215.21 49.357 215.21 49.2306C215.21 48.9089 215.204 48.5642 215.192 48.1966C215.181 47.8174 215.129 47.4784 215.038 47.1797C215.015 47.0993 214.986 47.0246 214.951 46.9557C214.928 46.8753 214.916 46.7891 214.916 46.6972C214.916 46.4329 214.963 46.1744 215.055 45.9216C215.146 45.6573 215.192 45.393 215.192 45.1288C215.192 45.0254 215.181 44.9507 215.158 44.9047C215.146 44.8473 215.123 44.8013 215.089 44.7669C215.066 44.7209 215.043 44.6807 215.02 44.6462C214.997 44.6002 214.98 44.5428 214.968 44.4739C215.049 44.3475 215.112 44.2154 215.158 44.0775C215.216 43.9281 215.244 43.7788 215.244 43.6294C215.244 43.4915 215.216 43.3766 215.158 43.2847C215.1 43.1813 215.038 43.0894 214.968 43.0089C214.899 42.917 214.831 42.8251 214.762 42.7332C214.704 42.6412 214.675 42.5379 214.675 42.4229C214.515 42.4229 214.308 42.4229 214.055 42.4229C213.802 42.4115 213.527 42.3942 213.228 42.3713C212.929 42.3483 212.63 42.3081 212.332 42.2506C212.033 42.1932 211.763 42.1185 211.522 42.0265C211.28 41.9232 211.079 41.7968 210.918 41.6474C210.769 41.4866 210.694 41.2912 210.694 41.0614C210.694 40.9006 210.757 40.7512 210.884 40.6133C211.022 40.4639 211.182 40.3376 211.366 40.2342C211.562 40.1307 211.763 40.0503 211.97 39.9929C212.188 39.9354 212.372 39.9067 212.521 39.9067C212.682 39.9067 212.843 39.9124 213.004 39.924C213.176 39.9354 213.343 39.9412 213.504 39.9412C213.676 39.9412 213.883 39.9297 214.124 39.9067C214.377 39.8837 214.572 39.8205 214.71 39.7171C214.744 39.6827 214.785 39.5965 214.831 39.4586C214.876 39.3093 214.916 39.1484 214.951 38.976C214.986 38.7922 215.015 38.6198 215.038 38.459C215.06 38.2866 215.072 38.1717 215.072 38.1143C215.072 37.85 215.049 37.5973 215.003 37.356C214.968 37.1147 214.951 36.8619 214.951 36.5976C214.951 36.2185 214.997 35.868 215.089 35.5463C215.181 35.2246 215.365 34.9259 215.641 34.6502C215.962 34.3284 216.267 34.0182 216.554 33.7195C216.853 33.4092 217.157 33.1335 217.468 32.8922C217.789 32.6509 218.134 32.4441 218.502 32.2718C218.88 32.0994 219.317 31.9788 219.811 31.9098C220.156 31.8639 220.501 31.8122 220.845 31.7547C221.202 31.6973 221.558 31.6685 221.914 31.6685C222.109 31.6685 222.368 31.6973 222.69 31.7547C223.023 31.8007 223.373 31.8754 223.741 31.9788C224.12 32.0707 224.499 32.1856 224.878 32.3235C225.257 32.4613 225.602 32.6222 225.912 32.806C226.223 32.9784 226.476 33.1737 226.671 33.392C226.866 33.5988 226.964 33.8229 226.964 34.0641C227.32 34.0757 227.579 34.1963 227.739 34.4261C227.911 34.6559 228.032 34.9317 228.101 35.2533C228.17 35.5751 228.216 35.914 228.239 36.2702C228.262 36.6149 228.314 36.9136 228.394 37.1664L228.429 37.2525ZM258.865 55.1766C258.796 55.4178 258.675 55.6132 258.503 55.7626C258.342 55.9004 258.153 56.0096 257.934 56.09C257.716 56.1704 257.481 56.2279 257.228 56.2624C256.987 56.2854 256.757 56.2968 256.538 56.2968C256.205 56.2968 255.878 56.2796 255.556 56.2451C255.234 56.1992 254.912 56.1475 254.591 56.09C254.419 56.0671 254.2 56.0498 253.936 56.0383C253.683 56.0268 253.43 55.9981 253.177 55.9521C252.925 55.9062 252.706 55.8258 252.522 55.7109C252.35 55.5845 252.264 55.3949 252.264 55.1421C252.264 54.8549 252.321 54.648 252.437 54.5217C252.551 54.3838 252.695 54.2919 252.868 54.2459C253.04 54.1885 253.229 54.154 253.436 54.1425C253.643 54.131 253.832 54.0965 254.005 54.0391C254.177 53.9702 254.321 53.8668 254.436 53.7289C254.551 53.5795 254.608 53.344 254.608 53.0222C254.608 52.8154 254.585 52.6086 254.539 52.4018C254.504 52.195 254.464 51.9939 254.419 51.7986C254.373 51.5918 254.327 51.3907 254.28 51.1954C254.246 50.9886 254.229 50.7817 254.229 50.5749C254.229 50.4371 254.269 50.2934 254.35 50.1441C254.441 49.9832 254.487 49.8051 254.487 49.6098C254.487 49.2536 254.459 48.9204 254.401 48.6102C254.344 48.3 254.252 47.9783 254.126 47.6451C254.045 47.4268 254.005 47.2257 254.005 47.0418C254.005 46.8695 254.039 46.7029 254.108 46.542C254.189 46.3812 254.229 46.2088 254.229 46.025C254.229 45.7837 254.189 45.5539 254.108 45.3356C254.028 45.1058 253.988 44.8703 253.988 44.629C253.988 44.3073 254.022 43.9913 254.091 43.6811C254.16 43.3709 254.195 43.0549 254.195 42.7332C254.195 42.5149 254.172 42.2736 254.126 42.0093C254.079 41.7451 254.016 41.4808 253.936 41.2165C253.867 40.9408 253.792 40.6765 253.712 40.4237C253.631 40.1595 253.557 39.924 253.488 39.7171C253.258 39.8205 253.069 39.9584 252.919 40.1307C252.781 40.2916 252.666 40.4755 252.574 40.6822C252.494 40.8891 252.425 41.1074 252.368 41.3372C252.321 41.567 252.281 41.791 252.247 42.0093C252.167 42.4574 252.04 42.8941 251.868 43.3191C251.707 43.7443 251.592 44.1809 251.523 44.629C251.431 45.1805 251.374 45.7263 251.351 46.2663C251.339 46.8063 251.311 47.3463 251.265 47.8864C251.23 48.4149 251.167 48.9434 251.075 49.4719C250.983 50.0005 250.816 50.529 250.575 51.0575C250.483 51.2528 250.426 51.4366 250.403 51.609C250.38 51.7814 250.368 51.9594 250.368 52.1433C250.368 52.3042 250.374 52.465 250.386 52.6258C250.397 52.7867 250.403 52.9533 250.403 53.1257C250.403 53.4818 250.363 53.7519 250.282 53.9357C250.213 54.1081 250.133 54.2516 250.041 54.3666C249.949 54.4815 249.857 54.5964 249.765 54.7112C249.673 54.8147 249.604 54.9755 249.559 55.1938C249.524 55.3776 249.426 55.5213 249.265 55.6247C249.116 55.7166 248.938 55.797 248.731 55.866C248.524 55.9234 248.317 55.9751 248.11 56.0211C247.904 56.0555 247.731 56.1073 247.594 56.1762C247.467 55.9119 247.312 55.6649 247.128 55.4351C246.956 55.2053 246.795 54.964 246.646 54.7112C246.485 54.447 246.381 54.1655 246.335 53.8668C246.301 53.568 246.232 53.2693 246.128 52.9706C246.083 52.8327 246.025 52.712 245.956 52.6086C245.899 52.5052 245.842 52.4018 245.784 52.2984C245.738 52.1835 245.692 52.0686 245.646 51.9537C245.612 51.8388 245.595 51.7009 245.595 51.5401C245.595 51.4137 245.6 51.2988 245.612 51.1954C245.623 51.0805 245.629 50.9599 245.629 50.8335C245.629 50.5577 245.583 50.2647 245.491 49.9545C245.307 49.3685 245.146 48.794 245.008 48.231C244.87 47.668 244.773 47.0763 244.716 46.4559C244.658 45.8928 244.612 45.3241 244.577 44.7496C244.543 44.1751 244.422 43.6179 244.216 43.0779C244.112 42.8136 243.992 42.5608 243.854 42.3196C243.716 42.0783 243.601 41.8255 243.509 41.5612C243.486 41.5038 243.463 41.4118 243.44 41.2855C243.429 41.1591 243.406 41.027 243.371 40.8891C243.348 40.7512 243.314 40.6306 243.268 40.5271C243.233 40.4123 243.193 40.3491 243.147 40.3376C243.089 40.3835 243.049 40.4525 243.026 40.5444C242.946 40.7512 242.883 40.8948 242.837 40.9752C242.791 41.0557 242.745 41.1246 242.699 41.1821C242.664 41.228 242.618 41.2797 242.561 41.3372C242.504 41.3946 242.423 41.498 242.32 41.6474C242.228 41.7738 242.182 41.9117 242.182 42.061C242.182 42.3253 242.239 42.5838 242.354 42.8366C242.469 43.0779 242.527 43.3307 242.527 43.5949C242.527 43.7213 242.504 43.8534 242.458 43.9913C242.412 44.1177 242.389 44.2441 242.389 44.3705C242.389 44.7037 242.435 45.0369 242.527 45.3701C242.63 45.6918 242.682 46.0193 242.682 46.3525C242.682 46.6167 242.641 46.8753 242.561 47.128C242.481 47.3693 242.44 47.6221 242.44 47.8864C242.44 48.1621 242.469 48.4379 242.527 48.7136C242.595 48.9779 242.63 49.2479 242.63 49.5236C242.63 49.7534 242.607 49.9775 242.561 50.1958C242.515 50.4026 242.463 50.6152 242.406 50.8335C242.36 51.0518 242.314 51.2701 242.268 51.4884C242.222 51.7067 242.199 51.9307 242.199 52.1605C242.199 52.6316 242.291 52.9648 242.475 53.1601C242.659 53.3555 242.877 53.5048 243.13 53.6082C243.394 53.7117 243.664 53.815 243.94 53.9184C244.216 54.0104 244.451 54.1885 244.646 54.4527C244.543 54.6251 244.463 54.8147 244.405 55.0215C244.359 55.2168 244.285 55.4006 244.181 55.573C244.089 55.7223 243.992 55.8258 243.888 55.8832C243.796 55.9406 243.698 55.9809 243.595 56.0038C243.503 56.0153 243.4 56.0325 243.285 56.0555C243.17 56.0671 243.049 56.1073 242.923 56.1762C242.797 56.2451 242.705 56.3141 242.647 56.383C242.601 56.4405 242.555 56.4921 242.51 56.5381C242.463 56.5956 242.394 56.6358 242.303 56.6588C242.222 56.6932 242.09 56.7105 241.906 56.7105C241.711 56.7105 241.515 56.6875 241.32 56.6415C241.125 56.5956 240.93 56.5726 240.734 56.5726C240.528 56.5726 240.327 56.6013 240.131 56.6588C239.936 56.7277 239.734 56.7622 239.528 56.7622C239.286 56.7622 239.045 56.7162 238.804 56.6243C238.563 56.5439 238.345 56.4289 238.149 56.2796C237.965 56.1187 237.81 55.9349 237.684 55.7281C237.569 55.5098 237.511 55.2685 237.511 55.0042C237.511 54.6136 237.592 54.3148 237.753 54.1081C237.914 53.9012 238.115 53.7404 238.356 53.6255C238.609 53.4991 238.878 53.3957 239.166 53.3153C239.453 53.2233 239.723 53.1084 239.976 52.9706C240.033 52.7752 240.068 52.5799 240.079 52.3846C240.091 52.1778 240.097 51.9709 240.097 51.7641C240.097 51.4309 240.079 51.0977 240.045 50.7645C240.022 50.4313 240.01 50.0981 240.01 49.7649C240.01 49.5466 240.033 49.3341 240.079 49.1272C240.125 48.9089 240.148 48.6849 240.148 48.4551C240.148 48.3402 240.131 48.231 240.097 48.1276C239.936 47.7025 239.832 47.2946 239.786 46.904C239.752 46.5133 239.734 46.0882 239.734 45.6286C239.734 45.4333 239.757 45.2437 239.803 45.0598C239.861 44.876 239.918 44.6922 239.976 44.5083C240.045 44.3245 240.102 44.1407 240.148 43.9568C240.205 43.773 240.234 43.5834 240.234 43.3881C240.234 43.0319 240.211 42.6815 240.165 42.3368C240.12 41.9921 240.097 41.6417 240.097 41.2855C240.097 41.0557 240.12 40.8316 240.165 40.6133C240.211 40.395 240.234 40.171 240.234 39.9412C240.234 39.7114 240.188 39.4931 240.097 39.2863C240.004 39.068 239.959 38.8439 239.959 38.6141C239.959 38.4533 239.999 38.3096 240.079 38.1832C240.171 38.0569 240.217 37.9132 240.217 37.7524C240.217 37.6605 240.171 37.5685 240.079 37.4766C239.987 37.3847 239.941 37.2353 239.941 37.0285C239.941 36.8562 239.947 36.6838 239.959 36.5115C239.981 36.3391 239.993 36.1668 239.993 35.9944C239.993 35.6497 239.936 35.3797 239.821 35.1844C239.706 34.9776 239.562 34.8225 239.39 34.7191C239.229 34.6042 239.051 34.5237 238.856 34.4778C238.66 34.4318 238.476 34.3859 238.304 34.3399C238.143 34.2825 238.005 34.2193 237.891 34.1503C237.775 34.0814 237.718 33.9665 237.718 33.8056C237.718 33.6563 237.798 33.5069 237.959 33.3575C238.132 33.1967 238.345 33.0416 238.597 32.8922C238.85 32.7428 239.125 32.5992 239.425 32.4613C239.723 32.312 239.999 32.1798 240.252 32.0649C240.505 31.95 240.717 31.8524 240.889 31.772C241.073 31.6915 241.177 31.6341 241.2 31.5996C241.245 31.6801 241.308 31.7375 241.389 31.772C241.47 31.7949 241.556 31.8122 241.648 31.8236C241.751 31.8236 241.849 31.8236 241.94 31.8236C242.044 31.8236 242.13 31.8352 242.199 31.8581C242.314 31.8926 242.4 31.9386 242.458 31.996C242.515 32.0535 242.567 32.1109 242.613 32.1684C242.67 32.2258 242.745 32.2832 242.837 32.3407C242.929 32.3981 243.066 32.4499 243.25 32.4958C243.687 32.6107 244.015 32.7773 244.233 32.9956C244.463 33.2024 244.577 33.5471 244.577 34.0297C244.577 34.1561 244.566 34.2825 244.543 34.4089C244.52 34.5237 244.509 34.6444 244.509 34.7708L244.94 35.9944C244.974 36.1208 245.008 36.253 245.043 36.3908C245.089 36.5172 245.123 36.6436 245.146 36.77C245.272 36.8734 245.371 37.0285 245.439 37.2353C245.508 37.4422 245.554 37.6662 245.577 37.9075C245.612 38.1373 245.635 38.3671 245.646 38.5969C245.657 38.8267 245.675 39.022 245.698 39.1829C245.732 39.4471 245.79 39.7057 245.87 39.9584C245.962 40.1997 246.008 40.4525 246.008 40.7167C246.008 40.8776 245.979 41.0384 245.922 41.1993C245.876 41.3602 245.853 41.5268 245.853 41.6991C245.853 41.9978 245.893 42.2908 245.974 42.5781C246.054 42.8653 246.146 43.1526 246.25 43.4398C246.352 43.7155 246.445 43.9971 246.525 44.2843C246.617 44.5715 246.669 44.8645 246.68 45.1633C246.68 45.3011 246.692 45.5137 246.715 45.801C246.749 46.0882 246.789 46.4099 246.835 46.7661C246.893 47.1108 246.956 47.4727 247.025 47.8518C247.105 48.2195 247.197 48.5585 247.301 48.8687C247.415 49.1789 247.542 49.4317 247.68 49.627C247.829 49.8224 247.99 49.92 248.162 49.92C248.369 49.92 248.501 49.8626 248.558 49.7477C248.616 49.6213 248.651 49.4777 248.662 49.3168C248.674 49.156 248.691 48.9951 248.714 48.8342C248.737 48.6734 248.817 48.5585 248.955 48.4895C249.07 48.4206 249.168 48.2885 249.248 48.0931C249.34 47.8864 249.415 47.6623 249.472 47.421C249.53 47.1682 249.57 46.9269 249.593 46.6972C249.627 46.4559 249.65 46.272 249.662 46.1456C249.696 45.5482 249.713 44.9335 249.713 44.3016C249.713 43.6696 249.725 43.0376 249.748 42.4057C249.771 41.7623 249.823 41.1361 249.903 40.5271C249.984 39.9067 250.115 39.3093 250.299 38.7348C250.334 38.6428 250.38 38.5567 250.437 38.4762C250.495 38.3958 250.552 38.3154 250.61 38.235C250.667 38.143 250.713 38.0569 250.747 37.9764C250.793 37.8845 250.816 37.7868 250.816 37.6835C250.816 37.6145 250.799 37.557 250.765 37.5111C250.73 37.4536 250.69 37.4077 250.644 37.3732C250.61 37.3387 250.575 37.3043 250.54 37.2698C250.506 37.2353 250.489 37.1951 250.489 37.1492C250.489 37.0917 250.506 37.0515 250.54 37.0285C250.575 36.994 250.61 36.9596 250.644 36.9251C250.805 36.7413 250.903 36.4885 250.937 36.1668C250.983 35.8336 251.012 35.4832 251.023 35.1155C251.035 34.7363 251.046 34.3686 251.058 34.0125C251.081 33.6448 251.155 33.3346 251.282 33.0818C251.419 33.1392 251.552 33.168 251.678 33.168C251.839 33.168 251.994 33.1392 252.144 33.0818C252.293 33.0128 252.437 32.9439 252.574 32.875C252.724 32.806 252.873 32.7428 253.023 32.6854C253.183 32.6164 253.35 32.582 253.522 32.582C253.58 32.582 253.643 32.5877 253.712 32.5992C253.781 32.5992 253.844 32.5992 253.901 32.5992C254.131 32.5992 254.338 32.5475 254.522 32.4441C254.706 32.3407 254.895 32.289 255.091 32.289C255.171 32.289 255.229 32.3062 255.263 32.3407C255.298 32.3752 255.32 32.4096 255.332 32.4441C255.355 32.4786 255.378 32.5131 255.401 32.5475C255.424 32.582 255.458 32.5992 255.504 32.5992C255.7 32.5992 255.895 32.5762 256.09 32.5303C256.297 32.4843 256.498 32.4613 256.693 32.4613C256.82 32.4613 256.923 32.4786 257.004 32.5131C257.084 32.536 257.164 32.605 257.245 32.7199C257.337 32.8577 257.464 32.9497 257.624 32.9956C257.785 33.0301 257.946 33.0703 258.107 33.1163C258.267 33.1507 258.405 33.2081 258.52 33.2886C258.647 33.3575 258.71 33.4897 258.71 33.685C258.71 34.0871 258.612 34.3629 258.417 34.5123C258.221 34.6616 257.992 34.765 257.728 34.8225C257.475 34.8685 257.222 34.9144 256.969 34.9604C256.728 34.9948 256.556 35.104 256.452 35.2878C256.337 35.4832 256.268 35.6957 256.245 35.9255C256.222 36.1553 256.165 36.3793 256.073 36.5976C256.038 36.6896 256.01 36.7757 255.987 36.8562C255.964 36.9366 255.952 37.0228 255.952 37.1147C255.952 37.2985 255.975 37.4766 256.021 37.6489C256.067 37.8213 256.119 37.9937 256.177 38.166C256.245 38.3269 256.309 38.4935 256.366 38.6658C256.423 38.8381 256.463 39.0105 256.486 39.1829C256.556 39.8033 256.59 40.4237 256.59 41.0442C256.59 41.4118 256.567 41.7795 256.521 42.1472C256.486 42.5149 256.446 42.8825 256.401 43.2502C256.355 43.6179 256.309 43.9855 256.262 44.3532C256.228 44.7094 256.211 45.0656 256.211 45.4218C256.211 45.6975 256.125 45.9216 255.952 46.0939L255.935 46.4903C255.935 46.8235 255.958 47.1567 256.004 47.49C256.05 47.8232 256.102 48.1563 256.159 48.4895C256.217 48.8113 256.268 49.1387 256.314 49.4719C256.36 49.8051 256.383 50.1383 256.383 50.4715C256.383 50.9197 256.32 51.362 256.194 51.7986C256.067 52.2352 256.004 52.6776 256.004 53.1257C256.004 53.4588 256.073 53.7231 256.211 53.9184C256.349 54.1138 256.602 54.2114 256.969 54.2114C257.13 54.2114 257.291 54.2057 257.452 54.1942C257.624 54.1712 257.79 54.1597 257.952 54.1597C258.113 54.1597 258.279 54.177 258.451 54.2114C258.624 54.2459 258.773 54.3264 258.899 54.4527C258.899 54.4987 258.905 54.5676 258.917 54.6596C258.94 54.7515 258.951 54.8434 258.951 54.9353C258.963 55.0157 258.963 55.0846 258.951 55.1421C258.94 55.1995 258.911 55.2111 258.865 55.1766ZM242.94 38.1832C242.94 37.9649 242.906 37.7466 242.837 37.5283C242.779 37.2985 242.647 37.1262 242.44 37.0113C242.44 37.1147 242.435 37.2239 242.423 37.3387C242.423 37.4422 242.423 37.5456 242.423 37.6489C242.423 37.8328 242.446 38.0166 242.492 38.2005C242.55 38.3728 242.693 38.4647 242.923 38.4762C242.935 38.4303 242.94 38.3843 242.94 38.3384C242.94 38.2924 242.94 38.2407 242.94 38.1832ZM256.383 54.1597C256.383 54.0908 256.337 54.0333 256.245 53.9874C256.154 53.9414 256.079 53.9184 256.021 53.9184C255.987 53.9184 255.935 53.9242 255.866 53.9357C255.809 53.9472 255.746 53.9644 255.677 53.9874C255.619 54.0104 255.567 54.0391 255.522 54.0736C255.476 54.1081 255.453 54.1483 255.453 54.1942C255.453 54.2632 255.504 54.3091 255.608 54.3321C255.723 54.3436 255.809 54.3493 255.866 54.3493C255.924 54.3493 256.021 54.3378 256.159 54.3148C256.309 54.2919 256.383 54.2402 256.383 54.1597ZM248.817 51.7469C248.771 51.7469 248.725 51.7469 248.68 51.7469C248.645 51.7354 248.605 51.7297 248.558 51.7297C248.363 51.7297 248.191 51.7699 248.042 51.8503C247.904 51.9192 247.835 52.0686 247.835 52.2984V52.488C247.881 52.488 247.921 52.4937 247.956 52.5052C248.002 52.5052 248.048 52.5052 248.093 52.5052C248.289 52.5052 248.461 52.4707 248.61 52.4018C248.76 52.3214 248.834 52.1663 248.834 51.9365L248.817 51.7469ZM280.288 53.4014C280.288 53.5967 280.253 53.7806 280.184 53.9529C280.116 54.1253 280.052 54.3034 279.994 54.4872C279.949 54.648 279.914 54.7802 279.892 54.8836C279.88 54.987 279.857 55.0789 279.822 55.1594C279.788 55.2283 279.73 55.2972 279.65 55.3662C279.581 55.4236 279.466 55.4926 279.305 55.573C278.961 55.7568 278.593 55.9464 278.202 56.1417C277.823 56.3256 277.438 56.4175 277.048 56.4175C276.714 56.4175 276.399 56.3428 276.1 56.1934C275.812 56.0325 275.542 55.8602 275.29 55.6764C275.049 55.481 274.824 55.303 274.618 55.1421C274.422 54.9813 274.255 54.9008 274.118 54.9008C273.968 54.9008 273.836 54.9411 273.721 55.0215C273.618 55.1019 273.509 55.1881 273.394 55.28C273.291 55.3719 273.17 55.4581 273.032 55.5385C272.906 55.6189 272.744 55.6591 272.549 55.6591C272.389 55.6591 272.222 55.6879 272.049 55.7453C271.877 55.8028 271.705 55.8717 271.533 55.9521C271.36 56.0211 271.182 56.0958 270.998 56.1762C270.826 56.2451 270.665 56.3026 270.516 56.3485C269.999 56.4864 269.476 56.5668 268.947 56.5898C268.43 56.6128 267.907 56.6243 267.379 56.6243C267.241 56.6243 267.028 56.6186 266.741 56.607C266.454 56.607 266.161 56.5783 265.862 56.5209C265.575 56.4749 265.316 56.3945 265.087 56.2796C264.868 56.1647 264.759 56.0038 264.759 55.797C264.759 55.7511 264.765 55.7109 264.776 55.6764C264.696 55.7683 264.604 55.843 264.501 55.9004C264.397 55.9579 264.283 55.9866 264.156 55.9866C263.972 55.9866 263.748 55.8602 263.484 55.6075C263.22 55.3547 262.967 55.0617 262.726 54.7285C262.484 54.3953 262.278 54.0678 262.105 53.7461C261.933 53.4129 261.847 53.1659 261.847 53.005C261.847 52.8786 261.881 52.7637 261.95 52.6603C262.03 52.5569 262.071 52.442 262.071 52.3156C262.071 52.1548 262.048 52.0054 262.002 51.8676C261.967 51.7182 261.95 51.5631 261.95 51.4022C261.95 51.1954 261.99 50.9771 262.071 50.7473C262.151 50.506 262.249 50.2704 262.364 50.0407C262.479 49.7994 262.599 49.5696 262.726 49.3513C262.852 49.1215 262.967 48.9089 263.07 48.7136C263.185 48.4838 263.346 48.3 263.553 48.1621C263.76 48.0242 263.978 47.9036 264.208 47.8002C264.438 47.6967 264.667 47.5933 264.897 47.49C265.127 47.3865 265.328 47.2487 265.5 47.0763C265.673 47.2717 265.897 47.3693 266.172 47.3693C266.46 47.3693 266.741 47.3291 267.017 47.2487C267.293 47.1567 267.574 47.1108 267.861 47.1108C268.091 47.1108 268.31 47.1338 268.516 47.1797C268.735 47.2257 268.959 47.2487 269.188 47.2487C269.441 47.2487 269.625 47.2199 269.74 47.1625C269.866 47.0936 270.022 46.9786 270.206 46.8178C270.389 46.6569 270.619 46.5363 270.895 46.4559C271.182 46.3639 271.475 46.295 271.774 46.249C272.084 46.1916 272.389 46.1341 272.687 46.0767C272.997 46.0193 273.273 45.9388 273.515 45.8354C273.756 45.7205 273.951 45.5711 274.1 45.3873C274.25 45.192 274.324 44.9277 274.324 44.5945C274.324 44.2268 274.215 43.842 273.997 43.4398C273.79 43.0262 273.52 42.6528 273.187 42.3196C272.854 41.9749 272.486 41.6933 272.084 41.475C271.682 41.2567 271.297 41.1476 270.929 41.1476C270.884 41.1476 270.837 41.1533 270.791 41.1648C270.745 41.1763 270.705 41.1821 270.671 41.1821C270.395 41.228 270.085 41.2625 269.74 41.2855C269.395 41.2969 269.074 41.3487 268.775 41.4406C268.476 41.521 268.224 41.6646 268.017 41.8714C267.81 42.0668 267.706 42.3598 267.706 42.7504C267.706 42.9802 267.724 43.21 267.758 43.4398C267.804 43.6581 267.827 43.8822 267.827 44.1119C267.827 44.4567 267.741 44.7439 267.569 44.9737C267.408 45.2035 267.195 45.3873 266.931 45.5252C266.678 45.6631 266.396 45.7607 266.086 45.8182C265.776 45.8642 265.477 45.8871 265.19 45.8871C264.845 45.8871 264.547 45.8412 264.294 45.7492C264.041 45.6573 263.835 45.4448 263.673 45.1116C263.547 44.8703 263.409 44.6118 263.26 44.336C263.122 44.0487 263.053 43.7615 263.053 43.4743C263.053 43.164 263.105 42.8768 263.208 42.6125C263.323 42.3368 263.449 42.0725 263.587 41.8198C263.725 41.5555 263.858 41.2969 263.984 41.0442C264.122 40.7799 264.219 40.4984 264.277 40.1997C264.357 40.1537 264.466 40.1078 264.604 40.0618C264.754 40.0159 264.909 39.9699 265.069 39.924C265.242 39.878 265.403 39.8378 265.552 39.8033C265.713 39.7573 265.845 39.7171 265.948 39.6827C266.224 39.6022 266.489 39.5103 266.741 39.4069C267.005 39.292 267.27 39.1886 267.534 39.0967C267.81 39.0048 268.08 38.9243 268.344 38.8554C268.62 38.7865 268.902 38.7462 269.188 38.7348L269.723 38.7175C270.217 38.7175 270.722 38.7635 271.239 38.8554C271.757 38.9358 272.262 39.068 272.756 39.2518C273.25 39.4356 273.716 39.6654 274.152 39.9412C274.6 40.2054 274.997 40.5214 275.341 40.8891C275.594 41.1648 275.801 41.4923 275.962 41.8714C276.134 42.2391 276.266 42.6298 276.358 43.0434C276.461 43.457 276.53 43.8764 276.565 44.3016C276.611 44.7152 276.634 45.1001 276.634 45.4562C276.634 45.9388 276.617 46.4157 276.582 46.8867C276.559 47.3463 276.548 47.8174 276.548 48.3C276.548 48.7596 276.571 49.2191 276.617 49.6787C276.674 50.1269 276.737 50.5807 276.806 51.0402C276.875 51.4884 276.932 51.9422 276.979 52.4018C277.036 52.8499 277.065 53.298 277.065 53.7461C277.088 54.0219 277.122 54.1942 277.168 54.2632C277.226 54.3206 277.283 54.3493 277.34 54.3493C277.593 54.3493 277.794 54.2746 277.944 54.1253C278.105 53.9644 278.248 53.7921 278.375 53.6082C278.501 53.4129 278.639 53.2348 278.788 53.074C278.938 52.9131 279.127 52.8327 279.357 52.8327C279.461 52.8327 279.564 52.8384 279.667 52.8499C279.782 52.8614 279.886 52.8901 279.977 52.9361C280.069 52.9706 280.144 53.028 280.201 53.1084C280.259 53.1774 280.288 53.275 280.288 53.4014ZM274.618 49.11C274.618 49.041 274.612 48.9204 274.6 48.7481C274.6 48.5757 274.589 48.4034 274.566 48.231C274.543 48.0472 274.502 47.8864 274.445 47.7485C274.399 47.6106 274.324 47.5416 274.221 47.5416C274.198 47.5416 274.17 47.5531 274.135 47.5761C274.1 47.5876 274.071 47.5933 274.049 47.5933C273.612 47.8346 273.239 48.0357 272.928 48.1966C272.618 48.3459 272.308 48.4723 271.998 48.5757C271.699 48.6676 271.377 48.7308 271.033 48.7653C270.688 48.7998 270.257 48.817 269.74 48.817C269.671 48.817 269.481 48.8457 269.171 48.9032C268.861 48.9606 268.522 49.0296 268.154 49.11C267.787 49.1789 267.442 49.2536 267.121 49.3341C266.799 49.403 266.597 49.449 266.517 49.4719C266.368 49.5294 266.259 49.5868 266.19 49.6443C266.132 49.7017 266.086 49.7649 266.052 49.8338C266.018 49.9028 265.983 49.9775 265.948 50.0579C265.914 50.1269 265.851 50.2015 265.759 50.282C265.644 50.3739 265.517 50.4485 265.38 50.506C265.253 50.5634 265.133 50.6496 265.018 50.7645C264.845 50.9369 264.685 51.1667 264.535 51.4539C264.386 51.7297 264.311 51.9939 264.311 52.2467C264.311 52.5569 264.391 52.8327 264.552 53.074C264.714 53.3153 264.926 53.5221 265.19 53.6944C265.454 53.8668 265.753 54.0161 266.086 54.1425C266.42 54.2689 266.753 54.3666 267.086 54.4355C267.431 54.5045 267.758 54.5561 268.068 54.5906C268.39 54.6251 268.666 54.6423 268.896 54.6423C269.171 54.6423 269.499 54.6251 269.878 54.5906C270.257 54.5447 270.636 54.4815 271.015 54.401C271.394 54.3091 271.751 54.1885 272.084 54.0391C272.417 53.8898 272.682 53.7001 272.877 53.4704C272.957 53.3784 273.015 53.298 273.049 53.2291C273.084 53.1486 273.118 53.074 273.152 53.005C273.198 52.9246 273.244 52.8441 273.291 52.7637C273.348 52.6833 273.434 52.5971 273.549 52.5052C273.813 52.2869 274.014 52.0456 274.152 51.7814C274.301 51.5171 274.411 51.2413 274.479 50.9541C274.548 50.6668 274.589 50.3681 274.6 50.0579C274.612 49.7477 274.618 49.4317 274.618 49.11ZM301.521 55.6764C301.521 55.8258 301.481 55.9751 301.4 56.1245C301.331 56.2738 301.211 56.3485 301.038 56.3485C300.912 56.3485 300.797 56.337 300.693 56.3141C300.59 56.2796 300.475 56.2624 300.349 56.2624C300.165 56.2624 300.067 56.2968 300.056 56.3658C300.056 56.4347 300.044 56.5094 300.021 56.5898C299.998 56.6818 299.912 56.7622 299.763 56.8311C299.625 56.9001 299.326 56.9345 298.867 56.9345C298.602 56.9345 298.338 56.9115 298.074 56.8656C297.821 56.8196 297.562 56.7966 297.298 56.7966C297.103 56.7966 296.89 56.8253 296.661 56.8828C296.569 56.7679 296.465 56.6818 296.35 56.6243C296.247 56.5668 296.144 56.5037 296.04 56.4347C295.948 56.3773 295.868 56.3026 295.799 56.2106C295.73 56.1187 295.696 55.9809 295.696 55.797C295.696 55.6707 295.615 55.6075 295.454 55.6075C295.396 55.6075 295.339 55.6132 295.282 55.6247C295.236 55.6361 295.184 55.6419 295.127 55.6419C295.069 55.6419 295.018 55.6304 294.971 55.6075C294.937 55.573 294.92 55.527 294.92 55.4696C294.92 55.4466 294.925 55.4294 294.937 55.4178C294.696 55.4294 294.512 55.5098 294.386 55.6591C294.259 55.8085 294.121 55.9636 293.972 56.1245C293.868 56.2279 293.76 56.3083 293.644 56.3658C293.53 56.4117 293.409 56.4519 293.283 56.4864C293.168 56.5324 293.041 56.5841 292.904 56.6415C292.777 56.699 292.651 56.7851 292.524 56.9001C292.421 57.0034 292.249 57.0782 292.007 57.1241C291.766 57.1815 291.507 57.2217 291.231 57.2447C290.967 57.2792 290.703 57.2965 290.439 57.2965C290.186 57.3079 289.985 57.3137 289.836 57.3137C289.491 57.3137 289.209 57.2849 288.991 57.2275C288.784 57.1701 288.595 57.0954 288.422 57.0034C288.262 56.923 288.089 56.8311 287.905 56.7277C287.721 56.6358 287.486 56.5439 287.199 56.4519C286.889 56.36 286.515 56.1877 286.079 55.9349C285.642 55.6821 285.223 55.3891 284.82 55.056C284.43 54.7228 284.097 54.3666 283.821 53.9874C283.545 53.5967 283.407 53.2233 283.407 52.8671C283.407 52.7063 283.367 52.5454 283.286 52.3846C283.218 52.2122 283.126 52.0514 283.011 51.902C282.907 51.7411 282.798 51.586 282.683 51.4366C282.568 51.2758 282.476 51.1264 282.407 50.9886C282.189 50.552 282.046 50.0924 281.976 49.6098C281.919 49.1272 281.891 48.6446 281.891 48.1621C281.891 47.714 281.925 47.2889 281.994 46.8867C282.063 46.4731 282.149 46.0709 282.252 45.6803C282.356 45.2781 282.459 44.8818 282.563 44.4911C282.677 44.1005 282.781 43.6926 282.873 43.2675C282.93 42.9687 283.011 42.7447 283.114 42.5953C283.218 42.4345 283.332 42.2966 283.459 42.1817C283.597 42.0668 283.74 41.9576 283.89 41.8542C284.051 41.7508 284.211 41.6014 284.372 41.4061C284.441 41.3257 284.482 41.2567 284.493 41.1993C284.516 41.1304 284.533 41.0786 284.545 41.0442C284.568 40.9982 284.602 40.9695 284.648 40.958C284.706 40.935 284.809 40.9235 284.958 40.9235C285.05 40.9235 285.119 40.8948 285.165 40.8374C285.223 40.7799 285.274 40.711 285.32 40.6306C285.366 40.5501 285.407 40.4697 285.441 40.3893C285.487 40.2974 285.544 40.2284 285.613 40.1824C285.682 40.1365 285.768 40.1021 285.872 40.0791C285.975 40.0561 286.084 40.0388 286.199 40.0273C286.314 40.0159 286.423 40.0043 286.527 39.9929C286.641 39.9814 286.745 39.9584 286.837 39.924C287.078 39.8205 287.273 39.7286 287.423 39.6482C287.584 39.5677 287.733 39.4988 287.871 39.4414C288.02 39.3724 288.187 39.3207 288.371 39.2863C288.554 39.2518 288.796 39.2345 289.095 39.2345C289.485 39.2345 289.87 39.2863 290.249 39.3896C290.64 39.4816 291.025 39.585 291.404 39.6999C291.783 39.8148 292.162 39.924 292.541 40.0273C292.921 40.1193 293.312 40.1652 293.714 40.1652C294.035 40.1652 294.288 40.0963 294.472 39.9584C294.667 39.8205 294.811 39.6424 294.903 39.4241C295.006 39.2058 295.069 38.9645 295.092 38.7003C295.127 38.436 295.144 38.1775 295.144 37.9247C295.144 37.4766 295.115 37.0342 295.058 36.5976C295 36.1495 294.96 35.7072 294.937 35.2706L294.782 35.3395C294.667 35.3395 294.564 35.3108 294.472 35.2533C294.38 35.1844 294.293 35.1155 294.213 35.0465C294.133 34.9661 294.047 34.8972 293.955 34.8397C293.863 34.7708 293.76 34.7363 293.644 34.7363C293.518 34.7363 293.438 34.7708 293.403 34.8397C293.369 34.8972 293.312 34.9546 293.231 35.012C293.105 35.0236 292.972 35.035 292.835 35.0465C292.708 35.0465 292.582 35.0465 292.455 35.0465H291.697C291.536 35.0465 291.352 35.0006 291.146 34.9087C290.95 34.8053 290.76 34.6789 290.577 34.5295C290.393 34.3686 290.238 34.202 290.111 34.0297C289.997 33.8458 289.939 33.6678 289.939 33.4954C289.939 33.3461 289.985 33.1909 290.077 33.0301C290.18 32.8577 290.301 32.7026 290.439 32.5648C290.588 32.4269 290.749 32.3177 290.922 32.2373C291.094 32.1454 291.26 32.0994 291.421 32.0994C291.571 32.0994 291.708 32.1396 291.835 32.22C291.961 32.289 292.099 32.3235 292.249 32.3235C292.501 32.3235 292.742 32.2832 292.972 32.2028C293.213 32.1224 293.466 32.0822 293.731 32.0822C293.995 32.0822 294.242 32.1281 294.472 32.22C294.713 32.3005 294.966 32.3407 295.23 32.3407C295.425 32.3407 295.621 32.335 295.816 32.3235C296.023 32.312 296.224 32.3062 296.419 32.3062C296.626 32.3062 296.833 32.3235 297.04 32.3579C297.258 32.3924 297.459 32.4613 297.643 32.5648V32.6682C297.643 32.829 297.66 32.9899 297.695 33.1507C297.741 33.3001 297.786 33.4552 297.832 33.6161C297.89 33.7654 297.936 33.9148 297.97 34.0641C298.016 34.2135 298.039 34.3686 298.039 34.5295C298.039 34.7363 297.988 34.9374 297.884 35.1327C297.792 35.3165 297.746 35.5176 297.746 35.7359C297.746 36.1381 297.792 36.5402 297.884 36.9423C297.976 37.333 298.022 37.7294 298.022 38.1315C298.022 39.1426 298.016 40.1537 298.005 41.1648C297.993 42.1644 297.988 43.1755 297.988 44.1981C297.988 45.2322 297.953 46.2605 297.884 47.2831C297.815 48.2942 297.781 49.3168 297.781 50.3509C297.781 50.73 297.798 51.1609 297.832 51.6435C297.867 52.1146 297.959 52.5627 298.108 52.9878C298.257 53.4014 298.476 53.7519 298.763 54.0391C299.062 54.3264 299.47 54.4699 299.987 54.4699C300.09 54.4699 300.188 54.4642 300.28 54.4527C300.383 54.4297 300.487 54.4183 300.59 54.4183C300.739 54.4183 300.871 54.4585 300.987 54.5389C301.101 54.6193 301.199 54.7228 301.279 54.8491C301.36 54.9755 301.417 55.1134 301.452 55.2627C301.498 55.4121 301.521 55.55 301.521 55.6764ZM295.265 47.128C295.265 46.7029 295.224 46.249 295.144 45.7665C295.075 45.2839 294.943 44.8358 294.747 44.4221C294.564 43.9971 294.305 43.6409 293.972 43.3536C293.65 43.0664 293.242 42.9113 292.748 42.8883C292.645 42.8768 292.518 42.8309 292.369 42.7504C292.231 42.67 292.087 42.5838 291.938 42.4919C291.789 42.4 291.639 42.3196 291.49 42.2506C291.352 42.1702 291.226 42.13 291.111 42.13C291.007 42.13 290.91 42.1529 290.818 42.1989C290.726 42.2334 290.634 42.2794 290.542 42.3368C290.451 42.3827 290.358 42.4287 290.267 42.4747C290.175 42.5091 290.071 42.5264 289.956 42.5264C289.761 42.5264 289.572 42.5149 289.388 42.4919C289.215 42.4689 289.031 42.4574 288.836 42.4574C288.262 42.4574 287.739 42.6298 287.267 42.9745C286.808 43.3191 286.412 43.75 286.079 44.267C285.745 44.7726 285.487 45.3241 285.303 45.9216C285.119 46.5076 285.027 47.0476 285.027 47.5416C285.027 47.7485 285.039 47.9553 285.061 48.1621C285.096 48.3689 285.113 48.5757 285.113 48.7825C285.113 48.9204 285.073 49.0353 284.993 49.1272C284.924 49.2077 284.837 49.2939 284.734 49.3857C284.642 49.4662 284.556 49.5581 284.476 49.6615C284.407 49.7534 284.372 49.8683 284.372 50.0062H284.51C284.809 50.0062 285.039 50.0637 285.2 50.1785C285.372 50.282 285.498 50.4255 285.579 50.6094C285.671 50.7817 285.739 50.9828 285.786 51.2126C285.843 51.4424 285.906 51.6779 285.975 51.9192C286.044 52.149 286.142 52.3731 286.268 52.5914C286.406 52.8097 286.601 53.005 286.854 53.1774C287.038 53.3037 287.239 53.4416 287.457 53.591C287.687 53.7404 287.922 53.8782 288.164 54.0046C288.417 54.131 288.664 54.2402 288.905 54.3321C289.158 54.4125 289.399 54.4527 289.629 54.4527C289.997 54.4527 290.358 54.401 290.715 54.2976C291.071 54.1827 291.433 54.1253 291.801 54.1253C291.938 54.1253 292.087 54.1425 292.249 54.177C292.513 53.7633 292.817 53.3727 293.162 53.005C293.518 52.6258 293.949 52.3616 294.455 52.2122L294.437 51.833C294.437 51.4539 294.477 51.0862 294.558 50.73C294.65 50.3624 294.747 49.9889 294.851 49.6098C294.954 49.2306 295.046 48.84 295.127 48.4379C295.219 48.0357 295.265 47.5991 295.265 47.128ZM319.445 52.8154C319.445 53.1257 319.393 53.3899 319.29 53.6082C319.198 53.8265 319.071 54.0219 318.91 54.1942C318.761 54.3666 318.583 54.5274 318.376 54.6768C318.181 54.8261 317.98 54.987 317.773 55.1594C317.612 55.2972 317.469 55.4006 317.342 55.4696C317.216 55.5385 317.089 55.5959 316.963 55.6419C316.848 55.6879 316.721 55.7339 316.584 55.7798C316.457 55.8258 316.308 55.889 316.136 55.9694C315.906 56.0843 315.711 56.1934 315.55 56.2968C315.4 56.3887 315.245 56.4749 315.085 56.5553C314.935 56.6358 314.768 56.699 314.585 56.7449C314.401 56.8024 314.171 56.8483 313.895 56.8828C313.435 56.9403 312.97 57.0092 312.499 57.0896C312.04 57.1701 311.58 57.2103 311.121 57.2103C311.028 57.2103 310.931 57.1873 310.827 57.1413C310.735 57.1068 310.626 57.0666 310.5 57.0207C310.373 56.9862 310.23 56.946 310.069 56.9001C309.92 56.8656 309.736 56.8483 309.518 56.8483C309.288 56.8483 309.104 56.8139 308.966 56.7449C308.828 56.676 308.702 56.5956 308.587 56.5037C308.484 56.4117 308.374 56.3141 308.26 56.2106C308.144 56.0958 307.995 55.9981 307.812 55.9177C307.122 55.6075 306.536 55.234 306.054 54.7974C305.571 54.3608 305.157 53.8725 304.812 53.3325C304.468 52.7925 304.18 52.2065 303.951 51.5745C303.721 50.9426 303.525 50.282 303.365 49.5925C303.239 49.11 303.175 48.6274 303.175 48.1449C303.175 47.5129 303.324 46.9269 303.624 46.3869C303.508 46.0652 303.451 45.755 303.451 45.4562C303.451 45.2379 303.514 44.9163 303.641 44.4911C303.767 44.0545 303.928 43.6179 304.123 43.1813C304.33 42.7447 304.548 42.354 304.778 42.0093C305.019 41.6531 305.243 41.4348 305.45 41.3544C305.611 41.2969 305.72 41.251 305.778 41.2165C305.847 41.1706 305.881 41.0557 305.881 40.8719C305.881 40.734 305.933 40.619 306.036 40.5271C306.151 40.4352 306.283 40.3605 306.433 40.3031C306.593 40.2456 306.749 40.1939 306.898 40.148C307.059 40.1021 307.191 40.0561 307.294 40.0101C307.719 39.8033 308.121 39.6309 308.501 39.4931C308.892 39.3437 309.276 39.2231 309.655 39.1312C310.046 39.0277 310.448 38.9531 310.862 38.9071C311.276 38.8611 311.718 38.8381 312.189 38.8381C312.442 38.8381 312.689 38.8726 312.93 38.9416C313.171 39.0105 313.401 39.1024 313.619 39.2173C313.849 39.3207 314.073 39.4414 314.291 39.5792C314.51 39.7057 314.722 39.832 314.929 39.9584H314.912C315.085 39.9814 315.245 40.0331 315.394 40.1135C315.556 40.1824 315.722 40.2284 315.894 40.2514C316.055 40.4467 316.262 40.6363 316.515 40.8201C316.779 40.9925 317.032 41.1763 317.273 41.3716C317.526 41.567 317.739 41.7795 317.911 42.0093C318.095 42.2276 318.187 42.4804 318.187 42.7676C318.187 42.8136 318.181 42.8596 318.17 42.9055C318.17 42.9515 318.164 43.0032 318.152 43.0606L318.221 42.9745C318.267 43.0089 318.307 43.0664 318.342 43.1468C318.388 43.2273 318.428 43.3191 318.462 43.4226C318.497 43.5145 318.526 43.6121 318.549 43.7155C318.572 43.8075 318.589 43.8822 318.6 43.9396C318.692 44.089 318.813 44.2096 318.962 44.3016C319.123 44.3935 319.25 44.5199 319.341 44.6807C319.227 44.7956 319.169 44.945 319.169 45.1288C319.169 45.3241 319.209 45.5194 319.29 45.7148C319.37 45.8986 319.41 46.0882 319.41 46.2835C319.41 46.5133 319.399 46.7374 319.376 46.9557C319.353 47.1625 319.341 47.3808 319.341 47.6106C319.341 47.7829 319.273 47.915 319.134 48.007C319.008 48.0989 318.865 48.1793 318.703 48.2482C318.554 48.3172 318.416 48.3861 318.29 48.4551C318.164 48.524 318.1 48.6217 318.1 48.7481C318.1 48.84 318.043 48.8859 317.928 48.8859C317.824 48.8745 317.739 48.8687 317.67 48.8687C317.164 48.8687 316.659 48.8055 316.153 48.6791C315.659 48.5527 315.165 48.4895 314.671 48.4895C314.131 48.4895 313.596 48.5298 313.068 48.6102C312.539 48.6791 312.005 48.7136 311.465 48.7136C311.063 48.7136 310.661 48.7021 310.259 48.6791C309.868 48.6562 309.471 48.6446 309.069 48.6446C308.966 48.6446 308.771 48.6676 308.484 48.7136C308.196 48.7481 307.892 48.7998 307.57 48.8687C307.26 48.9262 306.961 49.0008 306.674 49.0928C306.386 49.1732 306.185 49.2536 306.071 49.3341C306.059 49.3915 306.054 49.4719 306.054 49.5753C306.054 50.1153 306.208 50.6726 306.519 51.2471C306.84 51.8216 307.26 52.3444 307.777 52.8154C308.294 53.2865 308.874 53.6772 309.518 53.9874C310.161 54.2976 310.81 54.4527 311.465 54.4527C311.844 54.4527 312.218 54.4699 312.585 54.5045C312.964 54.5274 313.332 54.6078 313.688 54.7457C313.999 54.5964 314.28 54.424 314.533 54.2287C314.797 54.0333 315.05 53.8265 315.291 53.6082C315.533 53.3899 315.768 53.1659 315.998 52.9361C316.228 52.7063 316.463 52.4765 316.704 52.2467C316.75 52.2007 316.86 52.1605 317.032 52.1261C317.216 52.0801 317.411 52.0456 317.618 52.0227C317.824 51.9882 318.02 51.9652 318.204 51.9537C318.399 51.9307 318.531 51.9192 318.6 51.9192C318.865 51.9192 319.111 51.9594 319.341 52.0399C319.41 52.3042 319.445 52.5627 319.445 52.8154ZM316.86 45.8182C316.86 45.6458 316.831 45.4792 316.773 45.3184C316.716 45.1575 316.67 44.9909 316.636 44.8185C316.578 44.4969 316.549 44.1866 316.549 43.8879C316.549 43.5777 316.503 43.2675 316.412 42.9572H316.394C316.394 43.0262 316.371 43.0951 316.325 43.164C316.279 43.2215 316.216 43.2502 316.136 43.2502C315.998 43.2502 315.866 43.2157 315.74 43.1468C315.613 43.0779 315.504 42.9917 315.412 42.8883C314.975 42.693 314.579 42.5091 314.223 42.3368C313.878 42.1644 313.528 42.0151 313.171 41.8887C312.827 41.7508 312.453 41.6474 312.051 41.5785C311.66 41.498 311.206 41.4578 310.69 41.4578C310.644 41.4578 310.598 41.4636 310.552 41.475C310.517 41.475 310.483 41.4923 310.448 41.5268L310.534 41.7163L310.397 41.7508C310.086 41.8082 309.828 41.8657 309.621 41.9232C309.426 41.9691 309.247 42.0381 309.087 42.13C308.926 42.2219 308.765 42.3368 308.604 42.4747C308.455 42.601 308.26 42.7676 308.018 42.9745C307.903 43.0779 307.777 43.1583 307.639 43.2157C307.512 43.2617 307.381 43.3077 307.243 43.3536C307.116 43.3881 306.99 43.4283 306.863 43.4743C306.749 43.5202 306.651 43.5949 306.57 43.6983C306.49 43.9856 306.369 44.267 306.208 44.5428C306.059 44.8071 305.984 45.0886 305.984 45.3873C305.984 45.5597 306.054 45.7148 306.191 45.8526C306.341 45.979 306.525 46.0882 306.743 46.1801C306.973 46.272 307.22 46.3525 307.484 46.4214C307.76 46.4903 308.03 46.542 308.294 46.5765C308.558 46.611 308.799 46.6397 309.018 46.6627C309.247 46.6742 309.426 46.6799 309.552 46.6799C309.989 46.6799 310.42 46.6397 310.845 46.5593C311.27 46.4673 311.701 46.4214 312.137 46.4214C312.585 46.4214 313.033 46.4443 313.482 46.4903C313.93 46.5248 314.378 46.542 314.826 46.542C314.941 46.542 315.113 46.5363 315.343 46.5248C315.573 46.5133 315.797 46.4846 316.015 46.4386C316.245 46.3812 316.44 46.3065 316.601 46.2146C316.773 46.1112 316.86 45.979 316.86 45.8182Z" fill="white"/>
</g>
<defs>
<clipPath id="clip0_379_203">
<rect width="292.667" height="42.1597" fill="white" transform="translate(28.333 24.5527)"/>
</clipPath>
</defs>
</svg>
