<svg width="350" height="92" viewBox="0 0 350 92" fill="none" xmlns="http://www.w3.org/2000/svg">
<path d="M90.2849 64.0483C93.9272 63.6655 97.3741 62.2112 100.19 59.8694C103.006 57.5275 105.064 54.4033 106.104 50.8917C107.144 47.3802 107.12 43.6391 106.034 40.1415C104.948 36.6439 102.849 33.5468 100.003 31.2421C97.1563 28.9373 93.6906 27.5282 90.0436 27.1931C86.3967 26.858 82.7322 27.6119 79.5137 29.3594C76.2951 31.1069 73.6671 33.7696 71.9618 37.0107C70.2566 40.2519 69.5508 43.9259 69.9336 47.5682C70.494 52.7144 73.0223 57.4448 76.9897 60.7702L82.1001 64.9086" stroke="black" stroke-width="5.00977" stroke-linecap="round" stroke-linejoin="round"/>
<path d="M71.7616 64.9608L82.1001 64.9086L80.0017 54.7851" stroke="black" stroke-width="5.00977" stroke-linecap="round" stroke-linejoin="round"/>
<path d="M117.675 42.7153V25.0392H124.731C128.503 25.0392 130.806 27.1338 130.806 30.5515V30.576C130.806 32.9524 129.532 34.8756 127.475 35.6228L131.333 42.7153H127.732L124.253 36.1005H120.835V42.7153H117.675ZM120.835 33.6016H124.4C126.397 33.6016 127.573 32.4992 127.573 30.6005V30.576C127.573 28.7263 126.323 27.5993 124.339 27.5993H120.835V33.6016ZM138.971 42.9726C135.149 42.9726 132.686 40.4247 132.686 36.223V36.1985C132.686 32.0337 135.185 29.4613 138.958 29.4613C142.743 29.4613 145.255 32.0092 145.255 36.1985V36.223C145.255 40.4369 142.78 42.9726 138.971 42.9726ZM138.983 40.5104C140.906 40.5104 142.143 38.9425 142.143 36.223V36.1985C142.143 33.4914 140.894 31.9357 138.958 31.9357C137.06 31.9357 135.798 33.5036 135.798 36.1985V36.223C135.798 38.9547 137.035 40.5104 138.983 40.5104ZM152.292 42.9726C149.572 42.9726 148.286 41.8701 148.286 39.1997V32.0827H146.449V29.7308H148.286V26.4356H151.385V29.7308H153.798V32.0827H151.385V38.9425C151.385 40.2164 151.949 40.6207 153.063 40.6207C153.357 40.6207 153.59 40.5839 153.798 40.5717V42.8623C153.443 42.9113 152.904 42.9726 152.292 42.9726ZM159.807 42.9358C157.21 42.9358 155.458 41.3311 155.458 39.016V38.9915C155.458 36.6885 157.246 35.3043 160.395 35.1083L163.788 34.9001V34.0059C163.788 32.6952 162.93 31.8989 161.387 31.8989C159.941 31.8989 159.059 32.5727 158.863 33.5281L158.839 33.6384H156.009L156.021 33.4914C156.205 31.1885 158.202 29.4613 161.497 29.4613C164.743 29.4613 166.838 31.1762 166.838 33.7854V42.7153H163.788V40.7186H163.714C162.967 42.0784 161.522 42.9358 159.807 42.9358ZM158.496 38.8935C158.496 39.9592 159.378 40.6084 160.713 40.6084C162.465 40.6084 163.788 39.4447 163.788 37.9012V36.9213L160.823 37.105C159.317 37.203 158.496 37.8522 158.496 38.8812V38.8935ZM174.377 42.9726C171.658 42.9726 170.372 41.8701 170.372 39.1997V32.0827H168.534V29.7308H170.372V26.4356H173.471V29.7308H175.884V32.0827H173.471V38.9425C173.471 40.2164 174.034 40.6207 175.149 40.6207C175.443 40.6207 175.676 40.5839 175.884 40.5717V42.8623C175.529 42.9113 174.99 42.9726 174.377 42.9726ZM179.846 27.8688C178.891 27.8688 178.144 27.1093 178.144 26.2029C178.144 25.2719 178.891 24.5247 179.846 24.5247C180.802 24.5247 181.537 25.2719 181.537 26.2029C181.537 27.1093 180.802 27.8688 179.846 27.8688ZM178.315 42.7153V29.7308H181.365V42.7153H178.315ZM184.213 42.7153V29.7308H187.263V31.7642H187.325C187.998 30.3677 189.321 29.4613 191.293 29.4613C194.148 29.4613 195.777 31.2987 195.777 34.3121V42.7153H192.727V34.9246C192.727 33.0749 191.869 32.0337 190.13 32.0337C188.378 32.0337 187.263 33.3076 187.263 35.1818V42.7153H184.213ZM204.333 47.2599C200.891 47.2599 198.723 45.692 198.355 43.6586L198.331 43.5483H201.332L201.369 43.6463C201.699 44.3935 202.74 44.957 204.333 44.957C206.317 44.957 207.408 43.9035 207.408 42.2498V40.3757H207.346C206.624 41.7599 205.154 42.6418 203.292 42.6418C200.033 42.6418 197.939 40.1429 197.939 36.1005V36.0883C197.939 31.9847 200.058 29.4613 203.341 29.4613C205.178 29.4613 206.599 30.4412 207.334 31.9357H207.408V29.7308H210.458V42.3478C210.458 45.2877 208.094 47.2599 204.333 47.2599ZM204.247 40.2899C206.146 40.2899 207.42 38.6852 207.42 36.1618V36.1495C207.42 33.6384 206.134 32.0337 204.247 32.0337C202.287 32.0337 201.05 33.6139 201.05 36.1373V36.1495C201.05 38.7097 202.287 40.2899 204.247 40.2899ZM218.787 42.7153V25.0392H225.598C229.175 25.0392 231.612 27.4033 231.612 30.9435V30.968C231.612 34.4959 229.175 36.8723 225.598 36.8723H221.947V42.7153H218.787ZM224.814 27.6238H221.947V34.3244H224.814C227.08 34.3244 228.403 33.0994 228.403 30.9802V30.9557C228.403 28.8365 227.08 27.6238 224.814 27.6238ZM239.127 42.9726C235.305 42.9726 232.843 40.4247 232.843 36.223V36.1985C232.843 32.0337 235.342 29.4613 239.115 29.4613C242.9 29.4613 245.411 32.0092 245.411 36.1985V36.223C245.411 40.4369 242.937 42.9726 239.127 42.9726ZM239.139 40.5104C241.063 40.5104 242.3 38.9425 242.3 36.223V36.1985C242.3 33.4914 241.05 31.9357 239.115 31.9357C237.216 31.9357 235.955 33.5036 235.955 36.1985V36.223C235.955 38.9547 237.192 40.5104 239.139 40.5104ZM250.084 42.7153L246.569 29.7308H249.631L251.824 39.7019H251.885L254.421 29.7308H257.348L259.884 39.7019H259.957L262.15 29.7308H265.163L261.648 42.7153H258.438L255.878 33.2219H255.817L253.269 42.7153H250.084ZM272.519 42.9726C268.624 42.9726 266.272 40.3879 266.272 36.2598V36.2475C266.272 32.1562 268.66 29.4613 272.372 29.4613C276.084 29.4613 278.387 32.0704 278.387 35.9903V36.9703H269.297C269.346 39.2487 270.596 40.5962 272.58 40.5962C274.099 40.5962 275.091 39.7877 275.385 38.918L275.41 38.8322H278.264L278.227 38.967C277.823 40.9636 275.912 42.9726 272.519 42.9726ZM272.409 31.8499C270.792 31.8499 269.579 32.9402 269.334 34.9368H275.422C275.202 32.8789 274.026 31.8499 272.409 31.8499ZM280.61 42.7153V29.7308H283.66V31.9724H283.721C284.125 30.4045 285.203 29.4613 286.698 29.4613C287.077 29.4613 287.433 29.5225 287.665 29.5838V32.3399C287.408 32.2419 286.943 32.1684 286.428 32.1684C284.701 32.1684 283.66 33.2586 283.66 35.1818V42.7153H280.61ZM121.999 65.7153V50.6973H116.707V48.0392H130.427V50.6973H125.147V65.7153H121.999ZM135.21 65.9726C131.315 65.9726 128.963 63.3879 128.963 59.2598V59.2475C128.963 55.1562 131.351 52.4613 135.063 52.4613C138.775 52.4613 141.077 55.0704 141.077 58.9903V59.9703H131.988C132.037 62.2487 133.287 63.5962 135.271 63.5962C136.79 63.5962 137.782 62.7877 138.076 61.918L138.101 61.8322H140.955L140.918 61.967C140.514 63.9636 138.603 65.9726 135.21 65.9726ZM135.1 54.8499C133.483 54.8499 132.27 55.9402 132.025 57.9368H138.113C137.893 55.8789 136.717 54.8499 135.1 54.8499ZM149.033 65.9726C145.175 65.9726 142.762 63.3757 142.762 59.2108V59.1985C142.762 55.0582 145.211 52.4613 148.997 52.4613C152.414 52.4613 154.546 54.6294 154.729 57.2264L154.742 57.3244H151.863L151.838 57.2141C151.581 55.9524 150.65 54.9357 149.033 54.9357C147.11 54.9357 145.873 56.5649 145.873 59.223V59.2353C145.873 61.9425 147.122 63.5104 149.046 63.5104C150.589 63.5104 151.569 62.5917 151.851 61.232L151.875 61.1217H154.754L154.742 61.2075C154.509 63.9146 152.316 65.9726 149.033 65.9726ZM156.916 65.7153V48.0392H159.966V54.9112H160.039C160.713 53.3555 162.097 52.4613 164.045 52.4613C166.838 52.4613 168.626 54.4947 168.626 57.6306V65.7153H165.576V58.2308C165.576 56.2341 164.572 55.0337 162.82 55.0337C161.093 55.0337 159.966 56.3444 159.966 58.2308V65.7153H156.916ZM171.339 65.7153V52.7308H174.39V54.7642H174.451C175.124 53.3677 176.447 52.4613 178.42 52.4613C181.274 52.4613 182.903 54.2987 182.903 57.3121V65.7153H179.853V57.9246C179.853 56.0749 178.995 55.0337 177.256 55.0337C175.504 55.0337 174.39 56.3076 174.39 58.1818V65.7153H171.339ZM191.349 65.9726C187.527 65.9726 185.065 63.4247 185.065 59.223V59.1985C185.065 55.0337 187.564 52.4613 191.337 52.4613C195.122 52.4613 197.633 55.0092 197.633 59.1985V59.223C197.633 63.4369 195.158 65.9726 191.349 65.9726ZM191.361 63.5104C193.284 63.5104 194.521 61.9425 194.521 59.223V59.1985C194.521 56.4914 193.272 54.9357 191.337 54.9357C189.438 54.9357 188.176 56.5036 188.176 59.1985V59.223C188.176 61.9547 189.413 63.5104 191.361 63.5104ZM199.929 65.7153V48.0392H202.98V65.7153H199.929ZM211.572 65.9726C207.751 65.9726 205.288 63.4247 205.288 59.223V59.1985C205.288 55.0337 207.787 52.4613 211.56 52.4613C215.345 52.4613 217.856 55.0092 217.856 59.1985V59.223C217.856 63.4369 215.382 65.9726 211.572 65.9726ZM211.585 63.5104C213.508 63.5104 214.745 61.9425 214.745 59.223V59.1985C214.745 56.4914 213.496 54.9357 211.56 54.9357C209.661 54.9357 208.4 56.5036 208.4 59.1985V59.223C208.4 61.9547 209.637 63.5104 211.585 63.5104ZM225.923 70.2599C222.48 70.2599 220.312 68.692 219.945 66.6586L219.92 66.5483H222.921L222.958 66.6463C223.289 67.3935 224.33 67.957 225.923 67.957C227.907 67.957 228.997 66.9035 228.997 65.2498V63.3757H228.936C228.213 64.7599 226.743 65.6418 224.881 65.6418C221.623 65.6418 219.528 63.1429 219.528 59.1005V59.0883C219.528 54.9847 221.647 52.4613 224.93 52.4613C226.768 52.4613 228.189 53.4412 228.924 54.9357H228.997V52.7308H232.047V65.3478C232.047 68.2877 229.683 70.2599 225.923 70.2599ZM225.837 63.2899C227.736 63.2899 229.009 61.6852 229.009 59.1618V59.1495C229.009 56.6384 227.723 55.0337 225.837 55.0337C223.877 55.0337 222.64 56.6139 222.64 59.1373V59.1495C222.64 61.7097 223.877 63.2899 225.837 63.2899ZM236.414 50.8688C235.459 50.8688 234.711 50.1093 234.711 49.2029C234.711 48.2719 235.459 47.5247 236.414 47.5247C237.37 47.5247 238.105 48.2719 238.105 49.2029C238.105 50.1093 237.37 50.8688 236.414 50.8688ZM234.883 65.7153V52.7308H237.933V65.7153H234.883ZM246.489 65.9726C242.594 65.9726 240.242 63.3879 240.242 59.2598V59.2475C240.242 55.1562 242.631 52.4613 246.342 52.4613C250.054 52.4613 252.357 55.0704 252.357 58.9903V59.9703H243.268C243.317 62.2487 244.566 63.5962 246.55 63.5962C248.069 63.5962 249.062 62.7877 249.356 61.918L249.38 61.8322H252.234L252.197 61.967C251.793 63.9636 249.882 65.9726 246.489 65.9726ZM246.379 54.8499C244.762 54.8499 243.549 55.9402 243.304 57.9368H249.392C249.172 55.8789 247.996 54.8499 246.379 54.8499ZM259.651 65.9726C256.246 65.9726 254.298 64.3556 254.029 61.9425L254.016 61.8322H257.017L257.042 61.9425C257.275 63.0572 258.12 63.7186 259.663 63.7186C261.146 63.7186 262.04 63.1184 262.04 62.1629V62.1507C262.04 61.3667 261.587 60.9257 260.239 60.6195L258.083 60.1418C255.597 59.5905 254.347 58.3778 254.347 56.4546V56.4424C254.347 54.066 256.417 52.4613 259.553 52.4613C262.787 52.4613 264.673 54.2375 264.784 56.4791L264.796 56.6139H261.954L261.942 56.5159C261.807 55.4747 260.974 54.7152 259.553 54.7152C258.206 54.7152 257.36 55.3399 257.36 56.2954V56.3076C257.36 57.0549 257.863 57.5448 259.21 57.8511L261.378 58.3288C264.061 58.9291 265.102 59.9825 265.102 61.869V61.8812C265.102 64.3311 262.836 65.9726 259.651 65.9726Z" fill="black"/>
</svg>
