<svg width="350" height="92" viewBox="0 0 350 92" fill="none" xmlns="http://www.w3.org/2000/svg">
<g clip-path="url(#clip0_379_195)">
<path d="M3.0617 44.3569V51.8346H16.564V54.4925H0.226562V31.457H16.5286V34.115H3.0617V41.699H14.0833V44.3569H3.0617ZM20.1287 48.7868H22.7513C22.8221 49.8027 23.2001 50.6296 23.8853 51.2676C24.594 51.9055 25.61 52.2244 26.9331 52.2244C27.7364 52.2244 28.3624 52.1181 28.8113 51.9055C29.2839 51.6928 29.6264 51.4093 29.8391 51.0549C30.0517 50.6769 30.158 50.2634 30.158 49.8145C30.158 49.2712 30.0163 48.8459 29.7327 48.5387C29.4729 48.208 29.1067 47.9363 28.6341 47.7237C28.1852 47.511 27.6655 47.3101 27.0748 47.1212C26.3896 46.8612 25.6808 46.5896 24.9484 46.3061C24.2396 45.9989 23.5664 45.6445 22.9285 45.2429C22.3141 44.8176 21.818 44.3097 21.44 43.719C21.062 43.1047 20.8729 42.3723 20.8729 41.5218C20.8729 40.813 21.0147 40.1514 21.2982 39.5372C21.5817 38.8993 21.9834 38.3558 22.5032 37.907C23.0465 37.4344 23.6727 37.0682 24.3814 36.8083C25.1139 36.5485 25.9172 36.4185 26.7913 36.4185C27.9726 36.4185 28.9649 36.6548 29.7682 37.1273C30.5951 37.5998 31.2212 38.2731 31.6465 39.1474C32.0954 39.9978 32.3316 40.9902 32.3553 42.1242H29.9099C29.7446 41.061 29.402 40.2932 28.8822 39.8206C28.3861 39.3245 27.6655 39.0765 26.7204 39.0765C25.7517 39.0765 25.0076 39.2891 24.4877 39.7143C23.968 40.1396 23.7081 40.7066 23.7081 41.4154C23.7081 41.9352 23.8971 42.3723 24.2751 42.7267C24.6532 43.0574 25.1375 43.3646 25.7281 43.6481C26.3424 43.908 26.9921 44.1797 27.6773 44.4632C28.3624 44.7467 29.0239 45.0302 29.6619 45.3137C30.2998 45.5973 30.8668 45.9281 31.363 46.3061C31.8591 46.684 32.249 47.1566 32.5325 47.7237C32.8396 48.267 32.9932 48.9522 32.9932 49.7791C32.9932 50.7714 32.7569 51.6574 32.2844 52.4371C31.8355 53.1931 31.1622 53.7837 30.2643 54.209C29.3902 54.6343 28.3152 54.8469 27.0394 54.8469C25.8817 54.8469 24.8894 54.7051 24.0625 54.4216C23.2592 54.1145 22.5858 53.7247 22.0425 53.2521C21.499 52.756 21.0737 52.2362 20.7666 51.6928C20.4831 51.1494 20.2942 50.6178 20.1996 50.098C20.1051 49.5783 20.0815 49.1412 20.1287 48.7868ZM35.382 36.7729H45.8011V39.4308H35.382V36.7729ZM39.174 32.1658H42.0091V54.4925H39.174V32.1658ZM64.1769 54.4925H61.3418V36.7729H64.1769V54.4925ZM61.519 46.2352L61.5544 47.2275C61.5308 47.511 61.4599 47.948 61.3418 48.5387C61.2472 49.1294 61.07 49.7909 60.8102 50.5233C60.5739 51.2321 60.2195 51.9172 59.747 52.5788C59.2981 53.2403 58.7074 53.7837 57.975 54.209C57.2662 54.6343 56.3803 54.8469 55.3171 54.8469C54.6319 54.8469 53.9232 54.7406 53.1907 54.5279C52.482 54.339 51.8204 54.02 51.2062 53.5711C50.5918 53.0986 50.0957 52.4488 49.7177 51.622C49.3397 50.795 49.1507 49.7673 49.1507 48.5387V36.7729H51.9859V47.83C51.9859 48.8931 52.1512 49.7319 52.482 50.3461C52.8363 50.9367 53.3089 51.362 53.8995 51.622C54.4901 51.8818 55.1517 52.0118 55.8842 52.0118C57.0891 52.0118 58.0932 51.7046 58.8965 51.0904C59.6997 50.476 60.3141 49.72 60.7393 48.8222C61.1646 47.9244 61.4244 47.0621 61.519 46.2352ZM75.4718 54.8469C74.0542 54.8469 72.7548 54.4571 71.5735 53.6774C70.4157 52.8741 69.4944 51.7873 68.8092 50.417C68.1241 49.0231 67.7814 47.4401 67.7814 45.6681C67.7814 43.8962 68.1122 42.3132 68.7738 40.9193C69.4353 39.5254 70.3449 38.4267 71.5026 37.6235C72.6603 36.8202 73.9833 36.4185 75.4718 36.4185C76.7948 36.4185 77.8698 36.6666 78.6968 37.1627C79.5473 37.6353 80.1969 38.2968 80.6459 39.1474C81.0948 39.9978 81.4022 40.9784 81.5674 42.0888C81.7563 43.1992 81.8511 44.3923 81.8511 45.6681C81.8511 46.566 81.7563 47.5465 81.5674 48.6096C81.3785 49.6492 81.0474 50.6532 80.5747 51.622C80.1258 52.567 79.488 53.3467 78.6613 53.9609C77.8344 54.5516 76.7712 54.8469 75.4718 54.8469ZM76.1806 52.1536C77.3855 52.1536 78.3778 51.8582 79.1575 51.2676C79.9606 50.6769 80.551 49.8972 80.9296 48.9285C81.3074 47.9363 81.4963 46.8495 81.4963 45.6681C81.4963 44.3687 81.2955 43.2346 80.894 42.266C80.5162 41.2737 79.9251 40.5058 79.122 39.9624C78.3424 39.3954 77.3619 39.1119 76.1806 39.1119C74.4086 39.1119 73.0383 39.738 72.0696 40.9902C71.1009 42.2187 70.6166 43.7781 70.6166 45.6681C70.6166 46.9203 70.8529 48.0426 71.3254 49.0348C71.8215 50.0036 72.4831 50.7714 73.31 51.3384C74.1605 51.8818 75.1174 52.1536 76.1806 52.1536ZM81.4963 29.6851H84.3313V54.4925H81.7444C81.697 53.9727 81.6385 53.3584 81.5674 52.6497C81.52 51.9409 81.4963 51.3739 81.4963 50.9486V29.6851ZM92.9785 29.6851V33.1227H89.2923V29.6851H92.9785ZM89.7175 36.7729H92.5532V54.4925H89.7175V36.7729ZM105.085 54.8469C103.573 54.8469 102.156 54.4807 100.833 53.7483C99.5099 53.0159 98.435 51.9645 97.6075 50.5942C96.8045 49.2003 96.403 47.5582 96.403 45.6681C96.403 43.7781 96.8045 42.1478 97.6075 40.7775C98.435 39.3836 99.5099 38.3086 100.833 37.5526C102.156 36.7965 103.573 36.4185 105.085 36.4185C106.598 36.4185 108.003 36.7965 109.302 37.5526C110.625 38.3086 111.689 39.3836 112.492 40.7775C113.295 42.1478 113.697 43.7781 113.697 45.6681C113.697 47.5582 113.295 49.2003 112.492 50.5942C111.689 51.9645 110.625 53.0159 109.302 53.7483C108.003 54.4807 106.598 54.8469 105.085 54.8469ZM105.085 52.189C106.078 52.189 107.011 51.9409 107.885 51.4448C108.759 50.9486 109.468 50.2162 110.011 49.2475C110.579 48.2552 110.862 47.0621 110.862 45.6681C110.862 44.2742 110.579 43.0929 110.011 42.1242C109.468 41.1319 108.759 40.3759 107.885 39.8561C107.011 39.3363 106.078 39.0765 105.085 39.0765C104.093 39.0765 103.148 39.3363 102.25 39.8561C101.376 40.3522 100.655 41.0965 100.088 42.0888C99.5217 43.0574 99.238 44.2506 99.238 45.6681C99.238 47.0621 99.5099 48.2552 100.053 49.2475C100.62 50.2162 101.352 50.9486 102.25 51.4448C103.148 51.9409 104.093 52.189 105.085 52.189ZM135.793 46.7313V31.457H138.628V46.7313C138.628 47.889 138.463 48.964 138.132 49.9563C137.801 50.9486 137.305 51.8109 136.644 52.5434C136.006 53.2758 135.214 53.8428 134.269 54.2444C133.324 54.6461 132.237 54.8469 131.008 54.8469C129.945 54.8469 128.954 54.6933 128.032 54.3862C127.11 54.0555 126.307 53.5947 125.622 53.0041C124.937 52.3898 124.381 51.6455 123.956 50.7714C123.555 49.8972 123.33 48.9168 123.283 47.83H125.87C126.106 49.2712 126.685 50.358 127.607 51.0904C128.528 51.8227 129.662 52.189 131.008 52.189C132.119 52.189 133.017 51.9527 133.702 51.4802C134.411 51.0076 134.931 50.3697 135.261 49.5664C135.615 48.7396 135.793 47.7945 135.793 46.7313ZM151.461 54.8469C149.949 54.8469 148.531 54.4807 147.208 53.7483C145.885 53.0159 144.81 51.9645 143.984 50.5942C143.18 49.2003 142.778 47.5582 142.778 45.6681C142.778 43.7781 143.18 42.1478 143.984 40.7775C144.81 39.3836 145.885 38.3086 147.208 37.5526C148.531 36.7965 149.949 36.4185 151.461 36.4185C152.973 36.4185 154.379 36.7965 155.678 37.5526C157.001 38.3086 158.064 39.3836 158.867 40.7775C159.671 42.1478 160.073 43.7781 160.073 45.6681C160.073 47.5582 159.671 49.2003 158.867 50.5942C158.064 51.9645 157.001 53.0159 155.678 53.7483C154.379 54.4807 152.973 54.8469 151.461 54.8469ZM151.461 52.189C152.453 52.189 153.386 51.9409 154.26 51.4448C155.135 50.9486 155.844 50.2162 156.387 49.2475C156.954 48.2552 157.238 47.0621 157.238 45.6681C157.238 44.2742 156.954 43.0929 156.387 42.1242C155.844 41.1319 155.135 40.3759 154.26 39.8561C153.386 39.3363 152.453 39.0765 151.461 39.0765C150.468 39.0765 149.524 39.3363 148.626 39.8561C147.752 40.3522 147.031 41.0965 146.464 42.0888C145.897 43.0574 145.613 44.2506 145.613 45.6681C145.613 47.0621 145.885 48.2552 146.429 49.2475C146.996 50.2162 147.728 50.9486 148.626 51.4448C149.524 51.9409 150.468 52.189 151.461 52.189ZM163.67 36.7729H166.505V54.4925H163.67V36.7729ZM172.176 39.4308C170.971 39.4308 169.955 39.738 169.129 40.3522C168.325 40.9429 167.687 41.6754 167.214 42.5495C166.765 43.4001 166.471 44.2269 166.328 45.0302L166.293 42.9748C166.293 42.7622 166.34 42.4078 166.435 41.9116C166.529 41.4154 166.707 40.8602 166.966 40.2459C167.226 39.608 167.569 39.0056 167.994 38.4386C168.443 37.8479 169.01 37.3636 169.695 36.9855C170.38 36.6075 171.207 36.4185 172.176 36.4185V39.4308ZM181.712 51.6928C180.46 51.6928 179.266 51.3975 178.132 50.8068C177.023 50.1925 176.113 49.3184 175.404 48.1844C174.719 47.0503 174.376 45.6918 174.376 44.1088C174.376 42.5259 174.719 41.1674 175.404 40.0333C176.089 38.8756 176.987 37.9896 178.097 37.3754C179.208 36.7375 180.412 36.4185 181.712 36.4185C182.114 36.4185 182.492 36.4539 182.846 36.5248C183.224 36.5721 183.578 36.6548 183.909 36.7729H191.103V39.8206C190.088 39.8206 189.071 39.6317 188.056 39.2537C187.063 38.8756 186.213 38.4858 185.504 38.0842L185.362 37.9424C186.189 38.3913 186.862 38.9229 187.382 39.5372C187.925 40.1514 188.327 40.8484 188.587 41.6281C188.871 42.3841 189.012 43.211 189.012 44.1088C189.012 45.6918 188.67 47.0503 187.985 48.1844C187.323 49.3184 186.437 50.1925 185.327 50.8068C184.216 51.3975 183.011 51.6928 181.712 51.6928ZM186.922 61.5804V60.8007C186.922 59.5485 186.59 58.6389 185.929 58.0718C185.291 57.5049 184.323 57.2214 183.023 57.2214H179.479C178.7 57.2214 178.014 57.1505 177.424 57.0087C176.857 56.8906 176.384 56.7015 176.006 56.4417C175.628 56.1818 175.345 55.8628 175.156 55.4848C174.967 55.1068 174.872 54.6815 174.872 54.209C174.872 53.3112 175.144 52.6379 175.688 52.189C176.231 51.7164 176.904 51.4211 177.707 51.303C178.511 51.1848 179.278 51.1848 180.011 51.303L181.712 51.6928C180.436 51.7637 179.444 51.8936 178.735 52.0827C178.05 52.2716 177.707 52.6733 177.707 53.2876C177.707 53.6419 177.837 53.9373 178.097 54.1735C178.38 54.3862 178.794 54.4925 179.337 54.4925H183.023C184.252 54.4925 185.374 54.6579 186.39 54.9887C187.406 55.3431 188.221 55.9219 188.835 56.7252C189.449 57.5521 189.757 58.6743 189.757 60.0919V61.5804H186.922ZM181.712 49.0348C182.492 49.0348 183.213 48.8459 183.874 48.4679C184.558 48.0898 185.114 47.5346 185.539 46.8022C185.965 46.0698 186.177 45.172 186.177 44.1088C186.177 43.0457 185.965 42.1478 185.539 41.4154C185.138 40.6594 184.594 40.0924 183.909 39.7143C183.224 39.3127 182.492 39.1119 181.712 39.1119C180.932 39.1119 180.2 39.3127 179.514 39.7143C178.829 40.0924 178.274 40.6476 177.849 41.38C177.424 42.1124 177.211 43.022 177.211 44.1088C177.211 45.172 177.424 46.0698 177.849 46.8022C178.274 47.5346 178.829 48.0898 179.514 48.4679C180.2 48.8459 180.932 49.0348 181.712 49.0348ZM206.983 48.7868H209.641C209.452 49.9445 209.027 50.984 208.365 51.9055C207.728 52.8032 206.877 53.5239 205.813 54.0672C204.774 54.587 203.57 54.8469 202.199 54.8469C200.545 54.8469 199.057 54.4571 197.734 53.6774C196.411 52.8741 195.359 51.7873 194.579 50.417C193.824 49.0231 193.445 47.4401 193.445 45.6681C193.445 43.8962 193.812 42.3132 194.544 40.9193C195.3 39.5254 196.328 38.4267 197.627 37.6235C198.926 36.8202 200.392 36.4185 202.021 36.4185C203.747 36.4185 205.199 36.8083 206.381 37.588C207.585 38.344 208.471 39.4663 209.039 40.9547C209.629 42.4196 209.865 44.2269 209.748 46.3769H196.28C196.399 47.5346 196.717 48.5505 197.237 49.4247C197.757 50.2989 198.443 50.984 199.293 51.4802C200.143 51.9527 201.112 52.189 202.199 52.189C203.404 52.189 204.42 51.8818 205.247 51.2676C206.097 50.6296 206.676 49.8027 206.983 48.7868ZM202.128 39.0765C200.663 39.0765 199.434 39.5017 198.443 40.3522C197.45 41.2028 196.788 42.3605 196.458 43.8253H206.842C206.747 42.266 206.239 41.0847 205.318 40.2814C204.42 39.4781 203.356 39.0765 202.128 39.0765ZM241.186 46.8022C240.95 48.456 240.383 49.8854 239.485 51.0904C238.588 52.2953 237.442 53.2285 236.047 53.89C234.677 54.5279 233.141 54.8469 231.44 54.8469C229.857 54.8469 228.393 54.5752 227.046 54.0318C225.699 53.4647 224.518 52.6615 223.502 51.622C222.509 50.5823 221.73 49.3302 221.163 47.8654C220.596 46.4005 220.312 44.7704 220.312 42.9748C220.312 41.1555 220.596 39.5254 221.163 38.0842C221.73 36.6193 222.509 35.3671 223.502 34.3276C224.518 33.288 225.699 32.4966 227.046 31.9532C228.393 31.3861 229.857 31.1026 231.44 31.1026C233.165 31.1026 234.712 31.4334 236.083 32.0949C237.477 32.7328 238.623 33.6661 239.52 34.8946C240.418 36.0996 240.985 37.5408 241.222 39.2182H238.599C238.268 38.0369 237.748 37.0446 237.04 36.2413C236.355 35.438 235.527 34.8237 234.559 34.3985C233.59 33.9732 232.551 33.7606 231.44 33.7606C229.999 33.7606 228.641 34.115 227.365 34.8237C226.113 35.5325 225.097 36.5721 224.317 37.9424C223.538 39.3127 223.147 40.9902 223.147 42.9748C223.147 44.9593 223.538 46.6369 224.317 48.0072C225.097 49.3775 226.113 50.417 227.365 51.1258C228.641 51.8346 229.999 52.189 231.44 52.189C232.551 52.189 233.578 51.9881 234.524 51.5865C235.492 51.1612 236.319 50.5469 237.004 49.7436C237.713 48.9404 238.233 47.9599 238.564 46.8022H241.186ZM252.01 54.8469C250.617 54.8469 249.329 54.4571 248.148 53.6774C246.99 52.8741 246.056 51.7873 245.347 50.417C244.663 49.0231 244.32 47.4401 244.32 45.6681C244.32 43.8962 244.675 42.3132 245.383 40.9193C246.092 39.5254 247.049 38.4267 248.253 37.6235C249.482 36.8202 250.853 36.4185 252.365 36.4185C254.018 36.4185 255.271 36.8438 256.121 37.6943C256.996 38.5212 257.586 39.6317 257.893 41.0256C258.224 42.4196 258.39 43.9671 258.39 45.6681C258.39 46.566 258.295 47.5465 258.106 48.6096C257.917 49.6492 257.586 50.6532 257.113 51.622C256.664 52.567 256.027 53.3467 255.2 53.9609C254.373 54.5516 253.31 54.8469 252.01 54.8469ZM252.719 52.1536C253.924 52.1536 254.916 51.8582 255.696 51.2676C256.499 50.6769 257.09 49.8972 257.468 48.9285C257.846 47.9363 258.035 46.8495 258.035 45.6681C258.035 44.3687 257.834 43.2346 257.433 42.266C257.055 41.2737 256.464 40.5058 255.661 39.9624C254.881 39.3954 253.901 39.1119 252.719 39.1119C250.947 39.1119 249.577 39.738 248.608 40.9902C247.639 42.2187 247.155 43.7781 247.155 45.6681C247.155 46.9203 247.391 48.0426 247.864 49.0348C248.36 50.0036 249.022 50.7714 249.848 51.3384C250.699 51.8818 251.656 52.1536 252.719 52.1536ZM258.035 36.7729H260.87V54.4925H258.283C258.283 54.4925 258.259 54.2799 258.212 53.8546C258.189 53.4293 258.153 52.9332 258.106 52.3662C258.059 51.7992 258.035 51.3266 258.035 50.9486V36.7729ZM265.489 36.7729H268.324V54.4925H265.489V36.7729ZM274.42 36.4185C275.365 36.4185 276.215 36.5603 276.972 36.8438C277.727 37.1273 278.366 37.5408 278.885 38.0842C279.405 38.6275 279.807 39.2891 280.09 40.0687C280.373 40.8248 280.515 41.6871 280.515 42.6558V54.4925H277.681V43.3646C277.681 41.9943 277.361 40.9666 276.723 40.2814C276.086 39.5962 275.128 39.2537 273.853 39.2537C272.884 39.2537 271.986 39.5017 271.159 39.9978C270.333 40.494 269.647 41.1792 269.104 42.0534C268.584 42.9039 268.265 43.8962 268.147 45.0302L268.112 42.9748C268.23 41.9825 268.466 41.0847 268.821 40.2814C269.198 39.4781 269.659 38.793 270.202 38.2259C270.77 37.6353 271.408 37.1864 272.116 36.8792C272.848 36.5721 273.617 36.4185 274.42 36.4185ZM286.328 36.4185C287.272 36.4185 288.123 36.5603 288.879 36.8438C289.635 37.1273 290.273 37.5408 290.792 38.0842C291.312 38.6275 291.714 39.2891 291.998 40.0687C292.281 40.8248 292.423 41.6871 292.423 42.6558V54.4925H289.588V43.3646C289.588 41.9943 289.269 40.9666 288.631 40.2814C287.993 39.5962 287.036 39.2537 285.76 39.2537C284.792 39.2537 283.894 39.5017 283.067 39.9978C282.24 40.494 281.555 41.1792 281.012 42.0534C280.492 42.9039 280.172 43.8962 280.055 45.0302L280.019 42.9748C280.138 41.9825 280.373 41.0847 280.728 40.2814C281.106 39.4781 281.567 38.793 282.11 38.2259C282.677 37.6353 283.315 37.1864 284.024 36.8792C284.757 36.5721 285.524 36.4185 286.328 36.4185ZM305.878 54.8469C304.578 54.8469 303.515 54.5516 302.688 53.9609C301.861 53.3467 301.212 52.567 300.739 51.622C300.29 50.6532 299.971 49.6492 299.782 48.6096C299.593 47.5465 299.498 46.566 299.498 45.6681C299.498 44.3923 299.581 43.1992 299.746 42.0888C299.935 40.9784 300.254 39.9978 300.703 39.1474C301.152 38.2968 301.79 37.6353 302.617 37.1627C303.467 36.6666 304.554 36.4185 305.878 36.4185C307.295 36.4185 308.582 36.8202 309.74 37.6235C310.898 38.4267 311.82 39.5254 312.505 40.9193C313.213 42.3132 313.568 43.8962 313.568 45.6681C313.568 47.4401 313.213 49.0231 312.505 50.417C311.796 51.7873 310.851 52.8741 309.669 53.6774C308.512 54.4571 307.247 54.8469 305.878 54.8469ZM305.169 52.1536C306.256 52.1536 307.212 51.8818 308.039 51.3384C308.89 50.7714 309.551 50.0036 310.024 49.0348C310.497 48.0426 310.733 46.9203 310.733 45.6681C310.733 43.7781 310.248 42.2187 309.279 40.9902C308.311 39.738 306.941 39.1119 305.169 39.1119C304.129 39.1119 303.208 39.3954 302.404 39.9624C301.601 40.5058 300.975 41.2737 300.526 42.266C300.077 43.2346 299.853 44.3687 299.853 45.6681C299.853 46.8495 300.042 47.9363 300.42 48.9285C300.821 49.8972 301.412 50.6769 302.192 51.2676C302.972 51.8582 303.964 52.1536 305.169 52.1536ZM297.018 36.7729H299.746L299.853 40.494V61.5804H297.018V36.7729ZM324.885 54.8469C323.373 54.8469 321.955 54.4807 320.632 53.7483C319.309 53.0159 318.234 51.9645 317.407 50.5942C316.604 49.2003 316.202 47.5582 316.202 45.6681C316.202 43.7781 316.604 42.1478 317.407 40.7775C318.234 39.3836 319.309 38.3086 320.632 37.5526C321.955 36.7965 323.373 36.4185 324.885 36.4185C326.397 36.4185 327.803 36.7965 329.102 37.5526C330.425 38.3086 331.488 39.3836 332.291 40.7775C333.095 42.1478 333.496 43.7781 333.496 45.6681C333.496 47.5582 333.095 49.2003 332.291 50.5942C331.488 51.9645 330.425 53.0159 329.102 53.7483C327.803 54.4807 326.397 54.8469 324.885 54.8469ZM324.885 52.189C325.877 52.189 326.81 51.9409 327.684 51.4448C328.558 50.9486 329.267 50.2162 329.811 49.2475C330.378 48.2552 330.662 47.0621 330.662 45.6681C330.662 44.2742 330.378 43.0929 329.811 42.1242C329.267 41.1319 328.558 40.3759 327.684 39.8561C326.81 39.3363 325.877 39.0765 324.885 39.0765C323.892 39.0765 322.948 39.3363 322.05 39.8561C321.176 40.3522 320.455 41.0965 319.887 42.0888C319.321 43.0574 319.037 44.2506 319.037 45.6681C319.037 47.0621 319.309 48.2552 319.853 49.2475C320.419 50.2162 321.152 50.9486 322.05 51.4448C322.948 51.9409 323.892 52.189 324.885 52.189ZM336.244 48.7868H338.866C338.937 49.8027 339.315 50.6296 340 51.2676C340.709 51.9055 341.725 52.2244 343.048 52.2244C343.852 52.2244 344.478 52.1181 344.926 51.9055C345.399 51.6928 345.741 51.4093 345.954 51.0549C346.167 50.6769 346.273 50.2634 346.273 49.8145C346.273 49.2712 346.131 48.8459 345.848 48.5387C345.588 48.208 345.222 47.9363 344.749 47.7237C344.301 47.511 343.781 47.3101 343.19 47.1212C342.505 46.8612 341.796 46.5896 341.063 46.3061C340.355 45.9989 339.682 45.6445 339.043 45.2429C338.429 44.8176 337.933 44.3097 337.555 43.719C337.177 43.1047 336.988 42.3723 336.988 41.5218C336.988 40.813 337.13 40.1514 337.413 39.5372C337.697 38.8993 338.099 38.3558 338.618 37.907C339.162 37.4344 339.788 37.0682 340.497 36.8083C341.229 36.5485 342.032 36.4185 342.906 36.4185C344.088 36.4185 345.08 36.6548 345.884 37.1273C346.71 37.5998 347.336 38.2731 347.761 39.1474C348.21 39.9978 348.447 40.9902 348.47 42.1242H346.025C345.86 41.061 345.517 40.2932 344.998 39.8206C344.501 39.3245 343.78 39.0765 342.835 39.0765C341.867 39.0765 341.123 39.2891 340.602 39.7143C340.083 40.1396 339.823 40.7066 339.823 41.4154C339.823 41.9352 340.012 42.3723 340.39 42.7267C340.768 43.0574 341.252 43.3646 341.843 43.6481C342.457 43.908 343.107 44.1797 343.792 44.4632C344.478 44.7467 345.139 45.0302 345.777 45.3137C346.415 45.5973 346.982 45.9281 347.478 46.3061C347.974 46.684 348.364 47.1566 348.647 47.7237C348.955 48.267 349.108 48.9522 349.108 49.7791C349.108 50.7714 348.872 51.6574 348.399 52.4371C347.95 53.1931 347.277 53.7837 346.379 54.209C345.505 54.6343 344.43 54.8469 343.155 54.8469C341.997 54.8469 341.005 54.7051 340.177 54.4216C339.374 54.1145 338.701 53.7247 338.157 53.2521C337.614 52.756 337.189 52.2362 336.882 51.6928C336.598 51.1494 336.409 50.6178 336.315 50.098C336.22 49.5783 336.196 49.1412 336.244 48.7868Z" fill="white"/>
</g>
<defs>
<clipPath id="clip0_379_195">
<rect width="349.334" height="91.2653" fill="white"/>
</clipPath>
</defs>
</svg>
